M48
;DRILL file {KiCad 4.0.2-stable} date 29/08/2016 16:57:48
;FORMAT={-:-/ absolute / metric / decimal}
FMAT,2
METRIC,TZ
T1C0.400
T2C0.762
T3C1.001
T4C1.016
T5C1.200
T6C3.800
T7C4.000
T8C4.200
%
G90
G05
M71
T1
X31.242Y-43.18
X32.385Y-50.165
X32.385Y-67.437
X33.782Y-67.31
X34.163Y-69.215
X35.941Y-67.437
X36.195Y-50.165
X36.449Y-49.403
X36.576Y-61.849
X37.465Y-65.405
X38.354Y-49.403
X40.005Y-65.532
X41.656Y-48.514
X42.418Y-46.736
X43.942Y-69.215
X44.704Y-77.724
X44.958Y-48.514
X45.974Y-79.629
X47.244Y-70.104
X47.244Y-72.644
X48.006Y-78.74
X49.022Y-56.515
X50.038Y-53.086
X50.292Y-49.53
X52.832Y-49.53
X52.832Y-55.88
X53.086Y-53.086
X55.118Y-51.181
X55.372Y-55.88
X58.166Y-82.042
X59.309Y-83.058
X59.436Y-81.026
X61.087Y-64.008
X63.373Y-63.119
X64.262Y-71.374
X66.802Y-54.61
X68.072Y-74.295
X68.072Y-76.835
X69.342Y-71.755
X70.612Y-63.119
X70.612Y-74.295
X70.612Y-76.835
X70.612Y-80.645
X70.739Y-66.548
X73.152Y-64.008
X73.152Y-66.548
X73.152Y-67.818
X73.152Y-74.295
X73.152Y-76.835
X75.946Y-43.942
X79.248Y-64.008
X79.248Y-79.375
X79.502Y-60.96
X80.391Y-66.548
X81.534Y-64.008
X84.455Y-66.548
X87.122Y-64.135
X88.138Y-57.15
X89.662Y-64.135
X90.424Y-57.15
X90.932Y-40.894
X93.98Y-40.894
X94.742Y-73.025
X95.25Y-49.784
X97.917Y-62.865
T2
X32.385Y-45.72
X34.925Y-45.72
X37.465Y-45.72
X40.005Y-45.72
X54.102Y-85.09
X56.642Y-85.09
X59.182Y-85.09
X61.722Y-85.09
X64.262Y-85.09
X66.802Y-85.09
X69.342Y-85.09
X71.882Y-85.09
X83.312Y-69.215
X83.312Y-71.755
X83.312Y-74.295
X83.312Y-76.835
X83.312Y-79.375
X83.312Y-81.915
X92.71Y-74.204
X92.71Y-81.244
T3
X51.562Y-76.2
X51.562Y-78.74
X61.722Y-76.2
X61.722Y-78.74
T4
X25.4Y-76.073
X25.4Y-78.613
X32.385Y-57.15
X32.385Y-59.69
X34.925Y-57.15
X34.925Y-59.69
X37.465Y-57.15
X37.465Y-59.69
X40.005Y-57.15
X40.005Y-59.69
X48.895Y-45.72
X48.895Y-60.96
X51.435Y-45.72
X51.435Y-60.96
X53.975Y-45.72
X53.975Y-60.96
X56.515Y-45.72
X56.515Y-60.96
X57.785Y-58.04
X59.055Y-45.72
X59.055Y-60.96
X60.325Y-58.04
X61.595Y-45.72
X61.595Y-60.96
X64.135Y-45.72
X64.135Y-60.96
X66.675Y-45.72
X66.675Y-60.96
X67.945Y-58.04
X69.215Y-45.72
X69.215Y-60.96
X70.485Y-58.04
X71.755Y-45.72
X71.755Y-60.96
X74.295Y-45.72
X74.295Y-60.96
X76.835Y-45.72
X76.835Y-60.96
X82.042Y-52.07
X82.042Y-54.61
X82.042Y-57.15
X84.582Y-52.07
X84.582Y-54.61
X84.582Y-57.15
T5
X31.242Y-36.83
X33.782Y-36.83
X36.322Y-36.83
X38.862Y-36.83
X41.402Y-36.83
X43.942Y-36.83
X56.642Y-36.83
X59.182Y-36.83
X61.722Y-36.83
X64.262Y-36.83
X66.802Y-36.83
X69.342Y-36.83
T6
X45.792Y-98.91
X49.692Y-136.43
X75.692Y-136.43
X80.192Y-98.91
T7
X25.743Y-36.83
X25.743Y-67.831
X100.741Y-36.83
X100.741Y-67.831
T8
X26.162Y-86.868
X101.092Y-86.856
T3
X34.561Y-79.525G85X36.559Y-79.525
G05
X34.561Y-85.524G85X36.559Y-85.524
G05
X40.259Y-83.524G85X40.259Y-81.525
G05
T0
M30
