G04 #@! TF.FileFunction,Copper,L2,Bot,Signal*
%FSLAX46Y46*%
G04 Gerber Fmt 4.6, Leading zero omitted, Abs format (unit mm)*
G04 Created by KiCad (PCBNEW 4.0.2-stable) date 29/08/2016 16:57:44*
%MOMM*%
G01*
G04 APERTURE LIST*
%ADD10C,0.100000*%
%ADD11C,1.524000*%
%ADD12R,2.000000X1.900000*%
%ADD13C,1.900000*%
%ADD14O,1.800000X2.600000*%
%ADD15C,5.000000*%
%ADD16R,1.300000X0.700000*%
%ADD17C,1.600000*%
%ADD18C,6.000000*%
%ADD19R,0.800100X0.800100*%
%ADD20R,2.032000X3.657600*%
%ADD21R,2.032000X1.016000*%
%ADD22R,2.999740X1.600200*%
%ADD23R,0.700000X1.300000*%
%ADD24R,1.000000X1.250000*%
%ADD25R,1.727200X1.727200*%
%ADD26O,1.727200X1.727200*%
%ADD27C,4.000000*%
%ADD28R,0.762000X1.016000*%
%ADD29R,1.143000X0.254000*%
%ADD30R,1.200000X0.254000*%
%ADD31R,1.016000X0.762000*%
%ADD32R,0.254000X1.143000*%
%ADD33R,0.254000X1.200000*%
%ADD34O,1.727200X2.032000*%
%ADD35R,1.727200X2.032000*%
%ADD36R,2.032000X2.032000*%
%ADD37O,2.032000X2.032000*%
%ADD38R,3.500120X3.500120*%
%ADD39C,0.600000*%
%ADD40C,0.350000*%
%ADD41C,0.300000*%
%ADD42C,0.200000*%
%ADD43C,0.250000*%
%ADD44C,0.254000*%
G04 APERTURE END LIST*
D10*
D11*
X34925000Y-45720000D03*
X32385000Y-45720000D03*
X37465000Y-45720000D03*
X40005000Y-45720000D03*
D12*
X61722000Y-78740000D03*
D13*
X61722000Y-76200000D03*
D14*
X31242000Y-36830000D03*
X33782000Y-36830000D03*
X36322000Y-36830000D03*
X38862000Y-36830000D03*
X41402000Y-36830000D03*
X43942000Y-36830000D03*
X56642000Y-36830000D03*
X59182000Y-36830000D03*
X61722000Y-36830000D03*
X64262000Y-36830000D03*
X66802000Y-36830000D03*
X69342000Y-36830000D03*
D15*
X25742900Y-36830000D03*
X25742900Y-67830700D03*
X100741480Y-67830700D03*
X100741480Y-36830000D03*
D16*
X60960000Y-54290000D03*
X60960000Y-52390000D03*
D11*
X83312000Y-74295000D03*
X83312000Y-76835000D03*
X83312000Y-71755000D03*
X83312000Y-69215000D03*
X83312000Y-79375000D03*
X83312000Y-81915000D03*
D17*
X92710000Y-81244000D03*
X92710000Y-74204000D03*
D12*
X51562000Y-78740000D03*
D13*
X51562000Y-76200000D03*
D18*
X26162000Y-86868000D03*
X101092000Y-86856000D03*
D19*
X94427000Y-66309240D03*
X96327000Y-66309240D03*
X95377000Y-68308220D03*
D20*
X99314000Y-52070000D03*
D21*
X92710000Y-52070000D03*
X92710000Y-49784000D03*
X92710000Y-54356000D03*
D22*
X92542360Y-44450000D03*
X96941640Y-44450000D03*
D16*
X57785000Y-54290000D03*
X57785000Y-52390000D03*
X91567000Y-68260000D03*
X91567000Y-66360000D03*
D23*
X69022000Y-52070000D03*
X67122000Y-52070000D03*
X72832000Y-52070000D03*
X70932000Y-52070000D03*
D16*
X51562000Y-73340000D03*
X51562000Y-71440000D03*
X61722000Y-73340000D03*
X61722000Y-71440000D03*
D24*
X69612000Y-54610000D03*
X71612000Y-54610000D03*
D25*
X82042000Y-57150000D03*
D26*
X84582000Y-57150000D03*
X82042000Y-54610000D03*
X84582000Y-54610000D03*
X82042000Y-52070000D03*
X84582000Y-52070000D03*
D11*
X69342000Y-85090000D03*
X71882000Y-85090000D03*
X66802000Y-85090000D03*
X64262000Y-85090000D03*
X61722000Y-85090000D03*
X59182000Y-85090000D03*
X56642000Y-85090000D03*
X54102000Y-85090000D03*
D27*
X80192000Y-98910000D03*
X45792000Y-98910000D03*
X75692000Y-136430000D03*
X49692000Y-136430000D03*
D22*
X92542360Y-59690000D03*
X96941640Y-59690000D03*
D28*
X77597000Y-40132000D03*
D29*
X76454000Y-39751000D03*
D28*
X76073000Y-40132000D03*
D29*
X76454000Y-40513000D03*
D30*
X77343000Y-40132000D03*
D31*
X101346000Y-44196000D03*
D32*
X100965000Y-45339000D03*
D31*
X101346000Y-45720000D03*
D32*
X101727000Y-45339000D03*
D33*
X101346000Y-44450000D03*
D34*
X60325000Y-58040000D03*
X67945000Y-58040000D03*
X70485000Y-58040000D03*
X57785000Y-58040000D03*
X48895000Y-60960000D03*
X59055000Y-45720000D03*
X53975000Y-60960000D03*
X56515000Y-60960000D03*
X51435000Y-60960000D03*
X76835000Y-45720000D03*
X76835000Y-60960000D03*
X74295000Y-60960000D03*
X71755000Y-60960000D03*
X69215000Y-60960000D03*
X66675000Y-60960000D03*
X64135000Y-60960000D03*
X59055000Y-60960000D03*
X61595000Y-60960000D03*
X71755000Y-45720000D03*
X74295000Y-45720000D03*
X69215000Y-45720000D03*
X66675000Y-45720000D03*
X64135000Y-45720000D03*
X61595000Y-45720000D03*
X56515000Y-45720000D03*
X53975000Y-45720000D03*
X51435000Y-45720000D03*
D35*
X48895000Y-45720000D03*
D36*
X25400000Y-76073000D03*
D37*
X25400000Y-78613000D03*
D31*
X28956000Y-76835000D03*
D32*
X28575000Y-77978000D03*
D31*
X28956000Y-78359000D03*
D32*
X29337000Y-77978000D03*
D33*
X28956000Y-77089000D03*
D31*
X91440000Y-71374000D03*
D32*
X91821000Y-70231000D03*
D31*
X91440000Y-69850000D03*
D32*
X91059000Y-70231000D03*
D33*
X91440000Y-71120000D03*
D38*
X35560000Y-79524860D03*
X35560000Y-85524340D03*
X40259000Y-82524600D03*
D31*
X40005000Y-62738000D03*
D32*
X39624000Y-63881000D03*
D31*
X40005000Y-64262000D03*
D32*
X40386000Y-63881000D03*
D33*
X40005000Y-62992000D03*
D31*
X32385000Y-52832000D03*
D32*
X32766000Y-51689000D03*
D31*
X32385000Y-51308000D03*
D32*
X32004000Y-51689000D03*
D33*
X32385000Y-52578000D03*
D31*
X34925000Y-51308000D03*
D32*
X34544000Y-52451000D03*
D31*
X34925000Y-52832000D03*
D32*
X35306000Y-52451000D03*
D33*
X34925000Y-51562000D03*
D31*
X37465000Y-51308000D03*
D32*
X37084000Y-52451000D03*
D31*
X37465000Y-52832000D03*
D32*
X37846000Y-52451000D03*
D33*
X37465000Y-51562000D03*
D25*
X32385000Y-57150000D03*
D26*
X32385000Y-59690000D03*
X34925000Y-57150000D03*
X34925000Y-59690000D03*
X37465000Y-57150000D03*
X37465000Y-59690000D03*
X40005000Y-57150000D03*
X40005000Y-59690000D03*
D31*
X32385000Y-62738000D03*
D32*
X32004000Y-63881000D03*
D31*
X32385000Y-64262000D03*
D32*
X32766000Y-63881000D03*
D33*
X32385000Y-62992000D03*
D31*
X37465000Y-62738000D03*
D32*
X37084000Y-63881000D03*
D31*
X37465000Y-64262000D03*
D32*
X37846000Y-63881000D03*
D33*
X37465000Y-62992000D03*
D31*
X34925000Y-64262000D03*
D32*
X35306000Y-63119000D03*
D31*
X34925000Y-62738000D03*
D32*
X34544000Y-63119000D03*
D33*
X34925000Y-64008000D03*
D31*
X54864000Y-80518000D03*
D32*
X54483000Y-81661000D03*
D31*
X54864000Y-82042000D03*
D32*
X55245000Y-81661000D03*
D33*
X54864000Y-80772000D03*
D31*
X61722000Y-67818000D03*
D32*
X61341000Y-68961000D03*
D31*
X61722000Y-69342000D03*
D32*
X62103000Y-68961000D03*
D33*
X61722000Y-68072000D03*
D39*
X32385000Y-67437000D03*
X48006000Y-78740000D03*
X31242000Y-43180000D03*
X41656000Y-48514000D03*
X44958000Y-48514000D03*
X89662000Y-64135000D03*
X87122000Y-64135000D03*
X94742000Y-73025000D03*
X61087000Y-64008000D03*
X79248000Y-79375000D03*
X79248000Y-64008000D03*
X73152000Y-64008000D03*
X73152000Y-76835000D03*
X70612000Y-76835000D03*
X68072000Y-76835000D03*
X68072000Y-74295000D03*
X70612000Y-74295000D03*
X73152000Y-74295000D03*
X84455000Y-66548000D03*
X80391000Y-66548000D03*
X73152000Y-66548000D03*
X70739000Y-66548000D03*
X70612000Y-63119000D03*
X63373000Y-63119000D03*
X70612000Y-80645000D03*
X69342000Y-71755000D03*
X32385000Y-50165000D03*
X40005000Y-65532000D03*
X36449000Y-49403000D03*
X38354000Y-49403000D03*
X42418000Y-46736000D03*
X81534000Y-64008000D03*
X73152000Y-67818000D03*
X53086000Y-53086000D03*
X55118000Y-51181000D03*
X50038000Y-53086000D03*
X43942000Y-69215000D03*
X34163000Y-69215000D03*
X95250000Y-49784000D03*
X90424000Y-57150000D03*
X88138000Y-57150000D03*
X55372000Y-55880000D03*
X52832000Y-55880000D03*
X49022000Y-56515000D03*
X66802000Y-54610000D03*
X79502000Y-60960000D03*
X45974000Y-79629000D03*
X35941000Y-67437000D03*
X33782000Y-67310000D03*
X37465000Y-65405000D03*
X36195000Y-50165000D03*
X97917000Y-62865000D03*
X59309000Y-83058000D03*
X59436000Y-81026000D03*
X75946000Y-43942000D03*
X64262000Y-71374000D03*
X52832000Y-49530000D03*
X50292000Y-49530000D03*
X44704000Y-77724000D03*
X93980000Y-40894000D03*
X90932000Y-40894000D03*
X58166000Y-82042000D03*
X36576000Y-61849000D03*
X47244000Y-70104000D03*
X47244000Y-72644000D03*
D40*
X34925000Y-68199000D02*
X32639000Y-68199000D01*
X32385000Y-67945000D02*
X32385000Y-67437000D01*
X32639000Y-68199000D02*
X32385000Y-67945000D01*
X34925000Y-64262000D02*
X34925000Y-68199000D01*
D41*
X51562000Y-78740000D02*
X48006000Y-78740000D01*
D40*
X36322000Y-43180000D02*
X36957000Y-43180000D01*
X36957000Y-43180000D02*
X37465000Y-43180000D01*
X37465000Y-43180000D02*
X37465000Y-45720000D01*
X36322000Y-43180000D02*
X31242000Y-43180000D01*
X51562000Y-48514000D02*
X44958000Y-48514000D01*
X41656000Y-48514000D02*
X37465000Y-48514000D01*
D41*
X35306000Y-84508340D02*
X37005260Y-84508340D01*
D40*
X37465000Y-45720000D02*
X37465000Y-48514000D01*
D41*
X83312000Y-69215000D02*
X83312000Y-64770000D01*
X89662000Y-64135000D02*
X92837000Y-64135000D01*
X83947000Y-64135000D02*
X87122000Y-64135000D01*
X83312000Y-64770000D02*
X83947000Y-64135000D01*
D40*
X56642000Y-45720000D02*
X56642000Y-46990000D01*
X56642000Y-46990000D02*
X55372000Y-48260000D01*
X55372000Y-48260000D02*
X51562000Y-48260000D01*
X51562000Y-48260000D02*
X51562000Y-48514000D01*
X51562000Y-48514000D02*
X51562000Y-51308000D01*
X51562000Y-51308000D02*
X51562000Y-51435000D01*
X51562000Y-51435000D02*
X51562000Y-60960000D01*
X56642000Y-45720000D02*
X56642000Y-40005000D01*
X56642000Y-40005000D02*
X54102000Y-37465000D01*
X54102000Y-37465000D02*
X54102000Y-35560000D01*
X54102000Y-35560000D02*
X54737000Y-34925000D01*
X54737000Y-34925000D02*
X68707000Y-34925000D01*
X68707000Y-34925000D02*
X69342000Y-35560000D01*
D41*
X69342000Y-35560000D02*
X69342000Y-36830000D01*
D40*
X84582000Y-52070000D02*
X89662000Y-52070000D01*
X51562000Y-78740000D02*
X52832000Y-78740000D01*
X60452000Y-78740000D02*
X61722000Y-78740000D01*
X59182000Y-77470000D02*
X60452000Y-78740000D01*
X54102000Y-77470000D02*
X59182000Y-77470000D01*
X52832000Y-78740000D02*
X54102000Y-77470000D01*
X96327000Y-66990000D02*
X96327000Y-66309240D01*
X97282000Y-67945000D02*
X96327000Y-66990000D01*
X97282000Y-73025000D02*
X97282000Y-67945000D01*
X94742000Y-73025000D02*
X97282000Y-73025000D01*
D41*
X96327000Y-66309240D02*
X96327000Y-65085000D01*
X92542360Y-63840360D02*
X92542360Y-59690000D01*
X93472000Y-64770000D02*
X92837000Y-64135000D01*
X92837000Y-64135000D02*
X92542360Y-63840360D01*
X96012000Y-64770000D02*
X93472000Y-64770000D01*
X96327000Y-65085000D02*
X96012000Y-64770000D01*
D40*
X71612000Y-54610000D02*
X72517000Y-54610000D01*
X72517000Y-54610000D02*
X72832000Y-54295000D01*
X72832000Y-54295000D02*
X72832000Y-52070000D01*
X92542360Y-44450000D02*
X90932000Y-44450000D01*
X89662000Y-45720000D02*
X89662000Y-52070000D01*
X90932000Y-44450000D02*
X89662000Y-45720000D01*
X90678000Y-54356000D02*
X92710000Y-54356000D01*
X89662000Y-52070000D02*
X89662000Y-53340000D01*
X89662000Y-53340000D02*
X90678000Y-54356000D01*
X92542360Y-59690000D02*
X92542360Y-54523640D01*
D41*
X92542360Y-54523640D02*
X92710000Y-54356000D01*
D40*
X69342000Y-36830000D02*
X90932000Y-36830000D01*
X90932000Y-36830000D02*
X92542360Y-38440360D01*
X92542360Y-38440360D02*
X92542360Y-44450000D01*
X84582000Y-52070000D02*
X84582000Y-50800000D01*
X84582000Y-50800000D02*
X83947000Y-50165000D01*
X83947000Y-50165000D02*
X76327000Y-50165000D01*
X76327000Y-50165000D02*
X74422000Y-52070000D01*
X74422000Y-52070000D02*
X72832000Y-52070000D01*
D41*
X69612000Y-54610000D02*
X68707000Y-54610000D01*
X68072000Y-55245000D02*
X68072000Y-58040000D01*
X68707000Y-54610000D02*
X68072000Y-55245000D01*
X69022000Y-52070000D02*
X70932000Y-52070000D01*
X69612000Y-54610000D02*
X69612000Y-52340000D01*
X69612000Y-52340000D02*
X69342000Y-52070000D01*
X69342000Y-52070000D02*
X69022000Y-52070000D01*
X59055000Y-64008000D02*
X59055000Y-60960000D01*
X61087000Y-64008000D02*
X59055000Y-64008000D01*
X79248000Y-64008000D02*
X73152000Y-64008000D01*
X83312000Y-79375000D02*
X79248000Y-79375000D01*
X57785000Y-54290000D02*
X57785000Y-55245000D01*
X57785000Y-54991000D02*
X57785000Y-55245000D01*
X57785000Y-55245000D02*
X57785000Y-58040000D01*
X68072000Y-76835000D02*
X70612000Y-76835000D01*
X83312000Y-76835000D02*
X73152000Y-76835000D01*
X60960000Y-54290000D02*
X60960000Y-54356000D01*
X60960000Y-54356000D02*
X60325000Y-54991000D01*
X60325000Y-54991000D02*
X60325000Y-58040000D01*
X83312000Y-74295000D02*
X73152000Y-74295000D01*
X70612000Y-74295000D02*
X68072000Y-74295000D01*
D42*
X91440000Y-69850000D02*
X91440000Y-69215000D01*
X91440000Y-69215000D02*
X91567000Y-69088000D01*
X61595000Y-60960000D02*
X61595000Y-62611000D01*
X91567000Y-69088000D02*
X91567000Y-68260000D01*
X91440000Y-69215000D02*
X91567000Y-69088000D01*
X88900000Y-69215000D02*
X91440000Y-69215000D01*
X88773000Y-69088000D02*
X88900000Y-69215000D01*
X88773000Y-66675000D02*
X88773000Y-69088000D01*
X88646000Y-66548000D02*
X88773000Y-66675000D01*
X87630000Y-66548000D02*
X88646000Y-66548000D01*
X84455000Y-66548000D02*
X87630000Y-66548000D01*
X73152000Y-66548000D02*
X80391000Y-66548000D01*
X70739000Y-63246000D02*
X70739000Y-66548000D01*
X70612000Y-63119000D02*
X70739000Y-63246000D01*
X62103000Y-63119000D02*
X63373000Y-63119000D01*
X61595000Y-62611000D02*
X62103000Y-63119000D01*
D41*
X68072000Y-80645000D02*
X64262000Y-84455000D01*
X70612000Y-80645000D02*
X68072000Y-80645000D01*
X64262000Y-84455000D02*
X64262000Y-85090000D01*
X74422000Y-60960000D02*
X74422000Y-60325000D01*
X74422000Y-60325000D02*
X75692000Y-59055000D01*
X75692000Y-59055000D02*
X80137000Y-59055000D01*
X80137000Y-59055000D02*
X82042000Y-57150000D01*
X69342000Y-71755000D02*
X69342000Y-60960000D01*
X69342000Y-60960000D02*
X70612000Y-59690000D01*
X76327000Y-54610000D02*
X82042000Y-54610000D01*
X71247000Y-59690000D02*
X76327000Y-54610000D01*
X70612000Y-59690000D02*
X71247000Y-59690000D01*
X66802000Y-85090000D02*
X66802000Y-84455000D01*
X66802000Y-84455000D02*
X68707000Y-82550000D01*
X68707000Y-82550000D02*
X70612000Y-82550000D01*
X70612000Y-82550000D02*
X71882000Y-81280000D01*
X71882000Y-81280000D02*
X71882000Y-60960000D01*
X71882000Y-60960000D02*
X71882000Y-61595000D01*
X71882000Y-61595000D02*
X73152000Y-62865000D01*
X73152000Y-62865000D02*
X85852000Y-62865000D01*
X85852000Y-62865000D02*
X87122000Y-61595000D01*
X87122000Y-61595000D02*
X87122000Y-55245000D01*
X87122000Y-55245000D02*
X86487000Y-54610000D01*
X86487000Y-54610000D02*
X84582000Y-54610000D01*
X32385000Y-51308000D02*
X32385000Y-50165000D01*
X40005000Y-65532000D02*
X40005000Y-64262000D01*
X42418000Y-49276000D02*
X42418000Y-63881000D01*
X42037000Y-64262000D02*
X40005000Y-64262000D01*
X42418000Y-63881000D02*
X42037000Y-64262000D01*
X32258000Y-49022000D02*
X32258000Y-45847000D01*
X32639000Y-49403000D02*
X32258000Y-49022000D01*
X36449000Y-49403000D02*
X32639000Y-49403000D01*
X42291000Y-49403000D02*
X38354000Y-49403000D01*
X42418000Y-49276000D02*
X42291000Y-49403000D01*
X42418000Y-46736000D02*
X42418000Y-49276000D01*
X32258000Y-45847000D02*
X32385000Y-45720000D01*
X74422000Y-45720000D02*
X74422000Y-44450000D01*
X74422000Y-44450000D02*
X74422000Y-39370000D01*
X74422000Y-39370000D02*
X73787000Y-38735000D01*
X73787000Y-38735000D02*
X65532000Y-38735000D01*
X65532000Y-38735000D02*
X64262000Y-37465000D01*
X64262000Y-37465000D02*
X64262000Y-36830000D01*
X51562000Y-76200000D02*
X51562000Y-73340000D01*
X61722000Y-76200000D02*
X61722000Y-73340000D01*
X81534000Y-67310000D02*
X81534000Y-64008000D01*
X81026000Y-67818000D02*
X81534000Y-67310000D01*
X73152000Y-67818000D02*
X81026000Y-67818000D01*
X43053000Y-63373000D02*
X43053000Y-62992000D01*
X43754000Y-71440000D02*
X43053000Y-70739000D01*
X43053000Y-70739000D02*
X43053000Y-63373000D01*
X53213000Y-53086000D02*
X53086000Y-53086000D01*
X55118000Y-51181000D02*
X53213000Y-53086000D01*
X43754000Y-71440000D02*
X51562000Y-71440000D01*
X48387000Y-53086000D02*
X50038000Y-53086000D01*
X46863000Y-54610000D02*
X48387000Y-53086000D01*
X46863000Y-60579000D02*
X46863000Y-54610000D01*
X45974000Y-61468000D02*
X46863000Y-60579000D01*
X44577000Y-61468000D02*
X45974000Y-61468000D01*
X43053000Y-62992000D02*
X44577000Y-61468000D01*
X91567000Y-66360000D02*
X94376240Y-66360000D01*
X94376240Y-66360000D02*
X94427000Y-66309240D01*
D40*
X28956000Y-76835000D02*
X28956000Y-70612000D01*
X48895000Y-65659000D02*
X48895000Y-60960000D01*
X45339000Y-69215000D02*
X48895000Y-65659000D01*
X43942000Y-69215000D02*
X45339000Y-69215000D01*
X30353000Y-69215000D02*
X34163000Y-69215000D01*
X28956000Y-70612000D02*
X30353000Y-69215000D01*
X25400000Y-76073000D02*
X28194000Y-76073000D01*
X28194000Y-76073000D02*
X28956000Y-76835000D01*
X48260000Y-60325000D02*
X48895000Y-60960000D01*
X88138000Y-57150000D02*
X90424000Y-57150000D01*
X55372000Y-55880000D02*
X52832000Y-55880000D01*
X49022000Y-56515000D02*
X49022000Y-60960000D01*
X84582000Y-57150000D02*
X84582000Y-59055000D01*
X67122000Y-54290000D02*
X67122000Y-52070000D01*
X66802000Y-54610000D02*
X67122000Y-54290000D01*
X82677000Y-60960000D02*
X79502000Y-60960000D01*
X84582000Y-59055000D02*
X82677000Y-60960000D01*
X92710000Y-49784000D02*
X95250000Y-49784000D01*
X95250000Y-49784000D02*
X95758000Y-49784000D01*
X95758000Y-49784000D02*
X96941640Y-48600360D01*
X96941640Y-48600360D02*
X96941640Y-44450000D01*
X45974000Y-79629000D02*
X45974000Y-72644000D01*
X45974000Y-72644000D02*
X36576000Y-72644000D01*
X36576000Y-72644000D02*
X35941000Y-72009000D01*
X35941000Y-72009000D02*
X35941000Y-67437000D01*
X30734000Y-65405000D02*
X30734000Y-65532000D01*
X30734000Y-64262000D02*
X30480000Y-64516000D01*
X30480000Y-64516000D02*
X30480000Y-65151000D01*
X30480000Y-65151000D02*
X30734000Y-65405000D01*
X32385000Y-64262000D02*
X30734000Y-64262000D01*
X33020000Y-66548000D02*
X33782000Y-67310000D01*
X31750000Y-66548000D02*
X33020000Y-66548000D01*
X30734000Y-65532000D02*
X31750000Y-66548000D01*
X37465000Y-65405000D02*
X37465000Y-64262000D01*
X36195000Y-50165000D02*
X36195000Y-51308000D01*
X36195000Y-51308000D02*
X36195000Y-51181000D01*
X36195000Y-51181000D02*
X36195000Y-51308000D01*
X37465000Y-51308000D02*
X39243000Y-51308000D01*
X40005000Y-52070000D02*
X40005000Y-57150000D01*
X39243000Y-51308000D02*
X40005000Y-52070000D01*
X34925000Y-51308000D02*
X36195000Y-51308000D01*
X36195000Y-51308000D02*
X37465000Y-51308000D01*
D41*
X96941640Y-53086000D02*
X96941640Y-50124360D01*
X96941640Y-50124360D02*
X101346000Y-45720000D01*
X96941640Y-59690000D02*
X96941640Y-61889640D01*
X96941640Y-61889640D02*
X97917000Y-62865000D01*
X92710000Y-52070000D02*
X96012000Y-52070000D01*
X96941640Y-52999640D02*
X96941640Y-53086000D01*
X96941640Y-53086000D02*
X96941640Y-59690000D01*
X96012000Y-52070000D02*
X96941640Y-52999640D01*
X56642000Y-85090000D02*
X56642000Y-84328000D01*
X56642000Y-84328000D02*
X57912000Y-83058000D01*
X57912000Y-83058000D02*
X59309000Y-83058000D01*
X59436000Y-81026000D02*
X63627000Y-81026000D01*
X63627000Y-81026000D02*
X66675000Y-77978000D01*
X66675000Y-77978000D02*
X66675000Y-60960000D01*
X75946000Y-40132000D02*
X75946000Y-43942000D01*
X64196000Y-71440000D02*
X61722000Y-71440000D01*
X64262000Y-71374000D02*
X64196000Y-71440000D01*
X61722000Y-71440000D02*
X61722000Y-69342000D01*
D40*
X33782000Y-36830000D02*
X33782000Y-39370000D01*
X33782000Y-39370000D02*
X35687000Y-41275000D01*
X35687000Y-41275000D02*
X37592000Y-41275000D01*
X37592000Y-41275000D02*
X37973000Y-41275000D01*
X37973000Y-41275000D02*
X39368966Y-42670966D01*
X39368966Y-42670966D02*
X40005000Y-42670966D01*
X44196000Y-42797966D02*
X44069000Y-42670966D01*
X44196000Y-43815000D02*
X44196000Y-42797966D01*
X49022000Y-49530000D02*
X44577000Y-49530000D01*
X49022000Y-49530000D02*
X50292000Y-49530000D01*
X52832000Y-49530000D02*
X57277000Y-49530000D01*
X40005000Y-42670966D02*
X44069000Y-42670966D01*
X44196000Y-49149000D02*
X44196000Y-43815000D01*
X44577000Y-49530000D02*
X44196000Y-49149000D01*
X57785000Y-49911000D02*
X57785000Y-52390000D01*
X57404000Y-49530000D02*
X57785000Y-49911000D01*
X57277000Y-49530000D02*
X57404000Y-49530000D01*
X56134000Y-52832000D02*
X56134000Y-55118000D01*
X56134000Y-55118000D02*
X56388000Y-55372000D01*
X56388000Y-55372000D02*
X56388000Y-56642000D01*
X56388000Y-56642000D02*
X56134000Y-56896000D01*
X56134000Y-56896000D02*
X56134000Y-57277000D01*
X56134000Y-52832000D02*
X56388000Y-52578000D01*
X56576000Y-52390000D02*
X56388000Y-52578000D01*
X56576000Y-52390000D02*
X57785000Y-52390000D01*
X56134000Y-60579000D02*
X56134000Y-57277000D01*
X57277000Y-52263000D02*
X57150000Y-52390000D01*
X61341000Y-48514000D02*
X61214000Y-48514000D01*
X61341000Y-48514000D02*
X65024000Y-48514000D01*
X81788000Y-40132000D02*
X82550000Y-40894000D01*
X65024000Y-48514000D02*
X81026000Y-48514000D01*
X81026000Y-48514000D02*
X82550000Y-46990000D01*
X82550000Y-42418000D02*
X82550000Y-40894000D01*
X82550000Y-46990000D02*
X82550000Y-42418000D01*
X60960000Y-48768000D02*
X60960000Y-52390000D01*
X61214000Y-48514000D02*
X60960000Y-48768000D01*
X56134000Y-60579000D02*
X56515000Y-60960000D01*
X92710000Y-81244000D02*
X92710000Y-87122000D01*
X90424000Y-89408000D02*
X92710000Y-87122000D01*
X45720000Y-89408000D02*
X90424000Y-89408000D01*
X44704000Y-88392000D02*
X45720000Y-89408000D01*
X44704000Y-77724000D02*
X44704000Y-88392000D01*
X101346000Y-44196000D02*
X101346000Y-41656000D01*
X101346000Y-41656000D02*
X100584000Y-40894000D01*
X100584000Y-40894000D02*
X93980000Y-40894000D01*
X90932000Y-40894000D02*
X90170000Y-40132000D01*
X90170000Y-40132000D02*
X81788000Y-40132000D01*
X57785000Y-52390000D02*
X60325000Y-52390000D01*
X77470000Y-40132000D02*
X81788000Y-40132000D01*
D43*
X88392000Y-76200000D02*
X88392000Y-80518000D01*
X83312000Y-71755000D02*
X88392000Y-71755000D01*
X88392000Y-80518000D02*
X89118000Y-81244000D01*
X89118000Y-81244000D02*
X92710000Y-81244000D01*
X88392000Y-71755000D02*
X88392000Y-76200000D01*
D40*
X40005000Y-42670966D02*
X40005000Y-45720000D01*
D43*
X57592000Y-52390000D02*
X57785000Y-52390000D01*
D40*
X28956000Y-78359000D02*
X34394140Y-78359000D01*
X34394140Y-78359000D02*
X35560000Y-79524860D01*
X28956000Y-78359000D02*
X25654000Y-78359000D01*
X25654000Y-78359000D02*
X25400000Y-78613000D01*
X35179000Y-78381860D02*
X35306000Y-78508860D01*
D43*
X92710000Y-74204000D02*
X92365000Y-74204000D01*
X92365000Y-74204000D02*
X91440000Y-73279000D01*
X91440000Y-73279000D02*
X91440000Y-71374000D01*
X92710000Y-74204000D02*
X92710000Y-72136000D01*
X95377000Y-69469000D02*
X95377000Y-68308220D01*
X92710000Y-72136000D02*
X95377000Y-69469000D01*
X54864000Y-82042000D02*
X58166000Y-82042000D01*
X58166000Y-82042000D02*
X61087000Y-82042000D01*
X61722000Y-82677000D02*
X61722000Y-85090000D01*
X61087000Y-82042000D02*
X61722000Y-82677000D01*
X32385000Y-52832000D02*
X32385000Y-57150000D01*
X34925000Y-52832000D02*
X34925000Y-57150000D01*
X37465000Y-57150000D02*
X37465000Y-52832000D01*
X40005000Y-62738000D02*
X40005000Y-59690000D01*
X36576000Y-61849000D02*
X37465000Y-62738000D01*
X34925000Y-62738000D02*
X37465000Y-62738000D01*
X37465000Y-62738000D02*
X37465000Y-59690000D01*
X61722000Y-67818000D02*
X61722000Y-65659000D01*
X64135000Y-64897000D02*
X64135000Y-60960000D01*
X64071500Y-64960500D02*
X64135000Y-64897000D01*
X62420500Y-64960500D02*
X64071500Y-64960500D01*
X61722000Y-65659000D02*
X62420500Y-64960500D01*
D41*
X54864000Y-80518000D02*
X47752000Y-80518000D01*
X47752000Y-80518000D02*
X47244000Y-80010000D01*
X47244000Y-80010000D02*
X47244000Y-72644000D01*
X49530000Y-67818000D02*
X61722000Y-67818000D01*
X47244000Y-70104000D02*
X49530000Y-67818000D01*
X61722000Y-67818000D02*
X61849000Y-67818000D01*
X61849000Y-67818000D02*
X61722000Y-67691000D01*
D43*
X34925000Y-59690000D02*
X34925000Y-59944000D01*
X34925000Y-59944000D02*
X32385000Y-62484000D01*
X32385000Y-62484000D02*
X32385000Y-62738000D01*
D44*
G36*
X98967965Y-34170727D02*
X98085306Y-35051847D01*
X97607026Y-36203674D01*
X97605937Y-37450854D01*
X98082207Y-38603515D01*
X98963327Y-39486174D01*
X100115154Y-39964454D01*
X101362334Y-39965543D01*
X102514995Y-39489273D01*
X103397654Y-38608153D01*
X103875934Y-37456326D01*
X103877023Y-36209146D01*
X103400753Y-35056485D01*
X102519633Y-34173826D01*
X101450781Y-33730000D01*
X104192000Y-33730000D01*
X104192000Y-84839803D01*
X104175400Y-84799628D01*
X103153751Y-83776194D01*
X101818218Y-83221632D01*
X100372126Y-83220370D01*
X99035628Y-83772600D01*
X98012194Y-84794249D01*
X97457632Y-86129782D01*
X97456370Y-87575874D01*
X98008600Y-88912372D01*
X98555273Y-89460000D01*
X91517512Y-89460000D01*
X93282756Y-87694757D01*
X93370549Y-87563365D01*
X93458342Y-87431974D01*
X93520000Y-87122000D01*
X93520000Y-82461987D01*
X93521800Y-82461243D01*
X93925824Y-82057923D01*
X94144750Y-81530691D01*
X94145248Y-80959813D01*
X93927243Y-80432200D01*
X93523923Y-80028176D01*
X92996691Y-79809250D01*
X92425813Y-79808752D01*
X91898200Y-80026757D01*
X91494176Y-80430077D01*
X91471785Y-80484000D01*
X89432802Y-80484000D01*
X89152000Y-80203198D01*
X89152000Y-71755000D01*
X89094148Y-71464161D01*
X88929401Y-71217599D01*
X88682839Y-71052852D01*
X88392000Y-70995000D01*
X84509531Y-70995000D01*
X84497010Y-70964697D01*
X84104370Y-70571371D01*
X83912273Y-70491605D01*
X84043143Y-70437397D01*
X84112608Y-70195213D01*
X83312000Y-69394605D01*
X82511392Y-70195213D01*
X82580857Y-70437397D01*
X82721318Y-70487509D01*
X82521697Y-70569990D01*
X82128371Y-70962630D01*
X81915243Y-71475900D01*
X81914758Y-72031661D01*
X82126990Y-72545303D01*
X82519630Y-72938629D01*
X82727512Y-73024949D01*
X82521697Y-73109990D01*
X82128371Y-73502630D01*
X82125311Y-73510000D01*
X73689506Y-73510000D01*
X73682327Y-73502808D01*
X73338799Y-73360162D01*
X72966833Y-73359838D01*
X72667000Y-73483726D01*
X72667000Y-69007302D01*
X81902856Y-69007302D01*
X81930638Y-69562368D01*
X82089603Y-69946143D01*
X82331787Y-70015608D01*
X83132395Y-69215000D01*
X83491605Y-69215000D01*
X84292213Y-70015608D01*
X84534397Y-69946143D01*
X84721144Y-69422698D01*
X84693362Y-68867632D01*
X84534397Y-68483857D01*
X84292213Y-68414392D01*
X83491605Y-69215000D01*
X83132395Y-69215000D01*
X82331787Y-68414392D01*
X82089603Y-68483857D01*
X81902856Y-69007302D01*
X72667000Y-69007302D01*
X72667000Y-68629014D01*
X72965201Y-68752838D01*
X73337167Y-68753162D01*
X73680943Y-68611117D01*
X73689074Y-68603000D01*
X81026000Y-68603000D01*
X81326407Y-68543245D01*
X81581079Y-68373079D01*
X81719370Y-68234787D01*
X82511392Y-68234787D01*
X83312000Y-69035395D01*
X84112608Y-68234787D01*
X84043143Y-67992603D01*
X83519698Y-67805856D01*
X82964632Y-67833638D01*
X82580857Y-67992603D01*
X82511392Y-68234787D01*
X81719370Y-68234787D01*
X82089076Y-67865081D01*
X82089079Y-67865079D01*
X82259245Y-67610406D01*
X82319000Y-67310000D01*
X82319000Y-66733167D01*
X83519838Y-66733167D01*
X83661883Y-67076943D01*
X83924673Y-67340192D01*
X84268201Y-67482838D01*
X84640167Y-67483162D01*
X84983943Y-67341117D01*
X85042162Y-67283000D01*
X88038000Y-67283000D01*
X88038000Y-69088000D01*
X88081105Y-69304701D01*
X88093949Y-69369272D01*
X88253277Y-69607723D01*
X88380276Y-69734723D01*
X88552801Y-69850000D01*
X88618728Y-69894051D01*
X88900000Y-69950000D01*
X90284560Y-69950000D01*
X90284560Y-70802500D01*
X90303141Y-70901247D01*
X90284560Y-70993000D01*
X90284560Y-71755000D01*
X90328838Y-71990317D01*
X90467910Y-72206441D01*
X90680000Y-72351356D01*
X90680000Y-73279000D01*
X90737852Y-73569839D01*
X90902599Y-73816401D01*
X91275013Y-74188815D01*
X91274752Y-74488187D01*
X91492757Y-75015800D01*
X91896077Y-75419824D01*
X92423309Y-75638750D01*
X92994187Y-75639248D01*
X93521800Y-75421243D01*
X93925824Y-75017923D01*
X94144750Y-74490691D01*
X94145248Y-73919813D01*
X93927243Y-73392200D01*
X93523923Y-72988176D01*
X93470000Y-72965785D01*
X93470000Y-72450802D01*
X95914401Y-70006401D01*
X96079148Y-69759839D01*
X96137000Y-69469000D01*
X96137000Y-69231233D01*
X96228491Y-69172360D01*
X96373481Y-68960160D01*
X96424490Y-68708270D01*
X96424490Y-68451554D01*
X97605937Y-68451554D01*
X98082207Y-69604215D01*
X98963327Y-70486874D01*
X100115154Y-70965154D01*
X101362334Y-70966243D01*
X102514995Y-70489973D01*
X103397654Y-69608853D01*
X103875934Y-68457026D01*
X103877023Y-67209846D01*
X103400753Y-66057185D01*
X102519633Y-65174526D01*
X101367806Y-64696246D01*
X100120626Y-64695157D01*
X98967965Y-65171427D01*
X98085306Y-66052547D01*
X97607026Y-67204374D01*
X97605937Y-68451554D01*
X96424490Y-68451554D01*
X96424490Y-67908170D01*
X96380212Y-67672853D01*
X96241140Y-67456729D01*
X96055591Y-67329949D01*
X96200000Y-67185540D01*
X96200000Y-66436240D01*
X96454000Y-66436240D01*
X96454000Y-67185540D01*
X96612750Y-67344290D01*
X96853359Y-67344290D01*
X97086748Y-67247617D01*
X97265377Y-67068989D01*
X97362050Y-66835600D01*
X97362050Y-66594990D01*
X97203300Y-66436240D01*
X96454000Y-66436240D01*
X96200000Y-66436240D01*
X96180000Y-66436240D01*
X96180000Y-66182240D01*
X96200000Y-66182240D01*
X96200000Y-65432940D01*
X96454000Y-65432940D01*
X96454000Y-66182240D01*
X97203300Y-66182240D01*
X97362050Y-66023490D01*
X97362050Y-65782880D01*
X97265377Y-65549491D01*
X97086748Y-65370863D01*
X96853359Y-65274190D01*
X96612750Y-65274190D01*
X96454000Y-65432940D01*
X96200000Y-65432940D01*
X96041250Y-65274190D01*
X95800641Y-65274190D01*
X95567252Y-65370863D01*
X95388623Y-65549491D01*
X95373566Y-65585842D01*
X95291140Y-65457749D01*
X95078940Y-65312759D01*
X94827050Y-65261750D01*
X94026950Y-65261750D01*
X93791633Y-65306028D01*
X93575509Y-65445100D01*
X93486752Y-65575000D01*
X92691669Y-65575000D01*
X92681090Y-65558559D01*
X92468890Y-65413569D01*
X92217000Y-65362560D01*
X90917000Y-65362560D01*
X90681683Y-65406838D01*
X90465559Y-65545910D01*
X90320569Y-65758110D01*
X90269560Y-66010000D01*
X90269560Y-66710000D01*
X90313838Y-66945317D01*
X90452910Y-67161441D01*
X90665110Y-67306431D01*
X90678197Y-67309081D01*
X90465559Y-67445910D01*
X90320569Y-67658110D01*
X90269560Y-67910000D01*
X90269560Y-68480000D01*
X89508000Y-68480000D01*
X89508000Y-66675000D01*
X89452051Y-66393728D01*
X89429515Y-66360000D01*
X89292723Y-66155276D01*
X89165723Y-66028277D01*
X88927272Y-65868949D01*
X88646000Y-65813000D01*
X85042419Y-65813000D01*
X84985327Y-65755808D01*
X84641799Y-65613162D01*
X84269833Y-65612838D01*
X83926057Y-65754883D01*
X83662808Y-66017673D01*
X83520162Y-66361201D01*
X83519838Y-66733167D01*
X82319000Y-66733167D01*
X82319000Y-64545506D01*
X82326192Y-64538327D01*
X82468838Y-64194799D01*
X82469162Y-63822833D01*
X82397749Y-63650000D01*
X85852000Y-63650000D01*
X86152407Y-63590245D01*
X86407079Y-63420079D01*
X87677079Y-62150079D01*
X87847245Y-61895407D01*
X87907000Y-61595000D01*
X87907000Y-59975750D01*
X90407490Y-59975750D01*
X90407490Y-60616410D01*
X90504163Y-60849799D01*
X90682792Y-61028427D01*
X90916181Y-61125100D01*
X92256610Y-61125100D01*
X92415360Y-60966350D01*
X92415360Y-59817000D01*
X92669360Y-59817000D01*
X92669360Y-60966350D01*
X92828110Y-61125100D01*
X94168539Y-61125100D01*
X94401928Y-61028427D01*
X94580557Y-60849799D01*
X94677230Y-60616410D01*
X94677230Y-59975750D01*
X94518480Y-59817000D01*
X92669360Y-59817000D01*
X92415360Y-59817000D01*
X90566240Y-59817000D01*
X90407490Y-59975750D01*
X87907000Y-59975750D01*
X87907000Y-58763590D01*
X90407490Y-58763590D01*
X90407490Y-59404250D01*
X90566240Y-59563000D01*
X92415360Y-59563000D01*
X92415360Y-58413650D01*
X92669360Y-58413650D01*
X92669360Y-59563000D01*
X94518480Y-59563000D01*
X94677230Y-59404250D01*
X94677230Y-58763590D01*
X94580557Y-58530201D01*
X94401928Y-58351573D01*
X94168539Y-58254900D01*
X92828110Y-58254900D01*
X92669360Y-58413650D01*
X92415360Y-58413650D01*
X92256610Y-58254900D01*
X90916181Y-58254900D01*
X90682792Y-58351573D01*
X90504163Y-58530201D01*
X90407490Y-58763590D01*
X87907000Y-58763590D01*
X87907000Y-58066484D01*
X87951201Y-58084838D01*
X88323167Y-58085162D01*
X88626083Y-57960000D01*
X89936559Y-57960000D01*
X90237201Y-58084838D01*
X90609167Y-58085162D01*
X90952943Y-57943117D01*
X91216192Y-57680327D01*
X91358838Y-57336799D01*
X91359162Y-56964833D01*
X91217117Y-56621057D01*
X90954327Y-56357808D01*
X90610799Y-56215162D01*
X90238833Y-56214838D01*
X89935917Y-56340000D01*
X88625441Y-56340000D01*
X88324799Y-56215162D01*
X87952833Y-56214838D01*
X87907000Y-56233776D01*
X87907000Y-55245005D01*
X87907001Y-55245000D01*
X87847245Y-54944594D01*
X87677079Y-54689921D01*
X87628908Y-54641750D01*
X91059000Y-54641750D01*
X91059000Y-54990309D01*
X91155673Y-55223698D01*
X91334301Y-55402327D01*
X91567690Y-55499000D01*
X92424250Y-55499000D01*
X92583000Y-55340250D01*
X92583000Y-54483000D01*
X92837000Y-54483000D01*
X92837000Y-55340250D01*
X92995750Y-55499000D01*
X93852310Y-55499000D01*
X94085699Y-55402327D01*
X94264327Y-55223698D01*
X94361000Y-54990309D01*
X94361000Y-54641750D01*
X94202250Y-54483000D01*
X92837000Y-54483000D01*
X92583000Y-54483000D01*
X91217750Y-54483000D01*
X91059000Y-54641750D01*
X87628908Y-54641750D01*
X87042079Y-54054921D01*
X86787407Y-53884755D01*
X86487000Y-53825000D01*
X85854558Y-53825000D01*
X85671029Y-53550330D01*
X85347772Y-53334336D01*
X85470490Y-53276821D01*
X85864688Y-52844947D01*
X86036958Y-52429026D01*
X85915817Y-52197000D01*
X84709000Y-52197000D01*
X84709000Y-52217000D01*
X84455000Y-52217000D01*
X84455000Y-52197000D01*
X84435000Y-52197000D01*
X84435000Y-51943000D01*
X84455000Y-51943000D01*
X84455000Y-50735531D01*
X84709000Y-50735531D01*
X84709000Y-51943000D01*
X85915817Y-51943000D01*
X86036958Y-51710974D01*
X85864688Y-51295053D01*
X85470490Y-50863179D01*
X84941027Y-50615032D01*
X84709000Y-50735531D01*
X84455000Y-50735531D01*
X84222973Y-50615032D01*
X83693510Y-50863179D01*
X83311992Y-51281161D01*
X83131029Y-51010330D01*
X82644848Y-50685474D01*
X82071359Y-50571400D01*
X82012641Y-50571400D01*
X81439152Y-50685474D01*
X80952971Y-51010330D01*
X80628115Y-51496511D01*
X80514041Y-52070000D01*
X80628115Y-52643489D01*
X80952971Y-53129670D01*
X81267752Y-53340000D01*
X80952971Y-53550330D01*
X80769442Y-53825000D01*
X76327000Y-53825000D01*
X76026594Y-53884755D01*
X75771921Y-54054921D01*
X71981607Y-57845235D01*
X71869526Y-57281766D01*
X71544670Y-56795585D01*
X71058489Y-56470729D01*
X70485000Y-56356655D01*
X69911511Y-56470729D01*
X69425330Y-56795585D01*
X69215000Y-57110366D01*
X69004670Y-56795585D01*
X68857000Y-56696915D01*
X68857000Y-55829306D01*
X68860110Y-55831431D01*
X69112000Y-55882440D01*
X70112000Y-55882440D01*
X70347317Y-55838162D01*
X70563441Y-55699090D01*
X70609969Y-55630994D01*
X70752302Y-55773327D01*
X70985691Y-55870000D01*
X71326250Y-55870000D01*
X71485000Y-55711250D01*
X71485000Y-54737000D01*
X71739000Y-54737000D01*
X71739000Y-55711250D01*
X71897750Y-55870000D01*
X72238309Y-55870000D01*
X72471698Y-55773327D01*
X72650327Y-55594699D01*
X72747000Y-55361310D01*
X72747000Y-54895750D01*
X72588250Y-54737000D01*
X71739000Y-54737000D01*
X71485000Y-54737000D01*
X71465000Y-54737000D01*
X71465000Y-54483000D01*
X71485000Y-54483000D01*
X71485000Y-53508750D01*
X71739000Y-53508750D01*
X71739000Y-54483000D01*
X72588250Y-54483000D01*
X72747000Y-54324250D01*
X72747000Y-53858690D01*
X72650327Y-53625301D01*
X72471698Y-53446673D01*
X72238309Y-53350000D01*
X71897750Y-53350000D01*
X71739000Y-53508750D01*
X71485000Y-53508750D01*
X71333920Y-53357670D01*
X71517317Y-53323162D01*
X71733441Y-53184090D01*
X71878431Y-52971890D01*
X71885191Y-52938510D01*
X71943673Y-53079699D01*
X72122302Y-53258327D01*
X72355691Y-53355000D01*
X72546250Y-53355000D01*
X72705000Y-53196250D01*
X72705000Y-52197000D01*
X72959000Y-52197000D01*
X72959000Y-53196250D01*
X73117750Y-53355000D01*
X73308309Y-53355000D01*
X73541698Y-53258327D01*
X73720327Y-53079699D01*
X73817000Y-52846310D01*
X73817000Y-52355750D01*
X73658250Y-52197000D01*
X72959000Y-52197000D01*
X72705000Y-52197000D01*
X72685000Y-52197000D01*
X72685000Y-51943000D01*
X72705000Y-51943000D01*
X72705000Y-50943750D01*
X72959000Y-50943750D01*
X72959000Y-51943000D01*
X73658250Y-51943000D01*
X73817000Y-51784250D01*
X73817000Y-51293690D01*
X73720327Y-51060301D01*
X73541698Y-50881673D01*
X73308309Y-50785000D01*
X73117750Y-50785000D01*
X72959000Y-50943750D01*
X72705000Y-50943750D01*
X72546250Y-50785000D01*
X72355691Y-50785000D01*
X72122302Y-50881673D01*
X71943673Y-51060301D01*
X71887346Y-51196287D01*
X71885162Y-51184683D01*
X71746090Y-50968559D01*
X71533890Y-50823569D01*
X71282000Y-50772560D01*
X70582000Y-50772560D01*
X70346683Y-50816838D01*
X70130559Y-50955910D01*
X69985569Y-51168110D01*
X69978558Y-51202731D01*
X69975162Y-51184683D01*
X69836090Y-50968559D01*
X69623890Y-50823569D01*
X69372000Y-50772560D01*
X68672000Y-50772560D01*
X68436683Y-50816838D01*
X68220559Y-50955910D01*
X68075569Y-51168110D01*
X68072919Y-51181197D01*
X67936090Y-50968559D01*
X67723890Y-50823569D01*
X67472000Y-50772560D01*
X66772000Y-50772560D01*
X66536683Y-50816838D01*
X66320559Y-50955910D01*
X66175569Y-51168110D01*
X66124560Y-51420000D01*
X66124560Y-52720000D01*
X66168838Y-52955317D01*
X66307910Y-53171441D01*
X66312000Y-53174236D01*
X66312000Y-53800792D01*
X66273057Y-53816883D01*
X66009808Y-54079673D01*
X65867162Y-54423201D01*
X65866838Y-54795167D01*
X66008883Y-55138943D01*
X66271673Y-55402192D01*
X66615201Y-55544838D01*
X66987167Y-55545162D01*
X67287000Y-55421274D01*
X67287000Y-56527197D01*
X66885330Y-56795585D01*
X66560474Y-57281766D01*
X66446400Y-57855255D01*
X66446400Y-58224745D01*
X66560474Y-58798234D01*
X66885330Y-59284415D01*
X66957948Y-59332937D01*
X66675000Y-59276655D01*
X66101511Y-59390729D01*
X65615330Y-59715585D01*
X65405000Y-60030366D01*
X65194670Y-59715585D01*
X64708489Y-59390729D01*
X64135000Y-59276655D01*
X63561511Y-59390729D01*
X63075330Y-59715585D01*
X62865000Y-60030366D01*
X62654670Y-59715585D01*
X62168489Y-59390729D01*
X61595000Y-59276655D01*
X61312052Y-59332937D01*
X61384670Y-59284415D01*
X61709526Y-58798234D01*
X61823600Y-58224745D01*
X61823600Y-57855255D01*
X61709526Y-57281766D01*
X61384670Y-56795585D01*
X61110000Y-56612056D01*
X61110000Y-55316158D01*
X61138718Y-55287440D01*
X61610000Y-55287440D01*
X61845317Y-55243162D01*
X62061441Y-55104090D01*
X62206431Y-54891890D01*
X62257440Y-54640000D01*
X62257440Y-53940000D01*
X62213162Y-53704683D01*
X62074090Y-53488559D01*
X61861890Y-53343569D01*
X61848803Y-53340919D01*
X62061441Y-53204090D01*
X62206431Y-52991890D01*
X62257440Y-52740000D01*
X62257440Y-52040000D01*
X62213162Y-51804683D01*
X62074090Y-51588559D01*
X61861890Y-51443569D01*
X61770000Y-51424961D01*
X61770000Y-49324000D01*
X81026000Y-49324000D01*
X81267310Y-49276000D01*
X91046560Y-49276000D01*
X91046560Y-50292000D01*
X91090838Y-50527317D01*
X91229910Y-50743441D01*
X91442110Y-50888431D01*
X91630314Y-50926543D01*
X91458683Y-50958838D01*
X91242559Y-51097910D01*
X91097569Y-51310110D01*
X91046560Y-51562000D01*
X91046560Y-52578000D01*
X91090838Y-52813317D01*
X91229910Y-53029441D01*
X91442110Y-53174431D01*
X91632569Y-53213000D01*
X91567690Y-53213000D01*
X91334301Y-53309673D01*
X91155673Y-53488302D01*
X91059000Y-53721691D01*
X91059000Y-54070250D01*
X91217750Y-54229000D01*
X92583000Y-54229000D01*
X92583000Y-54209000D01*
X92837000Y-54209000D01*
X92837000Y-54229000D01*
X94202250Y-54229000D01*
X94361000Y-54070250D01*
X94361000Y-53721691D01*
X94264327Y-53488302D01*
X94085699Y-53309673D01*
X93852310Y-53213000D01*
X93792113Y-53213000D01*
X93961317Y-53181162D01*
X94177441Y-53042090D01*
X94305274Y-52855000D01*
X95686842Y-52855000D01*
X96156640Y-53324797D01*
X96156640Y-58242460D01*
X95441770Y-58242460D01*
X95206453Y-58286738D01*
X94990329Y-58425810D01*
X94845339Y-58638010D01*
X94794330Y-58889900D01*
X94794330Y-60490100D01*
X94838608Y-60725417D01*
X94977680Y-60941541D01*
X95189880Y-61086531D01*
X95441770Y-61137540D01*
X96156640Y-61137540D01*
X96156640Y-61889640D01*
X96216395Y-62190047D01*
X96386561Y-62444719D01*
X96981847Y-63040005D01*
X96981838Y-63050167D01*
X97123883Y-63393943D01*
X97386673Y-63657192D01*
X97730201Y-63799838D01*
X98102167Y-63800162D01*
X98445943Y-63658117D01*
X98709192Y-63395327D01*
X98851838Y-63051799D01*
X98852162Y-62679833D01*
X98710117Y-62336057D01*
X98447327Y-62072808D01*
X98103799Y-61930162D01*
X98092310Y-61930152D01*
X97726640Y-61564482D01*
X97726640Y-61137540D01*
X98441510Y-61137540D01*
X98676827Y-61093262D01*
X98892951Y-60954190D01*
X99037941Y-60741990D01*
X99088950Y-60490100D01*
X99088950Y-58889900D01*
X99044672Y-58654583D01*
X98905600Y-58438459D01*
X98693400Y-58293469D01*
X98441510Y-58242460D01*
X97726640Y-58242460D01*
X97726640Y-54183539D01*
X97833910Y-54350241D01*
X98046110Y-54495231D01*
X98298000Y-54546240D01*
X100330000Y-54546240D01*
X100565317Y-54501962D01*
X100781441Y-54362890D01*
X100926431Y-54150690D01*
X100977440Y-53898800D01*
X100977440Y-50241200D01*
X100933162Y-50005883D01*
X100794090Y-49789759D01*
X100581890Y-49644769D01*
X100330000Y-49593760D01*
X98582398Y-49593760D01*
X101427718Y-46748440D01*
X101854000Y-46748440D01*
X102089317Y-46704162D01*
X102305441Y-46565090D01*
X102450431Y-46352890D01*
X102501440Y-46101000D01*
X102501440Y-44767500D01*
X102482859Y-44668753D01*
X102501440Y-44577000D01*
X102501440Y-43815000D01*
X102457162Y-43579683D01*
X102318090Y-43363559D01*
X102156000Y-43252808D01*
X102156000Y-41656000D01*
X102109642Y-41422943D01*
X102094343Y-41346027D01*
X101918757Y-41083244D01*
X101156756Y-40321244D01*
X100893974Y-40145658D01*
X100584000Y-40084000D01*
X94467441Y-40084000D01*
X94166799Y-39959162D01*
X93794833Y-39958838D01*
X93451057Y-40100883D01*
X93187808Y-40363673D01*
X93045162Y-40707201D01*
X93044838Y-41079167D01*
X93186883Y-41422943D01*
X93449673Y-41686192D01*
X93793201Y-41828838D01*
X94165167Y-41829162D01*
X94468083Y-41704000D01*
X100248488Y-41704000D01*
X100536000Y-41991513D01*
X100536000Y-43254747D01*
X100386559Y-43350910D01*
X100241569Y-43563110D01*
X100190560Y-43815000D01*
X100190560Y-44577000D01*
X100209141Y-44675747D01*
X100190560Y-44767500D01*
X100190560Y-45765282D01*
X97751640Y-48204202D01*
X97751640Y-45897540D01*
X98441510Y-45897540D01*
X98676827Y-45853262D01*
X98892951Y-45714190D01*
X99037941Y-45501990D01*
X99088950Y-45250100D01*
X99088950Y-43649900D01*
X99044672Y-43414583D01*
X98905600Y-43198459D01*
X98693400Y-43053469D01*
X98441510Y-43002460D01*
X95441770Y-43002460D01*
X95206453Y-43046738D01*
X94990329Y-43185810D01*
X94845339Y-43398010D01*
X94794330Y-43649900D01*
X94794330Y-45250100D01*
X94838608Y-45485417D01*
X94977680Y-45701541D01*
X95189880Y-45846531D01*
X95441770Y-45897540D01*
X96131640Y-45897540D01*
X96131640Y-48264847D01*
X95514897Y-48881591D01*
X95436799Y-48849162D01*
X95064833Y-48848838D01*
X94761917Y-48974000D01*
X94286253Y-48974000D01*
X94190090Y-48824559D01*
X93977890Y-48679569D01*
X93726000Y-48628560D01*
X91694000Y-48628560D01*
X91458683Y-48672838D01*
X91242559Y-48811910D01*
X91097569Y-49024110D01*
X91046560Y-49276000D01*
X81267310Y-49276000D01*
X81335974Y-49262342D01*
X81598756Y-49086756D01*
X83122756Y-47562757D01*
X83229271Y-47403345D01*
X83298342Y-47299974D01*
X83360000Y-46990000D01*
X83360000Y-44735750D01*
X90407490Y-44735750D01*
X90407490Y-45376410D01*
X90504163Y-45609799D01*
X90682792Y-45788427D01*
X90916181Y-45885100D01*
X92256610Y-45885100D01*
X92415360Y-45726350D01*
X92415360Y-44577000D01*
X92669360Y-44577000D01*
X92669360Y-45726350D01*
X92828110Y-45885100D01*
X94168539Y-45885100D01*
X94401928Y-45788427D01*
X94580557Y-45609799D01*
X94677230Y-45376410D01*
X94677230Y-44735750D01*
X94518480Y-44577000D01*
X92669360Y-44577000D01*
X92415360Y-44577000D01*
X90566240Y-44577000D01*
X90407490Y-44735750D01*
X83360000Y-44735750D01*
X83360000Y-43523590D01*
X90407490Y-43523590D01*
X90407490Y-44164250D01*
X90566240Y-44323000D01*
X92415360Y-44323000D01*
X92415360Y-43173650D01*
X92669360Y-43173650D01*
X92669360Y-44323000D01*
X94518480Y-44323000D01*
X94677230Y-44164250D01*
X94677230Y-43523590D01*
X94580557Y-43290201D01*
X94401928Y-43111573D01*
X94168539Y-43014900D01*
X92828110Y-43014900D01*
X92669360Y-43173650D01*
X92415360Y-43173650D01*
X92256610Y-43014900D01*
X90916181Y-43014900D01*
X90682792Y-43111573D01*
X90504163Y-43290201D01*
X90407490Y-43523590D01*
X83360000Y-43523590D01*
X83360000Y-40942000D01*
X89834488Y-40942000D01*
X90014571Y-41122083D01*
X90138883Y-41422943D01*
X90401673Y-41686192D01*
X90745201Y-41828838D01*
X91117167Y-41829162D01*
X91460943Y-41687117D01*
X91724192Y-41424327D01*
X91866838Y-41080799D01*
X91867162Y-40708833D01*
X91725117Y-40365057D01*
X91462327Y-40101808D01*
X91159629Y-39976116D01*
X90742756Y-39559244D01*
X90594594Y-39460245D01*
X90479974Y-39383658D01*
X90170000Y-39322000D01*
X78538253Y-39322000D01*
X78442090Y-39172559D01*
X78229890Y-39027569D01*
X77978000Y-38976560D01*
X77216000Y-38976560D01*
X77117253Y-38995141D01*
X77025500Y-38976560D01*
X75692000Y-38976560D01*
X75456683Y-39020838D01*
X75240559Y-39159910D01*
X75182200Y-39245321D01*
X75147245Y-39069594D01*
X74977079Y-38814921D01*
X74342079Y-38179921D01*
X74087407Y-38009755D01*
X73787000Y-37950000D01*
X70699434Y-37950000D01*
X70711554Y-37934752D01*
X70877000Y-37357000D01*
X70877000Y-36957000D01*
X69469000Y-36957000D01*
X69469000Y-36977000D01*
X69215000Y-36977000D01*
X69215000Y-36957000D01*
X69195000Y-36957000D01*
X69195000Y-36703000D01*
X69215000Y-36703000D01*
X69215000Y-35059622D01*
X69469000Y-35059622D01*
X69469000Y-36703000D01*
X70877000Y-36703000D01*
X70877000Y-36303000D01*
X70711554Y-35725248D01*
X70337606Y-35254788D01*
X69812086Y-34963244D01*
X69706740Y-34938964D01*
X69469000Y-35059622D01*
X69215000Y-35059622D01*
X68977260Y-34938964D01*
X68871914Y-34963244D01*
X68346394Y-35254788D01*
X68078192Y-35592210D01*
X67887409Y-35306682D01*
X67389419Y-34973936D01*
X66802000Y-34857091D01*
X66214581Y-34973936D01*
X65716591Y-35306682D01*
X65532000Y-35582942D01*
X65347409Y-35306682D01*
X64849419Y-34973936D01*
X64262000Y-34857091D01*
X63674581Y-34973936D01*
X63176591Y-35306682D01*
X62992000Y-35582942D01*
X62807409Y-35306682D01*
X62309419Y-34973936D01*
X61722000Y-34857091D01*
X61134581Y-34973936D01*
X60636591Y-35306682D01*
X60452000Y-35582942D01*
X60267409Y-35306682D01*
X59769419Y-34973936D01*
X59182000Y-34857091D01*
X58594581Y-34973936D01*
X58096591Y-35306682D01*
X57912000Y-35582942D01*
X57727409Y-35306682D01*
X57229419Y-34973936D01*
X56642000Y-34857091D01*
X56054581Y-34973936D01*
X55556591Y-35306682D01*
X55223845Y-35804672D01*
X55107000Y-36392091D01*
X55107000Y-37267909D01*
X55223845Y-37855328D01*
X55556591Y-38353318D01*
X56054581Y-38686064D01*
X56642000Y-38802909D01*
X57229419Y-38686064D01*
X57727409Y-38353318D01*
X57912000Y-38077058D01*
X58096591Y-38353318D01*
X58594581Y-38686064D01*
X59182000Y-38802909D01*
X59769419Y-38686064D01*
X60267409Y-38353318D01*
X60452000Y-38077058D01*
X60636591Y-38353318D01*
X61134581Y-38686064D01*
X61722000Y-38802909D01*
X62309419Y-38686064D01*
X62807409Y-38353318D01*
X62992000Y-38077058D01*
X63176591Y-38353318D01*
X63674581Y-38686064D01*
X64262000Y-38802909D01*
X64451965Y-38765123D01*
X64976921Y-39290079D01*
X65231593Y-39460245D01*
X65532000Y-39520000D01*
X73461842Y-39520000D01*
X73637000Y-39695158D01*
X73637000Y-44207197D01*
X73235330Y-44475585D01*
X73025000Y-44790366D01*
X72814670Y-44475585D01*
X72328489Y-44150729D01*
X71755000Y-44036655D01*
X71181511Y-44150729D01*
X70695330Y-44475585D01*
X70485000Y-44790366D01*
X70274670Y-44475585D01*
X69788489Y-44150729D01*
X69215000Y-44036655D01*
X68641511Y-44150729D01*
X68155330Y-44475585D01*
X67945000Y-44790366D01*
X67734670Y-44475585D01*
X67248489Y-44150729D01*
X66675000Y-44036655D01*
X66101511Y-44150729D01*
X65615330Y-44475585D01*
X65405000Y-44790366D01*
X65194670Y-44475585D01*
X64708489Y-44150729D01*
X64135000Y-44036655D01*
X63561511Y-44150729D01*
X63075330Y-44475585D01*
X62865000Y-44790366D01*
X62654670Y-44475585D01*
X62168489Y-44150729D01*
X61595000Y-44036655D01*
X61021511Y-44150729D01*
X60535330Y-44475585D01*
X60325000Y-44790366D01*
X60114670Y-44475585D01*
X59628489Y-44150729D01*
X59055000Y-44036655D01*
X58481511Y-44150729D01*
X57995330Y-44475585D01*
X57788539Y-44785069D01*
X57417036Y-44369268D01*
X56889791Y-44115291D01*
X56874026Y-44112642D01*
X56642000Y-44233783D01*
X56642000Y-45593000D01*
X56662000Y-45593000D01*
X56662000Y-45847000D01*
X56642000Y-45847000D01*
X56642000Y-47206217D01*
X56874026Y-47327358D01*
X56889791Y-47324709D01*
X57417036Y-47070732D01*
X57788539Y-46654931D01*
X57995330Y-46964415D01*
X58481511Y-47289271D01*
X59055000Y-47403345D01*
X59628489Y-47289271D01*
X60114670Y-46964415D01*
X60325000Y-46649634D01*
X60535330Y-46964415D01*
X61021511Y-47289271D01*
X61595000Y-47403345D01*
X62168489Y-47289271D01*
X62654670Y-46964415D01*
X62865000Y-46649634D01*
X63075330Y-46964415D01*
X63561511Y-47289271D01*
X64135000Y-47403345D01*
X64708489Y-47289271D01*
X65194670Y-46964415D01*
X65405000Y-46649634D01*
X65615330Y-46964415D01*
X66101511Y-47289271D01*
X66675000Y-47403345D01*
X67248489Y-47289271D01*
X67734670Y-46964415D01*
X67945000Y-46649634D01*
X68155330Y-46964415D01*
X68641511Y-47289271D01*
X69215000Y-47403345D01*
X69788489Y-47289271D01*
X70274670Y-46964415D01*
X70485000Y-46649634D01*
X70695330Y-46964415D01*
X71181511Y-47289271D01*
X71755000Y-47403345D01*
X72328489Y-47289271D01*
X72814670Y-46964415D01*
X73025000Y-46649634D01*
X73235330Y-46964415D01*
X73721511Y-47289271D01*
X74295000Y-47403345D01*
X74868489Y-47289271D01*
X75354670Y-46964415D01*
X75565000Y-46649634D01*
X75775330Y-46964415D01*
X76261511Y-47289271D01*
X76835000Y-47403345D01*
X77408489Y-47289271D01*
X77894670Y-46964415D01*
X78219526Y-46478234D01*
X78333600Y-45904745D01*
X78333600Y-45535255D01*
X78219526Y-44961766D01*
X77894670Y-44475585D01*
X77408489Y-44150729D01*
X76880910Y-44045787D01*
X76881162Y-43756833D01*
X76739117Y-43413057D01*
X76731000Y-43404926D01*
X76731000Y-41287440D01*
X77025500Y-41287440D01*
X77124247Y-41268859D01*
X77216000Y-41287440D01*
X77978000Y-41287440D01*
X78213317Y-41243162D01*
X78429441Y-41104090D01*
X78540192Y-40942000D01*
X81452488Y-40942000D01*
X81740000Y-41229513D01*
X81740000Y-46654487D01*
X80690488Y-47704000D01*
X61214000Y-47704000D01*
X60904026Y-47765658D01*
X60852630Y-47800000D01*
X60641243Y-47941244D01*
X60387244Y-48195244D01*
X60211658Y-48458026D01*
X60150000Y-48768000D01*
X60150000Y-51422666D01*
X60074683Y-51436838D01*
X59858559Y-51575910D01*
X59855764Y-51580000D01*
X58886563Y-51580000D01*
X58686890Y-51443569D01*
X58595000Y-51424961D01*
X58595000Y-49911000D01*
X58533342Y-49601026D01*
X58385657Y-49380000D01*
X58357756Y-49338243D01*
X57976756Y-48957244D01*
X57815000Y-48849162D01*
X57713974Y-48781658D01*
X57404000Y-48720000D01*
X53319441Y-48720000D01*
X53018799Y-48595162D01*
X52646833Y-48594838D01*
X52303057Y-48736883D01*
X52039808Y-48999673D01*
X51897162Y-49343201D01*
X51896838Y-49715167D01*
X52038883Y-50058943D01*
X52301673Y-50322192D01*
X52645201Y-50464838D01*
X53017167Y-50465162D01*
X53320083Y-50340000D01*
X54704943Y-50340000D01*
X54589057Y-50387883D01*
X54325808Y-50650673D01*
X54183162Y-50994201D01*
X54183152Y-51005690D01*
X53037885Y-52150957D01*
X52900833Y-52150838D01*
X52557057Y-52292883D01*
X52293808Y-52555673D01*
X52151162Y-52899201D01*
X52150838Y-53271167D01*
X52292883Y-53614943D01*
X52555673Y-53878192D01*
X52899201Y-54020838D01*
X53271167Y-54021162D01*
X53614943Y-53879117D01*
X53878192Y-53616327D01*
X53938807Y-53470351D01*
X55293005Y-52116153D01*
X55303167Y-52116162D01*
X55646943Y-51974117D01*
X55910192Y-51711327D01*
X56052838Y-51367799D01*
X56053162Y-50995833D01*
X55911117Y-50652057D01*
X55648327Y-50388808D01*
X55530785Y-50340000D01*
X56975000Y-50340000D01*
X56975000Y-51422666D01*
X56899683Y-51436838D01*
X56683559Y-51575910D01*
X56680764Y-51580000D01*
X56576000Y-51580000D01*
X56266026Y-51641658D01*
X56139635Y-51726110D01*
X56003243Y-51817244D01*
X55815246Y-52005242D01*
X55815243Y-52005244D01*
X55561244Y-52259244D01*
X55385658Y-52522026D01*
X55324000Y-52832000D01*
X55324000Y-54944957D01*
X55186833Y-54944838D01*
X54883917Y-55070000D01*
X53319441Y-55070000D01*
X53018799Y-54945162D01*
X52646833Y-54944838D01*
X52303057Y-55086883D01*
X52039808Y-55349673D01*
X51897162Y-55693201D01*
X51896838Y-56065167D01*
X52038883Y-56408943D01*
X52301673Y-56672192D01*
X52645201Y-56814838D01*
X53017167Y-56815162D01*
X53320083Y-56690000D01*
X54884559Y-56690000D01*
X55185201Y-56814838D01*
X55340117Y-56814973D01*
X55324000Y-56896000D01*
X55324000Y-59912134D01*
X55245000Y-60030366D01*
X55034670Y-59715585D01*
X54548489Y-59390729D01*
X53975000Y-59276655D01*
X53401511Y-59390729D01*
X52915330Y-59715585D01*
X52708539Y-60025069D01*
X52337036Y-59609268D01*
X51809791Y-59355291D01*
X51794026Y-59352642D01*
X51562000Y-59473783D01*
X51562000Y-60833000D01*
X51582000Y-60833000D01*
X51582000Y-61087000D01*
X51562000Y-61087000D01*
X51562000Y-62446217D01*
X51794026Y-62567358D01*
X51809791Y-62564709D01*
X52337036Y-62310732D01*
X52708539Y-61894931D01*
X52915330Y-62204415D01*
X53401511Y-62529271D01*
X53975000Y-62643345D01*
X54548489Y-62529271D01*
X55034670Y-62204415D01*
X55245000Y-61889634D01*
X55455330Y-62204415D01*
X55941511Y-62529271D01*
X56515000Y-62643345D01*
X57088489Y-62529271D01*
X57574670Y-62204415D01*
X57785000Y-61889634D01*
X57995330Y-62204415D01*
X58270000Y-62387944D01*
X58270000Y-64008000D01*
X58329755Y-64308406D01*
X58499921Y-64563079D01*
X58754594Y-64733245D01*
X59055000Y-64793000D01*
X60549494Y-64793000D01*
X60556673Y-64800192D01*
X60900201Y-64942838D01*
X61272167Y-64943162D01*
X61427020Y-64879178D01*
X61184599Y-65121599D01*
X61019852Y-65368161D01*
X60962000Y-65659000D01*
X60962000Y-66844573D01*
X60762559Y-66972910D01*
X60721501Y-67033000D01*
X49530000Y-67033000D01*
X49229593Y-67092755D01*
X48974921Y-67262921D01*
X47068995Y-69168847D01*
X47058833Y-69168838D01*
X46715057Y-69310883D01*
X46451808Y-69573673D01*
X46309162Y-69917201D01*
X46308838Y-70289167D01*
X46450883Y-70632943D01*
X46472902Y-70655000D01*
X44079158Y-70655000D01*
X43838000Y-70413842D01*
X43838000Y-70149910D01*
X44127167Y-70150162D01*
X44430083Y-70025000D01*
X45339000Y-70025000D01*
X45648974Y-69963342D01*
X45911756Y-69787756D01*
X49467756Y-66231757D01*
X49587500Y-66052547D01*
X49643342Y-65968974D01*
X49705000Y-65659000D01*
X49705000Y-62371239D01*
X49954670Y-62204415D01*
X50161461Y-61894931D01*
X50532964Y-62310732D01*
X51060209Y-62564709D01*
X51075974Y-62567358D01*
X51308000Y-62446217D01*
X51308000Y-61087000D01*
X51288000Y-61087000D01*
X51288000Y-60833000D01*
X51308000Y-60833000D01*
X51308000Y-59473783D01*
X51075974Y-59352642D01*
X51060209Y-59355291D01*
X50532964Y-59609268D01*
X50161461Y-60025069D01*
X49954670Y-59715585D01*
X49832000Y-59633619D01*
X49832000Y-57002441D01*
X49956838Y-56701799D01*
X49957162Y-56329833D01*
X49815117Y-55986057D01*
X49552327Y-55722808D01*
X49208799Y-55580162D01*
X48836833Y-55579838D01*
X48493057Y-55721883D01*
X48229808Y-55984673D01*
X48087162Y-56328201D01*
X48086838Y-56700167D01*
X48212000Y-57003083D01*
X48212000Y-59463902D01*
X48082763Y-59550255D01*
X47950027Y-59576658D01*
X47687244Y-59752244D01*
X47648000Y-59810977D01*
X47648000Y-54935158D01*
X48712157Y-53871000D01*
X49500494Y-53871000D01*
X49507673Y-53878192D01*
X49851201Y-54020838D01*
X50223167Y-54021162D01*
X50566943Y-53879117D01*
X50830192Y-53616327D01*
X50972838Y-53272799D01*
X50973162Y-52900833D01*
X50831117Y-52557057D01*
X50568327Y-52293808D01*
X50224799Y-52151162D01*
X49852833Y-52150838D01*
X49509057Y-52292883D01*
X49500926Y-52301000D01*
X48387000Y-52301000D01*
X48086594Y-52360755D01*
X47831921Y-52530921D01*
X47831919Y-52530924D01*
X46307921Y-54054921D01*
X46137755Y-54309593D01*
X46137755Y-54309594D01*
X46078000Y-54610000D01*
X46078000Y-60253842D01*
X45648842Y-60683000D01*
X44577000Y-60683000D01*
X44276594Y-60742755D01*
X44021921Y-60912921D01*
X44021919Y-60912924D01*
X43203000Y-61731842D01*
X43203000Y-47273506D01*
X43210192Y-47266327D01*
X43352838Y-46922799D01*
X43353162Y-46550833D01*
X43211117Y-46207057D01*
X42948327Y-45943808D01*
X42604799Y-45801162D01*
X42232833Y-45800838D01*
X41889057Y-45942883D01*
X41625808Y-46205673D01*
X41483162Y-46549201D01*
X41482838Y-46921167D01*
X41624883Y-47264943D01*
X41633000Y-47273074D01*
X41633000Y-48618000D01*
X38891506Y-48618000D01*
X38884327Y-48610808D01*
X38540799Y-48468162D01*
X38168833Y-48467838D01*
X37825057Y-48609883D01*
X37561808Y-48872673D01*
X37419162Y-49216201D01*
X37418838Y-49588167D01*
X37560883Y-49931943D01*
X37823673Y-50195192D01*
X38078116Y-50300847D01*
X37973000Y-50279560D01*
X37129901Y-50279560D01*
X37130106Y-50044219D01*
X37241192Y-49933327D01*
X37383838Y-49589799D01*
X37384162Y-49217833D01*
X37242117Y-48874057D01*
X36979327Y-48610808D01*
X36635799Y-48468162D01*
X36263833Y-48467838D01*
X35920057Y-48609883D01*
X35911926Y-48618000D01*
X33043000Y-48618000D01*
X33043000Y-46959676D01*
X33175303Y-46905010D01*
X33568629Y-46512370D01*
X33654949Y-46304488D01*
X33739990Y-46510303D01*
X34132630Y-46903629D01*
X34645900Y-47116757D01*
X35201661Y-47117242D01*
X35715303Y-46905010D01*
X35920457Y-46700213D01*
X36664392Y-46700213D01*
X36733857Y-46942397D01*
X37257302Y-47129144D01*
X37812368Y-47101362D01*
X38196143Y-46942397D01*
X38265608Y-46700213D01*
X37465000Y-45899605D01*
X36664392Y-46700213D01*
X35920457Y-46700213D01*
X36108629Y-46512370D01*
X36188395Y-46320273D01*
X36242603Y-46451143D01*
X36484787Y-46520608D01*
X37285395Y-45720000D01*
X36484787Y-44919392D01*
X36242603Y-44988857D01*
X36192491Y-45129318D01*
X36110010Y-44929697D01*
X35920432Y-44739787D01*
X36664392Y-44739787D01*
X37465000Y-45540395D01*
X38265608Y-44739787D01*
X38196143Y-44497603D01*
X37672698Y-44310856D01*
X37117632Y-44338638D01*
X36733857Y-44497603D01*
X36664392Y-44739787D01*
X35920432Y-44739787D01*
X35717370Y-44536371D01*
X35204100Y-44323243D01*
X34648339Y-44322758D01*
X34134697Y-44534990D01*
X33741371Y-44927630D01*
X33655051Y-45135512D01*
X33570010Y-44929697D01*
X33177370Y-44536371D01*
X32664100Y-44323243D01*
X32108339Y-44322758D01*
X31594697Y-44534990D01*
X31201371Y-44927630D01*
X30988243Y-45440900D01*
X30987758Y-45996661D01*
X31199990Y-46510303D01*
X31473000Y-46783790D01*
X31473000Y-49022000D01*
X31532755Y-49322407D01*
X31681947Y-49545689D01*
X31592808Y-49634673D01*
X31450162Y-49978201D01*
X31449838Y-50350167D01*
X31481538Y-50426888D01*
X31425559Y-50462910D01*
X31280569Y-50675110D01*
X31229560Y-50927000D01*
X31229560Y-52260500D01*
X31248141Y-52359247D01*
X31229560Y-52451000D01*
X31229560Y-53213000D01*
X31273838Y-53448317D01*
X31412910Y-53664441D01*
X31625000Y-53809356D01*
X31625000Y-55638960D01*
X31521400Y-55638960D01*
X31286083Y-55683238D01*
X31069959Y-55822310D01*
X30924969Y-56034510D01*
X30873960Y-56286400D01*
X30873960Y-58013600D01*
X30918238Y-58248917D01*
X31057310Y-58465041D01*
X31269510Y-58610031D01*
X31366451Y-58629662D01*
X31178179Y-58801510D01*
X30930032Y-59330973D01*
X31050531Y-59563000D01*
X32258000Y-59563000D01*
X32258000Y-59543000D01*
X32512000Y-59543000D01*
X32512000Y-59563000D01*
X32532000Y-59563000D01*
X32532000Y-59817000D01*
X32512000Y-59817000D01*
X32512000Y-61023817D01*
X32681753Y-61112445D01*
X32084638Y-61709560D01*
X31877000Y-61709560D01*
X31641683Y-61753838D01*
X31425559Y-61892910D01*
X31280569Y-62105110D01*
X31229560Y-62357000D01*
X31229560Y-63119000D01*
X31248141Y-63217747D01*
X31229560Y-63309500D01*
X31229560Y-63452000D01*
X30734000Y-63452000D01*
X30424026Y-63513658D01*
X30339045Y-63570441D01*
X30161243Y-63689244D01*
X29907244Y-63943244D01*
X29731658Y-64206026D01*
X29670000Y-64516000D01*
X29670000Y-65151000D01*
X29731658Y-65460974D01*
X29863975Y-65659000D01*
X29907244Y-65723756D01*
X29975775Y-65792287D01*
X29985658Y-65841974D01*
X30070517Y-65968974D01*
X30161244Y-66104756D01*
X31177244Y-67120757D01*
X31310576Y-67209846D01*
X31440026Y-67296342D01*
X31750000Y-67358000D01*
X32684488Y-67358000D01*
X32864571Y-67538083D01*
X32988883Y-67838943D01*
X33251673Y-68102192D01*
X33595201Y-68244838D01*
X33967167Y-68245162D01*
X34310943Y-68103117D01*
X34574192Y-67840327D01*
X34716838Y-67496799D01*
X34717162Y-67124833D01*
X34575117Y-66781057D01*
X34312327Y-66517808D01*
X34009629Y-66392116D01*
X33592756Y-65975244D01*
X33530945Y-65933943D01*
X33329974Y-65799658D01*
X33020000Y-65738000D01*
X32085513Y-65738000D01*
X31504607Y-65157095D01*
X31625110Y-65239431D01*
X31877000Y-65290440D01*
X32893000Y-65290440D01*
X33128317Y-65246162D01*
X33344441Y-65107090D01*
X33489431Y-64894890D01*
X33540440Y-64643000D01*
X33540440Y-63309500D01*
X33521859Y-63210753D01*
X33540440Y-63119000D01*
X33540440Y-62403362D01*
X33815967Y-62127835D01*
X33769560Y-62357000D01*
X33769560Y-63690500D01*
X33782000Y-63756613D01*
X33782000Y-63976250D01*
X33940750Y-64135000D01*
X33948444Y-64135000D01*
X33952910Y-64141941D01*
X34165110Y-64286931D01*
X34169026Y-64287724D01*
X34163000Y-64293750D01*
X34163000Y-64389000D01*
X33940750Y-64389000D01*
X33782000Y-64547750D01*
X33782000Y-64769309D01*
X33878673Y-65002698D01*
X34057301Y-65181327D01*
X34290690Y-65278000D01*
X34639250Y-65278000D01*
X34674250Y-65243000D01*
X34702750Y-65243000D01*
X34861500Y-65084250D01*
X34861500Y-64302095D01*
X34906317Y-64293662D01*
X34922099Y-64283507D01*
X34927110Y-64286931D01*
X34988500Y-64299363D01*
X34988500Y-65084250D01*
X35147250Y-65243000D01*
X35175750Y-65243000D01*
X35210750Y-65278000D01*
X35559310Y-65278000D01*
X35792699Y-65181327D01*
X35971327Y-65002698D01*
X36068000Y-64769309D01*
X36068000Y-64547750D01*
X35909250Y-64389000D01*
X35687000Y-64389000D01*
X35687000Y-64293750D01*
X35679631Y-64286381D01*
X35884441Y-64154590D01*
X35897826Y-64135000D01*
X35909250Y-64135000D01*
X36068000Y-63976250D01*
X36068000Y-63754691D01*
X36067625Y-63753785D01*
X36080440Y-63690500D01*
X36080440Y-63498000D01*
X36309560Y-63498000D01*
X36309560Y-64643000D01*
X36353838Y-64878317D01*
X36492910Y-65094441D01*
X36561961Y-65141621D01*
X36530162Y-65218201D01*
X36529838Y-65590167D01*
X36671883Y-65933943D01*
X36934673Y-66197192D01*
X37278201Y-66339838D01*
X37650167Y-66340162D01*
X37993943Y-66198117D01*
X38257192Y-65935327D01*
X38399838Y-65591799D01*
X38400162Y-65219833D01*
X38368462Y-65143112D01*
X38424441Y-65107090D01*
X38569431Y-64894890D01*
X38620440Y-64643000D01*
X38620440Y-63309500D01*
X38601859Y-63210753D01*
X38620440Y-63119000D01*
X38620440Y-62357000D01*
X38576162Y-62121683D01*
X38437090Y-61905559D01*
X38225000Y-61760644D01*
X38225000Y-60979262D01*
X38524670Y-60779029D01*
X38735000Y-60464248D01*
X38945330Y-60779029D01*
X39245000Y-60979262D01*
X39245000Y-61764573D01*
X39045559Y-61892910D01*
X38900569Y-62105110D01*
X38849560Y-62357000D01*
X38849560Y-63119000D01*
X38868141Y-63217747D01*
X38849560Y-63309500D01*
X38849560Y-64643000D01*
X38893838Y-64878317D01*
X39032910Y-65094441D01*
X39143041Y-65169690D01*
X39070162Y-65345201D01*
X39069838Y-65717167D01*
X39211883Y-66060943D01*
X39474673Y-66324192D01*
X39818201Y-66466838D01*
X40190167Y-66467162D01*
X40533943Y-66325117D01*
X40797192Y-66062327D01*
X40939838Y-65718799D01*
X40940162Y-65346833D01*
X40867008Y-65169786D01*
X40964441Y-65107090D01*
X41005499Y-65047000D01*
X42037000Y-65047000D01*
X42268000Y-65001051D01*
X42268000Y-70739000D01*
X42327755Y-71039407D01*
X42497921Y-71294079D01*
X43037842Y-71834000D01*
X36911513Y-71834000D01*
X36751000Y-71673488D01*
X36751000Y-67924441D01*
X36875838Y-67623799D01*
X36876162Y-67251833D01*
X36734117Y-66908057D01*
X36471327Y-66644808D01*
X36127799Y-66502162D01*
X35755833Y-66501838D01*
X35412057Y-66643883D01*
X35148808Y-66906673D01*
X35006162Y-67250201D01*
X35005838Y-67622167D01*
X35131000Y-67925083D01*
X35131000Y-72009000D01*
X35192658Y-72318974D01*
X35343887Y-72545303D01*
X35368244Y-72581756D01*
X36003244Y-73216757D01*
X36266027Y-73392343D01*
X36576000Y-73454000D01*
X45164000Y-73454000D01*
X45164000Y-76902606D01*
X44890799Y-76789162D01*
X44518833Y-76788838D01*
X44175057Y-76930883D01*
X43911808Y-77193673D01*
X43769162Y-77537201D01*
X43768838Y-77909167D01*
X43894000Y-78212083D01*
X43894000Y-88392000D01*
X43955658Y-88701974D01*
X44044707Y-88835244D01*
X44131244Y-88964756D01*
X44626488Y-89460000D01*
X28710631Y-89460000D01*
X29241806Y-88929751D01*
X29796368Y-87594218D01*
X29797630Y-86148126D01*
X29657957Y-85810090D01*
X33174940Y-85810090D01*
X33174940Y-87400709D01*
X33271613Y-87634098D01*
X33450241Y-87812727D01*
X33683630Y-87909400D01*
X35274250Y-87909400D01*
X35433000Y-87750650D01*
X35433000Y-85651340D01*
X35687000Y-85651340D01*
X35687000Y-87750650D01*
X35845750Y-87909400D01*
X37436370Y-87909400D01*
X37669759Y-87812727D01*
X37848387Y-87634098D01*
X37945060Y-87400709D01*
X37945060Y-85810090D01*
X37786310Y-85651340D01*
X35687000Y-85651340D01*
X35433000Y-85651340D01*
X33333690Y-85651340D01*
X33174940Y-85810090D01*
X29657957Y-85810090D01*
X29245400Y-84811628D01*
X28223751Y-83788194D01*
X27886057Y-83647971D01*
X33174940Y-83647971D01*
X33174940Y-85238590D01*
X33333690Y-85397340D01*
X35433000Y-85397340D01*
X35433000Y-83298030D01*
X35687000Y-83298030D01*
X35687000Y-85397340D01*
X37786310Y-85397340D01*
X37945060Y-85238590D01*
X37945060Y-84572668D01*
X37970613Y-84634358D01*
X38149241Y-84812987D01*
X38382630Y-84909660D01*
X39973250Y-84909660D01*
X40132000Y-84750910D01*
X40132000Y-82651600D01*
X40386000Y-82651600D01*
X40386000Y-84750910D01*
X40544750Y-84909660D01*
X42135370Y-84909660D01*
X42368759Y-84812987D01*
X42547387Y-84634358D01*
X42644060Y-84400969D01*
X42644060Y-82810350D01*
X42485310Y-82651600D01*
X40386000Y-82651600D01*
X40132000Y-82651600D01*
X38032690Y-82651600D01*
X37873940Y-82810350D01*
X37873940Y-83476272D01*
X37848387Y-83414582D01*
X37669759Y-83235953D01*
X37436370Y-83139280D01*
X35845750Y-83139280D01*
X35687000Y-83298030D01*
X35433000Y-83298030D01*
X35274250Y-83139280D01*
X33683630Y-83139280D01*
X33450241Y-83235953D01*
X33271613Y-83414582D01*
X33174940Y-83647971D01*
X27886057Y-83647971D01*
X26888218Y-83233632D01*
X25442126Y-83232370D01*
X24105628Y-83784600D01*
X23082194Y-84806249D01*
X23062000Y-84854882D01*
X23062000Y-78613000D01*
X23716655Y-78613000D01*
X23842330Y-79244810D01*
X24200222Y-79780433D01*
X24735845Y-80138325D01*
X25367655Y-80264000D01*
X25432345Y-80264000D01*
X26064155Y-80138325D01*
X26599778Y-79780433D01*
X26957670Y-79244810D01*
X26972750Y-79169000D01*
X27969470Y-79169000D01*
X27983910Y-79191441D01*
X28196110Y-79336431D01*
X28448000Y-79387440D01*
X29464000Y-79387440D01*
X29699317Y-79343162D01*
X29915441Y-79204090D01*
X29939417Y-79169000D01*
X33162500Y-79169000D01*
X33162500Y-81274920D01*
X33206778Y-81510237D01*
X33345850Y-81726361D01*
X33558050Y-81871351D01*
X33809940Y-81922360D01*
X37310060Y-81922360D01*
X37545377Y-81878082D01*
X37761501Y-81739010D01*
X37873940Y-81574450D01*
X37873940Y-82238850D01*
X38032690Y-82397600D01*
X40132000Y-82397600D01*
X40132000Y-80298290D01*
X40386000Y-80298290D01*
X40386000Y-82397600D01*
X42485310Y-82397600D01*
X42644060Y-82238850D01*
X42644060Y-80648231D01*
X42547387Y-80414842D01*
X42368759Y-80236213D01*
X42135370Y-80139540D01*
X40544750Y-80139540D01*
X40386000Y-80298290D01*
X40132000Y-80298290D01*
X39973250Y-80139540D01*
X38382630Y-80139540D01*
X38149241Y-80236213D01*
X37970613Y-80414842D01*
X37957500Y-80446500D01*
X37957500Y-77774800D01*
X37913222Y-77539483D01*
X37774150Y-77323359D01*
X37561950Y-77178369D01*
X37310060Y-77127360D01*
X33809940Y-77127360D01*
X33574623Y-77171638D01*
X33358499Y-77310710D01*
X33213509Y-77522910D01*
X33208226Y-77549000D01*
X30111440Y-77549000D01*
X30111440Y-77406500D01*
X30092859Y-77307753D01*
X30111440Y-77216000D01*
X30111440Y-76454000D01*
X30067162Y-76218683D01*
X29928090Y-76002559D01*
X29766000Y-75891808D01*
X29766000Y-70947512D01*
X30688513Y-70025000D01*
X33675559Y-70025000D01*
X33976201Y-70149838D01*
X34348167Y-70150162D01*
X34691943Y-70008117D01*
X34955192Y-69745327D01*
X35097838Y-69401799D01*
X35098162Y-69029833D01*
X34956117Y-68686057D01*
X34693327Y-68422808D01*
X34349799Y-68280162D01*
X33977833Y-68279838D01*
X33674917Y-68405000D01*
X30353000Y-68405000D01*
X30043026Y-68466658D01*
X29962973Y-68520148D01*
X29780243Y-68642244D01*
X28383244Y-70039244D01*
X28207658Y-70302026D01*
X28146000Y-70612000D01*
X28146000Y-75263000D01*
X27063440Y-75263000D01*
X27063440Y-75057000D01*
X27019162Y-74821683D01*
X26880090Y-74605559D01*
X26667890Y-74460569D01*
X26416000Y-74409560D01*
X24384000Y-74409560D01*
X24148683Y-74453838D01*
X23932559Y-74592910D01*
X23787569Y-74805110D01*
X23736560Y-75057000D01*
X23736560Y-77089000D01*
X23780838Y-77324317D01*
X23919910Y-77540441D01*
X24068837Y-77642198D01*
X23842330Y-77981190D01*
X23716655Y-78613000D01*
X23062000Y-78613000D01*
X23062000Y-69551874D01*
X23083627Y-69604215D01*
X23964747Y-70486874D01*
X25116574Y-70965154D01*
X26363754Y-70966243D01*
X27516415Y-70489973D01*
X28399074Y-69608853D01*
X28877354Y-68457026D01*
X28878443Y-67209846D01*
X28402173Y-66057185D01*
X27521053Y-65174526D01*
X26369226Y-64696246D01*
X25122046Y-64695157D01*
X23969385Y-65171427D01*
X23086726Y-66052547D01*
X23062000Y-66112094D01*
X23062000Y-60049027D01*
X30930032Y-60049027D01*
X31178179Y-60578490D01*
X31610053Y-60972688D01*
X32025974Y-61144958D01*
X32258000Y-61023817D01*
X32258000Y-59817000D01*
X31050531Y-59817000D01*
X30930032Y-60049027D01*
X23062000Y-60049027D01*
X23062000Y-38551174D01*
X23083627Y-38603515D01*
X23964747Y-39486174D01*
X25116574Y-39964454D01*
X26363754Y-39965543D01*
X27516415Y-39489273D01*
X28399074Y-38608153D01*
X28877354Y-37456326D01*
X28877789Y-36957000D01*
X29707000Y-36957000D01*
X29707000Y-37357000D01*
X29872446Y-37934752D01*
X30246394Y-38405212D01*
X30771914Y-38696756D01*
X30877260Y-38721036D01*
X31115000Y-38600378D01*
X31115000Y-36957000D01*
X29707000Y-36957000D01*
X28877789Y-36957000D01*
X28878360Y-36303000D01*
X29707000Y-36303000D01*
X29707000Y-36703000D01*
X31115000Y-36703000D01*
X31115000Y-35059622D01*
X31369000Y-35059622D01*
X31369000Y-36703000D01*
X31389000Y-36703000D01*
X31389000Y-36957000D01*
X31369000Y-36957000D01*
X31369000Y-38600378D01*
X31606740Y-38721036D01*
X31712086Y-38696756D01*
X32237606Y-38405212D01*
X32505808Y-38067790D01*
X32696591Y-38353318D01*
X32972000Y-38537340D01*
X32972000Y-39370000D01*
X33033658Y-39679974D01*
X33128575Y-39822027D01*
X33209244Y-39942756D01*
X35114244Y-41847757D01*
X35377027Y-42023343D01*
X35509154Y-42049624D01*
X35687000Y-42085000D01*
X37637488Y-42085000D01*
X38796209Y-43243722D01*
X38865770Y-43290201D01*
X39058992Y-43419308D01*
X39195000Y-43446362D01*
X39195000Y-44554653D01*
X38821371Y-44927630D01*
X38741605Y-45119727D01*
X38687397Y-44988857D01*
X38445213Y-44919392D01*
X37644605Y-45720000D01*
X38445213Y-46520608D01*
X38687397Y-46451143D01*
X38737509Y-46310682D01*
X38819990Y-46510303D01*
X39212630Y-46903629D01*
X39725900Y-47116757D01*
X40281661Y-47117242D01*
X40795303Y-46905010D01*
X41188629Y-46512370D01*
X41401757Y-45999100D01*
X41402242Y-45443339D01*
X41190010Y-44929697D01*
X40815000Y-44554032D01*
X40815000Y-43480966D01*
X43386000Y-43480966D01*
X43386000Y-49149000D01*
X43447658Y-49458974D01*
X43542575Y-49601027D01*
X43623244Y-49721756D01*
X44004243Y-50102756D01*
X44097398Y-50165000D01*
X44267026Y-50278342D01*
X44577000Y-50340000D01*
X49804559Y-50340000D01*
X50105201Y-50464838D01*
X50477167Y-50465162D01*
X50820943Y-50323117D01*
X51084192Y-50060327D01*
X51226838Y-49716799D01*
X51227162Y-49344833D01*
X51085117Y-49001057D01*
X50822327Y-48737808D01*
X50478799Y-48595162D01*
X50106833Y-48594838D01*
X49803917Y-48720000D01*
X45006000Y-48720000D01*
X45006000Y-44704000D01*
X47383960Y-44704000D01*
X47383960Y-46736000D01*
X47428238Y-46971317D01*
X47567310Y-47187441D01*
X47779510Y-47332431D01*
X48031400Y-47383440D01*
X49758600Y-47383440D01*
X49993917Y-47339162D01*
X50210041Y-47200090D01*
X50355031Y-46987890D01*
X50363400Y-46946561D01*
X50375330Y-46964415D01*
X50861511Y-47289271D01*
X51435000Y-47403345D01*
X52008489Y-47289271D01*
X52494670Y-46964415D01*
X52705000Y-46649634D01*
X52915330Y-46964415D01*
X53401511Y-47289271D01*
X53975000Y-47403345D01*
X54548489Y-47289271D01*
X55034670Y-46964415D01*
X55241461Y-46654931D01*
X55612964Y-47070732D01*
X56140209Y-47324709D01*
X56155974Y-47327358D01*
X56388000Y-47206217D01*
X56388000Y-45847000D01*
X56368000Y-45847000D01*
X56368000Y-45593000D01*
X56388000Y-45593000D01*
X56388000Y-44233783D01*
X56155974Y-44112642D01*
X56140209Y-44115291D01*
X55612964Y-44369268D01*
X55241461Y-44785069D01*
X55034670Y-44475585D01*
X54548489Y-44150729D01*
X53975000Y-44036655D01*
X53401511Y-44150729D01*
X52915330Y-44475585D01*
X52705000Y-44790366D01*
X52494670Y-44475585D01*
X52008489Y-44150729D01*
X51435000Y-44036655D01*
X50861511Y-44150729D01*
X50375330Y-44475585D01*
X50365757Y-44489913D01*
X50361762Y-44468683D01*
X50222690Y-44252559D01*
X50010490Y-44107569D01*
X49758600Y-44056560D01*
X48031400Y-44056560D01*
X47796083Y-44100838D01*
X47579959Y-44239910D01*
X47434969Y-44452110D01*
X47383960Y-44704000D01*
X45006000Y-44704000D01*
X45006000Y-42797966D01*
X44944342Y-42487992D01*
X44856549Y-42356601D01*
X44768756Y-42225209D01*
X44641756Y-42098210D01*
X44529710Y-42023343D01*
X44378974Y-41922624D01*
X44069000Y-41860966D01*
X39704479Y-41860966D01*
X38545756Y-40702244D01*
X38282974Y-40526658D01*
X37973000Y-40465000D01*
X36022513Y-40465000D01*
X34592000Y-39034488D01*
X34592000Y-38537340D01*
X34867409Y-38353318D01*
X35052000Y-38077058D01*
X35236591Y-38353318D01*
X35734581Y-38686064D01*
X36322000Y-38802909D01*
X36909419Y-38686064D01*
X37407409Y-38353318D01*
X37592000Y-38077058D01*
X37776591Y-38353318D01*
X38274581Y-38686064D01*
X38862000Y-38802909D01*
X39449419Y-38686064D01*
X39947409Y-38353318D01*
X40138192Y-38067790D01*
X40406394Y-38405212D01*
X40931914Y-38696756D01*
X41037260Y-38721036D01*
X41275000Y-38600378D01*
X41275000Y-36957000D01*
X41255000Y-36957000D01*
X41255000Y-36703000D01*
X41275000Y-36703000D01*
X41275000Y-35059622D01*
X41529000Y-35059622D01*
X41529000Y-36703000D01*
X41549000Y-36703000D01*
X41549000Y-36957000D01*
X41529000Y-36957000D01*
X41529000Y-38600378D01*
X41766740Y-38721036D01*
X41872086Y-38696756D01*
X42397606Y-38405212D01*
X42665808Y-38067790D01*
X42856591Y-38353318D01*
X43354581Y-38686064D01*
X43942000Y-38802909D01*
X44529419Y-38686064D01*
X45027409Y-38353318D01*
X45360155Y-37855328D01*
X45477000Y-37267909D01*
X45477000Y-36392091D01*
X45360155Y-35804672D01*
X45027409Y-35306682D01*
X44529419Y-34973936D01*
X43942000Y-34857091D01*
X43354581Y-34973936D01*
X42856591Y-35306682D01*
X42665808Y-35592210D01*
X42397606Y-35254788D01*
X41872086Y-34963244D01*
X41766740Y-34938964D01*
X41529000Y-35059622D01*
X41275000Y-35059622D01*
X41037260Y-34938964D01*
X40931914Y-34963244D01*
X40406394Y-35254788D01*
X40138192Y-35592210D01*
X39947409Y-35306682D01*
X39449419Y-34973936D01*
X38862000Y-34857091D01*
X38274581Y-34973936D01*
X37776591Y-35306682D01*
X37592000Y-35582942D01*
X37407409Y-35306682D01*
X36909419Y-34973936D01*
X36322000Y-34857091D01*
X35734581Y-34973936D01*
X35236591Y-35306682D01*
X35052000Y-35582942D01*
X34867409Y-35306682D01*
X34369419Y-34973936D01*
X33782000Y-34857091D01*
X33194581Y-34973936D01*
X32696591Y-35306682D01*
X32505808Y-35592210D01*
X32237606Y-35254788D01*
X31712086Y-34963244D01*
X31606740Y-34938964D01*
X31369000Y-35059622D01*
X31115000Y-35059622D01*
X30877260Y-34938964D01*
X30771914Y-34963244D01*
X30246394Y-35254788D01*
X29872446Y-35725248D01*
X29707000Y-36303000D01*
X28878360Y-36303000D01*
X28878443Y-36209146D01*
X28402173Y-35056485D01*
X27711894Y-34365000D01*
X90297000Y-34365000D01*
X90568705Y-34310954D01*
X90799046Y-34157046D01*
X90952954Y-33926705D01*
X90992081Y-33730000D01*
X100034605Y-33730000D01*
X98967965Y-34170727D01*
X98967965Y-34170727D01*
G37*
X98967965Y-34170727D02*
X98085306Y-35051847D01*
X97607026Y-36203674D01*
X97605937Y-37450854D01*
X98082207Y-38603515D01*
X98963327Y-39486174D01*
X100115154Y-39964454D01*
X101362334Y-39965543D01*
X102514995Y-39489273D01*
X103397654Y-38608153D01*
X103875934Y-37456326D01*
X103877023Y-36209146D01*
X103400753Y-35056485D01*
X102519633Y-34173826D01*
X101450781Y-33730000D01*
X104192000Y-33730000D01*
X104192000Y-84839803D01*
X104175400Y-84799628D01*
X103153751Y-83776194D01*
X101818218Y-83221632D01*
X100372126Y-83220370D01*
X99035628Y-83772600D01*
X98012194Y-84794249D01*
X97457632Y-86129782D01*
X97456370Y-87575874D01*
X98008600Y-88912372D01*
X98555273Y-89460000D01*
X91517512Y-89460000D01*
X93282756Y-87694757D01*
X93370549Y-87563365D01*
X93458342Y-87431974D01*
X93520000Y-87122000D01*
X93520000Y-82461987D01*
X93521800Y-82461243D01*
X93925824Y-82057923D01*
X94144750Y-81530691D01*
X94145248Y-80959813D01*
X93927243Y-80432200D01*
X93523923Y-80028176D01*
X92996691Y-79809250D01*
X92425813Y-79808752D01*
X91898200Y-80026757D01*
X91494176Y-80430077D01*
X91471785Y-80484000D01*
X89432802Y-80484000D01*
X89152000Y-80203198D01*
X89152000Y-71755000D01*
X89094148Y-71464161D01*
X88929401Y-71217599D01*
X88682839Y-71052852D01*
X88392000Y-70995000D01*
X84509531Y-70995000D01*
X84497010Y-70964697D01*
X84104370Y-70571371D01*
X83912273Y-70491605D01*
X84043143Y-70437397D01*
X84112608Y-70195213D01*
X83312000Y-69394605D01*
X82511392Y-70195213D01*
X82580857Y-70437397D01*
X82721318Y-70487509D01*
X82521697Y-70569990D01*
X82128371Y-70962630D01*
X81915243Y-71475900D01*
X81914758Y-72031661D01*
X82126990Y-72545303D01*
X82519630Y-72938629D01*
X82727512Y-73024949D01*
X82521697Y-73109990D01*
X82128371Y-73502630D01*
X82125311Y-73510000D01*
X73689506Y-73510000D01*
X73682327Y-73502808D01*
X73338799Y-73360162D01*
X72966833Y-73359838D01*
X72667000Y-73483726D01*
X72667000Y-69007302D01*
X81902856Y-69007302D01*
X81930638Y-69562368D01*
X82089603Y-69946143D01*
X82331787Y-70015608D01*
X83132395Y-69215000D01*
X83491605Y-69215000D01*
X84292213Y-70015608D01*
X84534397Y-69946143D01*
X84721144Y-69422698D01*
X84693362Y-68867632D01*
X84534397Y-68483857D01*
X84292213Y-68414392D01*
X83491605Y-69215000D01*
X83132395Y-69215000D01*
X82331787Y-68414392D01*
X82089603Y-68483857D01*
X81902856Y-69007302D01*
X72667000Y-69007302D01*
X72667000Y-68629014D01*
X72965201Y-68752838D01*
X73337167Y-68753162D01*
X73680943Y-68611117D01*
X73689074Y-68603000D01*
X81026000Y-68603000D01*
X81326407Y-68543245D01*
X81581079Y-68373079D01*
X81719370Y-68234787D01*
X82511392Y-68234787D01*
X83312000Y-69035395D01*
X84112608Y-68234787D01*
X84043143Y-67992603D01*
X83519698Y-67805856D01*
X82964632Y-67833638D01*
X82580857Y-67992603D01*
X82511392Y-68234787D01*
X81719370Y-68234787D01*
X82089076Y-67865081D01*
X82089079Y-67865079D01*
X82259245Y-67610406D01*
X82319000Y-67310000D01*
X82319000Y-66733167D01*
X83519838Y-66733167D01*
X83661883Y-67076943D01*
X83924673Y-67340192D01*
X84268201Y-67482838D01*
X84640167Y-67483162D01*
X84983943Y-67341117D01*
X85042162Y-67283000D01*
X88038000Y-67283000D01*
X88038000Y-69088000D01*
X88081105Y-69304701D01*
X88093949Y-69369272D01*
X88253277Y-69607723D01*
X88380276Y-69734723D01*
X88552801Y-69850000D01*
X88618728Y-69894051D01*
X88900000Y-69950000D01*
X90284560Y-69950000D01*
X90284560Y-70802500D01*
X90303141Y-70901247D01*
X90284560Y-70993000D01*
X90284560Y-71755000D01*
X90328838Y-71990317D01*
X90467910Y-72206441D01*
X90680000Y-72351356D01*
X90680000Y-73279000D01*
X90737852Y-73569839D01*
X90902599Y-73816401D01*
X91275013Y-74188815D01*
X91274752Y-74488187D01*
X91492757Y-75015800D01*
X91896077Y-75419824D01*
X92423309Y-75638750D01*
X92994187Y-75639248D01*
X93521800Y-75421243D01*
X93925824Y-75017923D01*
X94144750Y-74490691D01*
X94145248Y-73919813D01*
X93927243Y-73392200D01*
X93523923Y-72988176D01*
X93470000Y-72965785D01*
X93470000Y-72450802D01*
X95914401Y-70006401D01*
X96079148Y-69759839D01*
X96137000Y-69469000D01*
X96137000Y-69231233D01*
X96228491Y-69172360D01*
X96373481Y-68960160D01*
X96424490Y-68708270D01*
X96424490Y-68451554D01*
X97605937Y-68451554D01*
X98082207Y-69604215D01*
X98963327Y-70486874D01*
X100115154Y-70965154D01*
X101362334Y-70966243D01*
X102514995Y-70489973D01*
X103397654Y-69608853D01*
X103875934Y-68457026D01*
X103877023Y-67209846D01*
X103400753Y-66057185D01*
X102519633Y-65174526D01*
X101367806Y-64696246D01*
X100120626Y-64695157D01*
X98967965Y-65171427D01*
X98085306Y-66052547D01*
X97607026Y-67204374D01*
X97605937Y-68451554D01*
X96424490Y-68451554D01*
X96424490Y-67908170D01*
X96380212Y-67672853D01*
X96241140Y-67456729D01*
X96055591Y-67329949D01*
X96200000Y-67185540D01*
X96200000Y-66436240D01*
X96454000Y-66436240D01*
X96454000Y-67185540D01*
X96612750Y-67344290D01*
X96853359Y-67344290D01*
X97086748Y-67247617D01*
X97265377Y-67068989D01*
X97362050Y-66835600D01*
X97362050Y-66594990D01*
X97203300Y-66436240D01*
X96454000Y-66436240D01*
X96200000Y-66436240D01*
X96180000Y-66436240D01*
X96180000Y-66182240D01*
X96200000Y-66182240D01*
X96200000Y-65432940D01*
X96454000Y-65432940D01*
X96454000Y-66182240D01*
X97203300Y-66182240D01*
X97362050Y-66023490D01*
X97362050Y-65782880D01*
X97265377Y-65549491D01*
X97086748Y-65370863D01*
X96853359Y-65274190D01*
X96612750Y-65274190D01*
X96454000Y-65432940D01*
X96200000Y-65432940D01*
X96041250Y-65274190D01*
X95800641Y-65274190D01*
X95567252Y-65370863D01*
X95388623Y-65549491D01*
X95373566Y-65585842D01*
X95291140Y-65457749D01*
X95078940Y-65312759D01*
X94827050Y-65261750D01*
X94026950Y-65261750D01*
X93791633Y-65306028D01*
X93575509Y-65445100D01*
X93486752Y-65575000D01*
X92691669Y-65575000D01*
X92681090Y-65558559D01*
X92468890Y-65413569D01*
X92217000Y-65362560D01*
X90917000Y-65362560D01*
X90681683Y-65406838D01*
X90465559Y-65545910D01*
X90320569Y-65758110D01*
X90269560Y-66010000D01*
X90269560Y-66710000D01*
X90313838Y-66945317D01*
X90452910Y-67161441D01*
X90665110Y-67306431D01*
X90678197Y-67309081D01*
X90465559Y-67445910D01*
X90320569Y-67658110D01*
X90269560Y-67910000D01*
X90269560Y-68480000D01*
X89508000Y-68480000D01*
X89508000Y-66675000D01*
X89452051Y-66393728D01*
X89429515Y-66360000D01*
X89292723Y-66155276D01*
X89165723Y-66028277D01*
X88927272Y-65868949D01*
X88646000Y-65813000D01*
X85042419Y-65813000D01*
X84985327Y-65755808D01*
X84641799Y-65613162D01*
X84269833Y-65612838D01*
X83926057Y-65754883D01*
X83662808Y-66017673D01*
X83520162Y-66361201D01*
X83519838Y-66733167D01*
X82319000Y-66733167D01*
X82319000Y-64545506D01*
X82326192Y-64538327D01*
X82468838Y-64194799D01*
X82469162Y-63822833D01*
X82397749Y-63650000D01*
X85852000Y-63650000D01*
X86152407Y-63590245D01*
X86407079Y-63420079D01*
X87677079Y-62150079D01*
X87847245Y-61895407D01*
X87907000Y-61595000D01*
X87907000Y-59975750D01*
X90407490Y-59975750D01*
X90407490Y-60616410D01*
X90504163Y-60849799D01*
X90682792Y-61028427D01*
X90916181Y-61125100D01*
X92256610Y-61125100D01*
X92415360Y-60966350D01*
X92415360Y-59817000D01*
X92669360Y-59817000D01*
X92669360Y-60966350D01*
X92828110Y-61125100D01*
X94168539Y-61125100D01*
X94401928Y-61028427D01*
X94580557Y-60849799D01*
X94677230Y-60616410D01*
X94677230Y-59975750D01*
X94518480Y-59817000D01*
X92669360Y-59817000D01*
X92415360Y-59817000D01*
X90566240Y-59817000D01*
X90407490Y-59975750D01*
X87907000Y-59975750D01*
X87907000Y-58763590D01*
X90407490Y-58763590D01*
X90407490Y-59404250D01*
X90566240Y-59563000D01*
X92415360Y-59563000D01*
X92415360Y-58413650D01*
X92669360Y-58413650D01*
X92669360Y-59563000D01*
X94518480Y-59563000D01*
X94677230Y-59404250D01*
X94677230Y-58763590D01*
X94580557Y-58530201D01*
X94401928Y-58351573D01*
X94168539Y-58254900D01*
X92828110Y-58254900D01*
X92669360Y-58413650D01*
X92415360Y-58413650D01*
X92256610Y-58254900D01*
X90916181Y-58254900D01*
X90682792Y-58351573D01*
X90504163Y-58530201D01*
X90407490Y-58763590D01*
X87907000Y-58763590D01*
X87907000Y-58066484D01*
X87951201Y-58084838D01*
X88323167Y-58085162D01*
X88626083Y-57960000D01*
X89936559Y-57960000D01*
X90237201Y-58084838D01*
X90609167Y-58085162D01*
X90952943Y-57943117D01*
X91216192Y-57680327D01*
X91358838Y-57336799D01*
X91359162Y-56964833D01*
X91217117Y-56621057D01*
X90954327Y-56357808D01*
X90610799Y-56215162D01*
X90238833Y-56214838D01*
X89935917Y-56340000D01*
X88625441Y-56340000D01*
X88324799Y-56215162D01*
X87952833Y-56214838D01*
X87907000Y-56233776D01*
X87907000Y-55245005D01*
X87907001Y-55245000D01*
X87847245Y-54944594D01*
X87677079Y-54689921D01*
X87628908Y-54641750D01*
X91059000Y-54641750D01*
X91059000Y-54990309D01*
X91155673Y-55223698D01*
X91334301Y-55402327D01*
X91567690Y-55499000D01*
X92424250Y-55499000D01*
X92583000Y-55340250D01*
X92583000Y-54483000D01*
X92837000Y-54483000D01*
X92837000Y-55340250D01*
X92995750Y-55499000D01*
X93852310Y-55499000D01*
X94085699Y-55402327D01*
X94264327Y-55223698D01*
X94361000Y-54990309D01*
X94361000Y-54641750D01*
X94202250Y-54483000D01*
X92837000Y-54483000D01*
X92583000Y-54483000D01*
X91217750Y-54483000D01*
X91059000Y-54641750D01*
X87628908Y-54641750D01*
X87042079Y-54054921D01*
X86787407Y-53884755D01*
X86487000Y-53825000D01*
X85854558Y-53825000D01*
X85671029Y-53550330D01*
X85347772Y-53334336D01*
X85470490Y-53276821D01*
X85864688Y-52844947D01*
X86036958Y-52429026D01*
X85915817Y-52197000D01*
X84709000Y-52197000D01*
X84709000Y-52217000D01*
X84455000Y-52217000D01*
X84455000Y-52197000D01*
X84435000Y-52197000D01*
X84435000Y-51943000D01*
X84455000Y-51943000D01*
X84455000Y-50735531D01*
X84709000Y-50735531D01*
X84709000Y-51943000D01*
X85915817Y-51943000D01*
X86036958Y-51710974D01*
X85864688Y-51295053D01*
X85470490Y-50863179D01*
X84941027Y-50615032D01*
X84709000Y-50735531D01*
X84455000Y-50735531D01*
X84222973Y-50615032D01*
X83693510Y-50863179D01*
X83311992Y-51281161D01*
X83131029Y-51010330D01*
X82644848Y-50685474D01*
X82071359Y-50571400D01*
X82012641Y-50571400D01*
X81439152Y-50685474D01*
X80952971Y-51010330D01*
X80628115Y-51496511D01*
X80514041Y-52070000D01*
X80628115Y-52643489D01*
X80952971Y-53129670D01*
X81267752Y-53340000D01*
X80952971Y-53550330D01*
X80769442Y-53825000D01*
X76327000Y-53825000D01*
X76026594Y-53884755D01*
X75771921Y-54054921D01*
X71981607Y-57845235D01*
X71869526Y-57281766D01*
X71544670Y-56795585D01*
X71058489Y-56470729D01*
X70485000Y-56356655D01*
X69911511Y-56470729D01*
X69425330Y-56795585D01*
X69215000Y-57110366D01*
X69004670Y-56795585D01*
X68857000Y-56696915D01*
X68857000Y-55829306D01*
X68860110Y-55831431D01*
X69112000Y-55882440D01*
X70112000Y-55882440D01*
X70347317Y-55838162D01*
X70563441Y-55699090D01*
X70609969Y-55630994D01*
X70752302Y-55773327D01*
X70985691Y-55870000D01*
X71326250Y-55870000D01*
X71485000Y-55711250D01*
X71485000Y-54737000D01*
X71739000Y-54737000D01*
X71739000Y-55711250D01*
X71897750Y-55870000D01*
X72238309Y-55870000D01*
X72471698Y-55773327D01*
X72650327Y-55594699D01*
X72747000Y-55361310D01*
X72747000Y-54895750D01*
X72588250Y-54737000D01*
X71739000Y-54737000D01*
X71485000Y-54737000D01*
X71465000Y-54737000D01*
X71465000Y-54483000D01*
X71485000Y-54483000D01*
X71485000Y-53508750D01*
X71739000Y-53508750D01*
X71739000Y-54483000D01*
X72588250Y-54483000D01*
X72747000Y-54324250D01*
X72747000Y-53858690D01*
X72650327Y-53625301D01*
X72471698Y-53446673D01*
X72238309Y-53350000D01*
X71897750Y-53350000D01*
X71739000Y-53508750D01*
X71485000Y-53508750D01*
X71333920Y-53357670D01*
X71517317Y-53323162D01*
X71733441Y-53184090D01*
X71878431Y-52971890D01*
X71885191Y-52938510D01*
X71943673Y-53079699D01*
X72122302Y-53258327D01*
X72355691Y-53355000D01*
X72546250Y-53355000D01*
X72705000Y-53196250D01*
X72705000Y-52197000D01*
X72959000Y-52197000D01*
X72959000Y-53196250D01*
X73117750Y-53355000D01*
X73308309Y-53355000D01*
X73541698Y-53258327D01*
X73720327Y-53079699D01*
X73817000Y-52846310D01*
X73817000Y-52355750D01*
X73658250Y-52197000D01*
X72959000Y-52197000D01*
X72705000Y-52197000D01*
X72685000Y-52197000D01*
X72685000Y-51943000D01*
X72705000Y-51943000D01*
X72705000Y-50943750D01*
X72959000Y-50943750D01*
X72959000Y-51943000D01*
X73658250Y-51943000D01*
X73817000Y-51784250D01*
X73817000Y-51293690D01*
X73720327Y-51060301D01*
X73541698Y-50881673D01*
X73308309Y-50785000D01*
X73117750Y-50785000D01*
X72959000Y-50943750D01*
X72705000Y-50943750D01*
X72546250Y-50785000D01*
X72355691Y-50785000D01*
X72122302Y-50881673D01*
X71943673Y-51060301D01*
X71887346Y-51196287D01*
X71885162Y-51184683D01*
X71746090Y-50968559D01*
X71533890Y-50823569D01*
X71282000Y-50772560D01*
X70582000Y-50772560D01*
X70346683Y-50816838D01*
X70130559Y-50955910D01*
X69985569Y-51168110D01*
X69978558Y-51202731D01*
X69975162Y-51184683D01*
X69836090Y-50968559D01*
X69623890Y-50823569D01*
X69372000Y-50772560D01*
X68672000Y-50772560D01*
X68436683Y-50816838D01*
X68220559Y-50955910D01*
X68075569Y-51168110D01*
X68072919Y-51181197D01*
X67936090Y-50968559D01*
X67723890Y-50823569D01*
X67472000Y-50772560D01*
X66772000Y-50772560D01*
X66536683Y-50816838D01*
X66320559Y-50955910D01*
X66175569Y-51168110D01*
X66124560Y-51420000D01*
X66124560Y-52720000D01*
X66168838Y-52955317D01*
X66307910Y-53171441D01*
X66312000Y-53174236D01*
X66312000Y-53800792D01*
X66273057Y-53816883D01*
X66009808Y-54079673D01*
X65867162Y-54423201D01*
X65866838Y-54795167D01*
X66008883Y-55138943D01*
X66271673Y-55402192D01*
X66615201Y-55544838D01*
X66987167Y-55545162D01*
X67287000Y-55421274D01*
X67287000Y-56527197D01*
X66885330Y-56795585D01*
X66560474Y-57281766D01*
X66446400Y-57855255D01*
X66446400Y-58224745D01*
X66560474Y-58798234D01*
X66885330Y-59284415D01*
X66957948Y-59332937D01*
X66675000Y-59276655D01*
X66101511Y-59390729D01*
X65615330Y-59715585D01*
X65405000Y-60030366D01*
X65194670Y-59715585D01*
X64708489Y-59390729D01*
X64135000Y-59276655D01*
X63561511Y-59390729D01*
X63075330Y-59715585D01*
X62865000Y-60030366D01*
X62654670Y-59715585D01*
X62168489Y-59390729D01*
X61595000Y-59276655D01*
X61312052Y-59332937D01*
X61384670Y-59284415D01*
X61709526Y-58798234D01*
X61823600Y-58224745D01*
X61823600Y-57855255D01*
X61709526Y-57281766D01*
X61384670Y-56795585D01*
X61110000Y-56612056D01*
X61110000Y-55316158D01*
X61138718Y-55287440D01*
X61610000Y-55287440D01*
X61845317Y-55243162D01*
X62061441Y-55104090D01*
X62206431Y-54891890D01*
X62257440Y-54640000D01*
X62257440Y-53940000D01*
X62213162Y-53704683D01*
X62074090Y-53488559D01*
X61861890Y-53343569D01*
X61848803Y-53340919D01*
X62061441Y-53204090D01*
X62206431Y-52991890D01*
X62257440Y-52740000D01*
X62257440Y-52040000D01*
X62213162Y-51804683D01*
X62074090Y-51588559D01*
X61861890Y-51443569D01*
X61770000Y-51424961D01*
X61770000Y-49324000D01*
X81026000Y-49324000D01*
X81267310Y-49276000D01*
X91046560Y-49276000D01*
X91046560Y-50292000D01*
X91090838Y-50527317D01*
X91229910Y-50743441D01*
X91442110Y-50888431D01*
X91630314Y-50926543D01*
X91458683Y-50958838D01*
X91242559Y-51097910D01*
X91097569Y-51310110D01*
X91046560Y-51562000D01*
X91046560Y-52578000D01*
X91090838Y-52813317D01*
X91229910Y-53029441D01*
X91442110Y-53174431D01*
X91632569Y-53213000D01*
X91567690Y-53213000D01*
X91334301Y-53309673D01*
X91155673Y-53488302D01*
X91059000Y-53721691D01*
X91059000Y-54070250D01*
X91217750Y-54229000D01*
X92583000Y-54229000D01*
X92583000Y-54209000D01*
X92837000Y-54209000D01*
X92837000Y-54229000D01*
X94202250Y-54229000D01*
X94361000Y-54070250D01*
X94361000Y-53721691D01*
X94264327Y-53488302D01*
X94085699Y-53309673D01*
X93852310Y-53213000D01*
X93792113Y-53213000D01*
X93961317Y-53181162D01*
X94177441Y-53042090D01*
X94305274Y-52855000D01*
X95686842Y-52855000D01*
X96156640Y-53324797D01*
X96156640Y-58242460D01*
X95441770Y-58242460D01*
X95206453Y-58286738D01*
X94990329Y-58425810D01*
X94845339Y-58638010D01*
X94794330Y-58889900D01*
X94794330Y-60490100D01*
X94838608Y-60725417D01*
X94977680Y-60941541D01*
X95189880Y-61086531D01*
X95441770Y-61137540D01*
X96156640Y-61137540D01*
X96156640Y-61889640D01*
X96216395Y-62190047D01*
X96386561Y-62444719D01*
X96981847Y-63040005D01*
X96981838Y-63050167D01*
X97123883Y-63393943D01*
X97386673Y-63657192D01*
X97730201Y-63799838D01*
X98102167Y-63800162D01*
X98445943Y-63658117D01*
X98709192Y-63395327D01*
X98851838Y-63051799D01*
X98852162Y-62679833D01*
X98710117Y-62336057D01*
X98447327Y-62072808D01*
X98103799Y-61930162D01*
X98092310Y-61930152D01*
X97726640Y-61564482D01*
X97726640Y-61137540D01*
X98441510Y-61137540D01*
X98676827Y-61093262D01*
X98892951Y-60954190D01*
X99037941Y-60741990D01*
X99088950Y-60490100D01*
X99088950Y-58889900D01*
X99044672Y-58654583D01*
X98905600Y-58438459D01*
X98693400Y-58293469D01*
X98441510Y-58242460D01*
X97726640Y-58242460D01*
X97726640Y-54183539D01*
X97833910Y-54350241D01*
X98046110Y-54495231D01*
X98298000Y-54546240D01*
X100330000Y-54546240D01*
X100565317Y-54501962D01*
X100781441Y-54362890D01*
X100926431Y-54150690D01*
X100977440Y-53898800D01*
X100977440Y-50241200D01*
X100933162Y-50005883D01*
X100794090Y-49789759D01*
X100581890Y-49644769D01*
X100330000Y-49593760D01*
X98582398Y-49593760D01*
X101427718Y-46748440D01*
X101854000Y-46748440D01*
X102089317Y-46704162D01*
X102305441Y-46565090D01*
X102450431Y-46352890D01*
X102501440Y-46101000D01*
X102501440Y-44767500D01*
X102482859Y-44668753D01*
X102501440Y-44577000D01*
X102501440Y-43815000D01*
X102457162Y-43579683D01*
X102318090Y-43363559D01*
X102156000Y-43252808D01*
X102156000Y-41656000D01*
X102109642Y-41422943D01*
X102094343Y-41346027D01*
X101918757Y-41083244D01*
X101156756Y-40321244D01*
X100893974Y-40145658D01*
X100584000Y-40084000D01*
X94467441Y-40084000D01*
X94166799Y-39959162D01*
X93794833Y-39958838D01*
X93451057Y-40100883D01*
X93187808Y-40363673D01*
X93045162Y-40707201D01*
X93044838Y-41079167D01*
X93186883Y-41422943D01*
X93449673Y-41686192D01*
X93793201Y-41828838D01*
X94165167Y-41829162D01*
X94468083Y-41704000D01*
X100248488Y-41704000D01*
X100536000Y-41991513D01*
X100536000Y-43254747D01*
X100386559Y-43350910D01*
X100241569Y-43563110D01*
X100190560Y-43815000D01*
X100190560Y-44577000D01*
X100209141Y-44675747D01*
X100190560Y-44767500D01*
X100190560Y-45765282D01*
X97751640Y-48204202D01*
X97751640Y-45897540D01*
X98441510Y-45897540D01*
X98676827Y-45853262D01*
X98892951Y-45714190D01*
X99037941Y-45501990D01*
X99088950Y-45250100D01*
X99088950Y-43649900D01*
X99044672Y-43414583D01*
X98905600Y-43198459D01*
X98693400Y-43053469D01*
X98441510Y-43002460D01*
X95441770Y-43002460D01*
X95206453Y-43046738D01*
X94990329Y-43185810D01*
X94845339Y-43398010D01*
X94794330Y-43649900D01*
X94794330Y-45250100D01*
X94838608Y-45485417D01*
X94977680Y-45701541D01*
X95189880Y-45846531D01*
X95441770Y-45897540D01*
X96131640Y-45897540D01*
X96131640Y-48264847D01*
X95514897Y-48881591D01*
X95436799Y-48849162D01*
X95064833Y-48848838D01*
X94761917Y-48974000D01*
X94286253Y-48974000D01*
X94190090Y-48824559D01*
X93977890Y-48679569D01*
X93726000Y-48628560D01*
X91694000Y-48628560D01*
X91458683Y-48672838D01*
X91242559Y-48811910D01*
X91097569Y-49024110D01*
X91046560Y-49276000D01*
X81267310Y-49276000D01*
X81335974Y-49262342D01*
X81598756Y-49086756D01*
X83122756Y-47562757D01*
X83229271Y-47403345D01*
X83298342Y-47299974D01*
X83360000Y-46990000D01*
X83360000Y-44735750D01*
X90407490Y-44735750D01*
X90407490Y-45376410D01*
X90504163Y-45609799D01*
X90682792Y-45788427D01*
X90916181Y-45885100D01*
X92256610Y-45885100D01*
X92415360Y-45726350D01*
X92415360Y-44577000D01*
X92669360Y-44577000D01*
X92669360Y-45726350D01*
X92828110Y-45885100D01*
X94168539Y-45885100D01*
X94401928Y-45788427D01*
X94580557Y-45609799D01*
X94677230Y-45376410D01*
X94677230Y-44735750D01*
X94518480Y-44577000D01*
X92669360Y-44577000D01*
X92415360Y-44577000D01*
X90566240Y-44577000D01*
X90407490Y-44735750D01*
X83360000Y-44735750D01*
X83360000Y-43523590D01*
X90407490Y-43523590D01*
X90407490Y-44164250D01*
X90566240Y-44323000D01*
X92415360Y-44323000D01*
X92415360Y-43173650D01*
X92669360Y-43173650D01*
X92669360Y-44323000D01*
X94518480Y-44323000D01*
X94677230Y-44164250D01*
X94677230Y-43523590D01*
X94580557Y-43290201D01*
X94401928Y-43111573D01*
X94168539Y-43014900D01*
X92828110Y-43014900D01*
X92669360Y-43173650D01*
X92415360Y-43173650D01*
X92256610Y-43014900D01*
X90916181Y-43014900D01*
X90682792Y-43111573D01*
X90504163Y-43290201D01*
X90407490Y-43523590D01*
X83360000Y-43523590D01*
X83360000Y-40942000D01*
X89834488Y-40942000D01*
X90014571Y-41122083D01*
X90138883Y-41422943D01*
X90401673Y-41686192D01*
X90745201Y-41828838D01*
X91117167Y-41829162D01*
X91460943Y-41687117D01*
X91724192Y-41424327D01*
X91866838Y-41080799D01*
X91867162Y-40708833D01*
X91725117Y-40365057D01*
X91462327Y-40101808D01*
X91159629Y-39976116D01*
X90742756Y-39559244D01*
X90594594Y-39460245D01*
X90479974Y-39383658D01*
X90170000Y-39322000D01*
X78538253Y-39322000D01*
X78442090Y-39172559D01*
X78229890Y-39027569D01*
X77978000Y-38976560D01*
X77216000Y-38976560D01*
X77117253Y-38995141D01*
X77025500Y-38976560D01*
X75692000Y-38976560D01*
X75456683Y-39020838D01*
X75240559Y-39159910D01*
X75182200Y-39245321D01*
X75147245Y-39069594D01*
X74977079Y-38814921D01*
X74342079Y-38179921D01*
X74087407Y-38009755D01*
X73787000Y-37950000D01*
X70699434Y-37950000D01*
X70711554Y-37934752D01*
X70877000Y-37357000D01*
X70877000Y-36957000D01*
X69469000Y-36957000D01*
X69469000Y-36977000D01*
X69215000Y-36977000D01*
X69215000Y-36957000D01*
X69195000Y-36957000D01*
X69195000Y-36703000D01*
X69215000Y-36703000D01*
X69215000Y-35059622D01*
X69469000Y-35059622D01*
X69469000Y-36703000D01*
X70877000Y-36703000D01*
X70877000Y-36303000D01*
X70711554Y-35725248D01*
X70337606Y-35254788D01*
X69812086Y-34963244D01*
X69706740Y-34938964D01*
X69469000Y-35059622D01*
X69215000Y-35059622D01*
X68977260Y-34938964D01*
X68871914Y-34963244D01*
X68346394Y-35254788D01*
X68078192Y-35592210D01*
X67887409Y-35306682D01*
X67389419Y-34973936D01*
X66802000Y-34857091D01*
X66214581Y-34973936D01*
X65716591Y-35306682D01*
X65532000Y-35582942D01*
X65347409Y-35306682D01*
X64849419Y-34973936D01*
X64262000Y-34857091D01*
X63674581Y-34973936D01*
X63176591Y-35306682D01*
X62992000Y-35582942D01*
X62807409Y-35306682D01*
X62309419Y-34973936D01*
X61722000Y-34857091D01*
X61134581Y-34973936D01*
X60636591Y-35306682D01*
X60452000Y-35582942D01*
X60267409Y-35306682D01*
X59769419Y-34973936D01*
X59182000Y-34857091D01*
X58594581Y-34973936D01*
X58096591Y-35306682D01*
X57912000Y-35582942D01*
X57727409Y-35306682D01*
X57229419Y-34973936D01*
X56642000Y-34857091D01*
X56054581Y-34973936D01*
X55556591Y-35306682D01*
X55223845Y-35804672D01*
X55107000Y-36392091D01*
X55107000Y-37267909D01*
X55223845Y-37855328D01*
X55556591Y-38353318D01*
X56054581Y-38686064D01*
X56642000Y-38802909D01*
X57229419Y-38686064D01*
X57727409Y-38353318D01*
X57912000Y-38077058D01*
X58096591Y-38353318D01*
X58594581Y-38686064D01*
X59182000Y-38802909D01*
X59769419Y-38686064D01*
X60267409Y-38353318D01*
X60452000Y-38077058D01*
X60636591Y-38353318D01*
X61134581Y-38686064D01*
X61722000Y-38802909D01*
X62309419Y-38686064D01*
X62807409Y-38353318D01*
X62992000Y-38077058D01*
X63176591Y-38353318D01*
X63674581Y-38686064D01*
X64262000Y-38802909D01*
X64451965Y-38765123D01*
X64976921Y-39290079D01*
X65231593Y-39460245D01*
X65532000Y-39520000D01*
X73461842Y-39520000D01*
X73637000Y-39695158D01*
X73637000Y-44207197D01*
X73235330Y-44475585D01*
X73025000Y-44790366D01*
X72814670Y-44475585D01*
X72328489Y-44150729D01*
X71755000Y-44036655D01*
X71181511Y-44150729D01*
X70695330Y-44475585D01*
X70485000Y-44790366D01*
X70274670Y-44475585D01*
X69788489Y-44150729D01*
X69215000Y-44036655D01*
X68641511Y-44150729D01*
X68155330Y-44475585D01*
X67945000Y-44790366D01*
X67734670Y-44475585D01*
X67248489Y-44150729D01*
X66675000Y-44036655D01*
X66101511Y-44150729D01*
X65615330Y-44475585D01*
X65405000Y-44790366D01*
X65194670Y-44475585D01*
X64708489Y-44150729D01*
X64135000Y-44036655D01*
X63561511Y-44150729D01*
X63075330Y-44475585D01*
X62865000Y-44790366D01*
X62654670Y-44475585D01*
X62168489Y-44150729D01*
X61595000Y-44036655D01*
X61021511Y-44150729D01*
X60535330Y-44475585D01*
X60325000Y-44790366D01*
X60114670Y-44475585D01*
X59628489Y-44150729D01*
X59055000Y-44036655D01*
X58481511Y-44150729D01*
X57995330Y-44475585D01*
X57788539Y-44785069D01*
X57417036Y-44369268D01*
X56889791Y-44115291D01*
X56874026Y-44112642D01*
X56642000Y-44233783D01*
X56642000Y-45593000D01*
X56662000Y-45593000D01*
X56662000Y-45847000D01*
X56642000Y-45847000D01*
X56642000Y-47206217D01*
X56874026Y-47327358D01*
X56889791Y-47324709D01*
X57417036Y-47070732D01*
X57788539Y-46654931D01*
X57995330Y-46964415D01*
X58481511Y-47289271D01*
X59055000Y-47403345D01*
X59628489Y-47289271D01*
X60114670Y-46964415D01*
X60325000Y-46649634D01*
X60535330Y-46964415D01*
X61021511Y-47289271D01*
X61595000Y-47403345D01*
X62168489Y-47289271D01*
X62654670Y-46964415D01*
X62865000Y-46649634D01*
X63075330Y-46964415D01*
X63561511Y-47289271D01*
X64135000Y-47403345D01*
X64708489Y-47289271D01*
X65194670Y-46964415D01*
X65405000Y-46649634D01*
X65615330Y-46964415D01*
X66101511Y-47289271D01*
X66675000Y-47403345D01*
X67248489Y-47289271D01*
X67734670Y-46964415D01*
X67945000Y-46649634D01*
X68155330Y-46964415D01*
X68641511Y-47289271D01*
X69215000Y-47403345D01*
X69788489Y-47289271D01*
X70274670Y-46964415D01*
X70485000Y-46649634D01*
X70695330Y-46964415D01*
X71181511Y-47289271D01*
X71755000Y-47403345D01*
X72328489Y-47289271D01*
X72814670Y-46964415D01*
X73025000Y-46649634D01*
X73235330Y-46964415D01*
X73721511Y-47289271D01*
X74295000Y-47403345D01*
X74868489Y-47289271D01*
X75354670Y-46964415D01*
X75565000Y-46649634D01*
X75775330Y-46964415D01*
X76261511Y-47289271D01*
X76835000Y-47403345D01*
X77408489Y-47289271D01*
X77894670Y-46964415D01*
X78219526Y-46478234D01*
X78333600Y-45904745D01*
X78333600Y-45535255D01*
X78219526Y-44961766D01*
X77894670Y-44475585D01*
X77408489Y-44150729D01*
X76880910Y-44045787D01*
X76881162Y-43756833D01*
X76739117Y-43413057D01*
X76731000Y-43404926D01*
X76731000Y-41287440D01*
X77025500Y-41287440D01*
X77124247Y-41268859D01*
X77216000Y-41287440D01*
X77978000Y-41287440D01*
X78213317Y-41243162D01*
X78429441Y-41104090D01*
X78540192Y-40942000D01*
X81452488Y-40942000D01*
X81740000Y-41229513D01*
X81740000Y-46654487D01*
X80690488Y-47704000D01*
X61214000Y-47704000D01*
X60904026Y-47765658D01*
X60852630Y-47800000D01*
X60641243Y-47941244D01*
X60387244Y-48195244D01*
X60211658Y-48458026D01*
X60150000Y-48768000D01*
X60150000Y-51422666D01*
X60074683Y-51436838D01*
X59858559Y-51575910D01*
X59855764Y-51580000D01*
X58886563Y-51580000D01*
X58686890Y-51443569D01*
X58595000Y-51424961D01*
X58595000Y-49911000D01*
X58533342Y-49601026D01*
X58385657Y-49380000D01*
X58357756Y-49338243D01*
X57976756Y-48957244D01*
X57815000Y-48849162D01*
X57713974Y-48781658D01*
X57404000Y-48720000D01*
X53319441Y-48720000D01*
X53018799Y-48595162D01*
X52646833Y-48594838D01*
X52303057Y-48736883D01*
X52039808Y-48999673D01*
X51897162Y-49343201D01*
X51896838Y-49715167D01*
X52038883Y-50058943D01*
X52301673Y-50322192D01*
X52645201Y-50464838D01*
X53017167Y-50465162D01*
X53320083Y-50340000D01*
X54704943Y-50340000D01*
X54589057Y-50387883D01*
X54325808Y-50650673D01*
X54183162Y-50994201D01*
X54183152Y-51005690D01*
X53037885Y-52150957D01*
X52900833Y-52150838D01*
X52557057Y-52292883D01*
X52293808Y-52555673D01*
X52151162Y-52899201D01*
X52150838Y-53271167D01*
X52292883Y-53614943D01*
X52555673Y-53878192D01*
X52899201Y-54020838D01*
X53271167Y-54021162D01*
X53614943Y-53879117D01*
X53878192Y-53616327D01*
X53938807Y-53470351D01*
X55293005Y-52116153D01*
X55303167Y-52116162D01*
X55646943Y-51974117D01*
X55910192Y-51711327D01*
X56052838Y-51367799D01*
X56053162Y-50995833D01*
X55911117Y-50652057D01*
X55648327Y-50388808D01*
X55530785Y-50340000D01*
X56975000Y-50340000D01*
X56975000Y-51422666D01*
X56899683Y-51436838D01*
X56683559Y-51575910D01*
X56680764Y-51580000D01*
X56576000Y-51580000D01*
X56266026Y-51641658D01*
X56139635Y-51726110D01*
X56003243Y-51817244D01*
X55815246Y-52005242D01*
X55815243Y-52005244D01*
X55561244Y-52259244D01*
X55385658Y-52522026D01*
X55324000Y-52832000D01*
X55324000Y-54944957D01*
X55186833Y-54944838D01*
X54883917Y-55070000D01*
X53319441Y-55070000D01*
X53018799Y-54945162D01*
X52646833Y-54944838D01*
X52303057Y-55086883D01*
X52039808Y-55349673D01*
X51897162Y-55693201D01*
X51896838Y-56065167D01*
X52038883Y-56408943D01*
X52301673Y-56672192D01*
X52645201Y-56814838D01*
X53017167Y-56815162D01*
X53320083Y-56690000D01*
X54884559Y-56690000D01*
X55185201Y-56814838D01*
X55340117Y-56814973D01*
X55324000Y-56896000D01*
X55324000Y-59912134D01*
X55245000Y-60030366D01*
X55034670Y-59715585D01*
X54548489Y-59390729D01*
X53975000Y-59276655D01*
X53401511Y-59390729D01*
X52915330Y-59715585D01*
X52708539Y-60025069D01*
X52337036Y-59609268D01*
X51809791Y-59355291D01*
X51794026Y-59352642D01*
X51562000Y-59473783D01*
X51562000Y-60833000D01*
X51582000Y-60833000D01*
X51582000Y-61087000D01*
X51562000Y-61087000D01*
X51562000Y-62446217D01*
X51794026Y-62567358D01*
X51809791Y-62564709D01*
X52337036Y-62310732D01*
X52708539Y-61894931D01*
X52915330Y-62204415D01*
X53401511Y-62529271D01*
X53975000Y-62643345D01*
X54548489Y-62529271D01*
X55034670Y-62204415D01*
X55245000Y-61889634D01*
X55455330Y-62204415D01*
X55941511Y-62529271D01*
X56515000Y-62643345D01*
X57088489Y-62529271D01*
X57574670Y-62204415D01*
X57785000Y-61889634D01*
X57995330Y-62204415D01*
X58270000Y-62387944D01*
X58270000Y-64008000D01*
X58329755Y-64308406D01*
X58499921Y-64563079D01*
X58754594Y-64733245D01*
X59055000Y-64793000D01*
X60549494Y-64793000D01*
X60556673Y-64800192D01*
X60900201Y-64942838D01*
X61272167Y-64943162D01*
X61427020Y-64879178D01*
X61184599Y-65121599D01*
X61019852Y-65368161D01*
X60962000Y-65659000D01*
X60962000Y-66844573D01*
X60762559Y-66972910D01*
X60721501Y-67033000D01*
X49530000Y-67033000D01*
X49229593Y-67092755D01*
X48974921Y-67262921D01*
X47068995Y-69168847D01*
X47058833Y-69168838D01*
X46715057Y-69310883D01*
X46451808Y-69573673D01*
X46309162Y-69917201D01*
X46308838Y-70289167D01*
X46450883Y-70632943D01*
X46472902Y-70655000D01*
X44079158Y-70655000D01*
X43838000Y-70413842D01*
X43838000Y-70149910D01*
X44127167Y-70150162D01*
X44430083Y-70025000D01*
X45339000Y-70025000D01*
X45648974Y-69963342D01*
X45911756Y-69787756D01*
X49467756Y-66231757D01*
X49587500Y-66052547D01*
X49643342Y-65968974D01*
X49705000Y-65659000D01*
X49705000Y-62371239D01*
X49954670Y-62204415D01*
X50161461Y-61894931D01*
X50532964Y-62310732D01*
X51060209Y-62564709D01*
X51075974Y-62567358D01*
X51308000Y-62446217D01*
X51308000Y-61087000D01*
X51288000Y-61087000D01*
X51288000Y-60833000D01*
X51308000Y-60833000D01*
X51308000Y-59473783D01*
X51075974Y-59352642D01*
X51060209Y-59355291D01*
X50532964Y-59609268D01*
X50161461Y-60025069D01*
X49954670Y-59715585D01*
X49832000Y-59633619D01*
X49832000Y-57002441D01*
X49956838Y-56701799D01*
X49957162Y-56329833D01*
X49815117Y-55986057D01*
X49552327Y-55722808D01*
X49208799Y-55580162D01*
X48836833Y-55579838D01*
X48493057Y-55721883D01*
X48229808Y-55984673D01*
X48087162Y-56328201D01*
X48086838Y-56700167D01*
X48212000Y-57003083D01*
X48212000Y-59463902D01*
X48082763Y-59550255D01*
X47950027Y-59576658D01*
X47687244Y-59752244D01*
X47648000Y-59810977D01*
X47648000Y-54935158D01*
X48712157Y-53871000D01*
X49500494Y-53871000D01*
X49507673Y-53878192D01*
X49851201Y-54020838D01*
X50223167Y-54021162D01*
X50566943Y-53879117D01*
X50830192Y-53616327D01*
X50972838Y-53272799D01*
X50973162Y-52900833D01*
X50831117Y-52557057D01*
X50568327Y-52293808D01*
X50224799Y-52151162D01*
X49852833Y-52150838D01*
X49509057Y-52292883D01*
X49500926Y-52301000D01*
X48387000Y-52301000D01*
X48086594Y-52360755D01*
X47831921Y-52530921D01*
X47831919Y-52530924D01*
X46307921Y-54054921D01*
X46137755Y-54309593D01*
X46137755Y-54309594D01*
X46078000Y-54610000D01*
X46078000Y-60253842D01*
X45648842Y-60683000D01*
X44577000Y-60683000D01*
X44276594Y-60742755D01*
X44021921Y-60912921D01*
X44021919Y-60912924D01*
X43203000Y-61731842D01*
X43203000Y-47273506D01*
X43210192Y-47266327D01*
X43352838Y-46922799D01*
X43353162Y-46550833D01*
X43211117Y-46207057D01*
X42948327Y-45943808D01*
X42604799Y-45801162D01*
X42232833Y-45800838D01*
X41889057Y-45942883D01*
X41625808Y-46205673D01*
X41483162Y-46549201D01*
X41482838Y-46921167D01*
X41624883Y-47264943D01*
X41633000Y-47273074D01*
X41633000Y-48618000D01*
X38891506Y-48618000D01*
X38884327Y-48610808D01*
X38540799Y-48468162D01*
X38168833Y-48467838D01*
X37825057Y-48609883D01*
X37561808Y-48872673D01*
X37419162Y-49216201D01*
X37418838Y-49588167D01*
X37560883Y-49931943D01*
X37823673Y-50195192D01*
X38078116Y-50300847D01*
X37973000Y-50279560D01*
X37129901Y-50279560D01*
X37130106Y-50044219D01*
X37241192Y-49933327D01*
X37383838Y-49589799D01*
X37384162Y-49217833D01*
X37242117Y-48874057D01*
X36979327Y-48610808D01*
X36635799Y-48468162D01*
X36263833Y-48467838D01*
X35920057Y-48609883D01*
X35911926Y-48618000D01*
X33043000Y-48618000D01*
X33043000Y-46959676D01*
X33175303Y-46905010D01*
X33568629Y-46512370D01*
X33654949Y-46304488D01*
X33739990Y-46510303D01*
X34132630Y-46903629D01*
X34645900Y-47116757D01*
X35201661Y-47117242D01*
X35715303Y-46905010D01*
X35920457Y-46700213D01*
X36664392Y-46700213D01*
X36733857Y-46942397D01*
X37257302Y-47129144D01*
X37812368Y-47101362D01*
X38196143Y-46942397D01*
X38265608Y-46700213D01*
X37465000Y-45899605D01*
X36664392Y-46700213D01*
X35920457Y-46700213D01*
X36108629Y-46512370D01*
X36188395Y-46320273D01*
X36242603Y-46451143D01*
X36484787Y-46520608D01*
X37285395Y-45720000D01*
X36484787Y-44919392D01*
X36242603Y-44988857D01*
X36192491Y-45129318D01*
X36110010Y-44929697D01*
X35920432Y-44739787D01*
X36664392Y-44739787D01*
X37465000Y-45540395D01*
X38265608Y-44739787D01*
X38196143Y-44497603D01*
X37672698Y-44310856D01*
X37117632Y-44338638D01*
X36733857Y-44497603D01*
X36664392Y-44739787D01*
X35920432Y-44739787D01*
X35717370Y-44536371D01*
X35204100Y-44323243D01*
X34648339Y-44322758D01*
X34134697Y-44534990D01*
X33741371Y-44927630D01*
X33655051Y-45135512D01*
X33570010Y-44929697D01*
X33177370Y-44536371D01*
X32664100Y-44323243D01*
X32108339Y-44322758D01*
X31594697Y-44534990D01*
X31201371Y-44927630D01*
X30988243Y-45440900D01*
X30987758Y-45996661D01*
X31199990Y-46510303D01*
X31473000Y-46783790D01*
X31473000Y-49022000D01*
X31532755Y-49322407D01*
X31681947Y-49545689D01*
X31592808Y-49634673D01*
X31450162Y-49978201D01*
X31449838Y-50350167D01*
X31481538Y-50426888D01*
X31425559Y-50462910D01*
X31280569Y-50675110D01*
X31229560Y-50927000D01*
X31229560Y-52260500D01*
X31248141Y-52359247D01*
X31229560Y-52451000D01*
X31229560Y-53213000D01*
X31273838Y-53448317D01*
X31412910Y-53664441D01*
X31625000Y-53809356D01*
X31625000Y-55638960D01*
X31521400Y-55638960D01*
X31286083Y-55683238D01*
X31069959Y-55822310D01*
X30924969Y-56034510D01*
X30873960Y-56286400D01*
X30873960Y-58013600D01*
X30918238Y-58248917D01*
X31057310Y-58465041D01*
X31269510Y-58610031D01*
X31366451Y-58629662D01*
X31178179Y-58801510D01*
X30930032Y-59330973D01*
X31050531Y-59563000D01*
X32258000Y-59563000D01*
X32258000Y-59543000D01*
X32512000Y-59543000D01*
X32512000Y-59563000D01*
X32532000Y-59563000D01*
X32532000Y-59817000D01*
X32512000Y-59817000D01*
X32512000Y-61023817D01*
X32681753Y-61112445D01*
X32084638Y-61709560D01*
X31877000Y-61709560D01*
X31641683Y-61753838D01*
X31425559Y-61892910D01*
X31280569Y-62105110D01*
X31229560Y-62357000D01*
X31229560Y-63119000D01*
X31248141Y-63217747D01*
X31229560Y-63309500D01*
X31229560Y-63452000D01*
X30734000Y-63452000D01*
X30424026Y-63513658D01*
X30339045Y-63570441D01*
X30161243Y-63689244D01*
X29907244Y-63943244D01*
X29731658Y-64206026D01*
X29670000Y-64516000D01*
X29670000Y-65151000D01*
X29731658Y-65460974D01*
X29863975Y-65659000D01*
X29907244Y-65723756D01*
X29975775Y-65792287D01*
X29985658Y-65841974D01*
X30070517Y-65968974D01*
X30161244Y-66104756D01*
X31177244Y-67120757D01*
X31310576Y-67209846D01*
X31440026Y-67296342D01*
X31750000Y-67358000D01*
X32684488Y-67358000D01*
X32864571Y-67538083D01*
X32988883Y-67838943D01*
X33251673Y-68102192D01*
X33595201Y-68244838D01*
X33967167Y-68245162D01*
X34310943Y-68103117D01*
X34574192Y-67840327D01*
X34716838Y-67496799D01*
X34717162Y-67124833D01*
X34575117Y-66781057D01*
X34312327Y-66517808D01*
X34009629Y-66392116D01*
X33592756Y-65975244D01*
X33530945Y-65933943D01*
X33329974Y-65799658D01*
X33020000Y-65738000D01*
X32085513Y-65738000D01*
X31504607Y-65157095D01*
X31625110Y-65239431D01*
X31877000Y-65290440D01*
X32893000Y-65290440D01*
X33128317Y-65246162D01*
X33344441Y-65107090D01*
X33489431Y-64894890D01*
X33540440Y-64643000D01*
X33540440Y-63309500D01*
X33521859Y-63210753D01*
X33540440Y-63119000D01*
X33540440Y-62403362D01*
X33815967Y-62127835D01*
X33769560Y-62357000D01*
X33769560Y-63690500D01*
X33782000Y-63756613D01*
X33782000Y-63976250D01*
X33940750Y-64135000D01*
X33948444Y-64135000D01*
X33952910Y-64141941D01*
X34165110Y-64286931D01*
X34169026Y-64287724D01*
X34163000Y-64293750D01*
X34163000Y-64389000D01*
X33940750Y-64389000D01*
X33782000Y-64547750D01*
X33782000Y-64769309D01*
X33878673Y-65002698D01*
X34057301Y-65181327D01*
X34290690Y-65278000D01*
X34639250Y-65278000D01*
X34674250Y-65243000D01*
X34702750Y-65243000D01*
X34861500Y-65084250D01*
X34861500Y-64302095D01*
X34906317Y-64293662D01*
X34922099Y-64283507D01*
X34927110Y-64286931D01*
X34988500Y-64299363D01*
X34988500Y-65084250D01*
X35147250Y-65243000D01*
X35175750Y-65243000D01*
X35210750Y-65278000D01*
X35559310Y-65278000D01*
X35792699Y-65181327D01*
X35971327Y-65002698D01*
X36068000Y-64769309D01*
X36068000Y-64547750D01*
X35909250Y-64389000D01*
X35687000Y-64389000D01*
X35687000Y-64293750D01*
X35679631Y-64286381D01*
X35884441Y-64154590D01*
X35897826Y-64135000D01*
X35909250Y-64135000D01*
X36068000Y-63976250D01*
X36068000Y-63754691D01*
X36067625Y-63753785D01*
X36080440Y-63690500D01*
X36080440Y-63498000D01*
X36309560Y-63498000D01*
X36309560Y-64643000D01*
X36353838Y-64878317D01*
X36492910Y-65094441D01*
X36561961Y-65141621D01*
X36530162Y-65218201D01*
X36529838Y-65590167D01*
X36671883Y-65933943D01*
X36934673Y-66197192D01*
X37278201Y-66339838D01*
X37650167Y-66340162D01*
X37993943Y-66198117D01*
X38257192Y-65935327D01*
X38399838Y-65591799D01*
X38400162Y-65219833D01*
X38368462Y-65143112D01*
X38424441Y-65107090D01*
X38569431Y-64894890D01*
X38620440Y-64643000D01*
X38620440Y-63309500D01*
X38601859Y-63210753D01*
X38620440Y-63119000D01*
X38620440Y-62357000D01*
X38576162Y-62121683D01*
X38437090Y-61905559D01*
X38225000Y-61760644D01*
X38225000Y-60979262D01*
X38524670Y-60779029D01*
X38735000Y-60464248D01*
X38945330Y-60779029D01*
X39245000Y-60979262D01*
X39245000Y-61764573D01*
X39045559Y-61892910D01*
X38900569Y-62105110D01*
X38849560Y-62357000D01*
X38849560Y-63119000D01*
X38868141Y-63217747D01*
X38849560Y-63309500D01*
X38849560Y-64643000D01*
X38893838Y-64878317D01*
X39032910Y-65094441D01*
X39143041Y-65169690D01*
X39070162Y-65345201D01*
X39069838Y-65717167D01*
X39211883Y-66060943D01*
X39474673Y-66324192D01*
X39818201Y-66466838D01*
X40190167Y-66467162D01*
X40533943Y-66325117D01*
X40797192Y-66062327D01*
X40939838Y-65718799D01*
X40940162Y-65346833D01*
X40867008Y-65169786D01*
X40964441Y-65107090D01*
X41005499Y-65047000D01*
X42037000Y-65047000D01*
X42268000Y-65001051D01*
X42268000Y-70739000D01*
X42327755Y-71039407D01*
X42497921Y-71294079D01*
X43037842Y-71834000D01*
X36911513Y-71834000D01*
X36751000Y-71673488D01*
X36751000Y-67924441D01*
X36875838Y-67623799D01*
X36876162Y-67251833D01*
X36734117Y-66908057D01*
X36471327Y-66644808D01*
X36127799Y-66502162D01*
X35755833Y-66501838D01*
X35412057Y-66643883D01*
X35148808Y-66906673D01*
X35006162Y-67250201D01*
X35005838Y-67622167D01*
X35131000Y-67925083D01*
X35131000Y-72009000D01*
X35192658Y-72318974D01*
X35343887Y-72545303D01*
X35368244Y-72581756D01*
X36003244Y-73216757D01*
X36266027Y-73392343D01*
X36576000Y-73454000D01*
X45164000Y-73454000D01*
X45164000Y-76902606D01*
X44890799Y-76789162D01*
X44518833Y-76788838D01*
X44175057Y-76930883D01*
X43911808Y-77193673D01*
X43769162Y-77537201D01*
X43768838Y-77909167D01*
X43894000Y-78212083D01*
X43894000Y-88392000D01*
X43955658Y-88701974D01*
X44044707Y-88835244D01*
X44131244Y-88964756D01*
X44626488Y-89460000D01*
X28710631Y-89460000D01*
X29241806Y-88929751D01*
X29796368Y-87594218D01*
X29797630Y-86148126D01*
X29657957Y-85810090D01*
X33174940Y-85810090D01*
X33174940Y-87400709D01*
X33271613Y-87634098D01*
X33450241Y-87812727D01*
X33683630Y-87909400D01*
X35274250Y-87909400D01*
X35433000Y-87750650D01*
X35433000Y-85651340D01*
X35687000Y-85651340D01*
X35687000Y-87750650D01*
X35845750Y-87909400D01*
X37436370Y-87909400D01*
X37669759Y-87812727D01*
X37848387Y-87634098D01*
X37945060Y-87400709D01*
X37945060Y-85810090D01*
X37786310Y-85651340D01*
X35687000Y-85651340D01*
X35433000Y-85651340D01*
X33333690Y-85651340D01*
X33174940Y-85810090D01*
X29657957Y-85810090D01*
X29245400Y-84811628D01*
X28223751Y-83788194D01*
X27886057Y-83647971D01*
X33174940Y-83647971D01*
X33174940Y-85238590D01*
X33333690Y-85397340D01*
X35433000Y-85397340D01*
X35433000Y-83298030D01*
X35687000Y-83298030D01*
X35687000Y-85397340D01*
X37786310Y-85397340D01*
X37945060Y-85238590D01*
X37945060Y-84572668D01*
X37970613Y-84634358D01*
X38149241Y-84812987D01*
X38382630Y-84909660D01*
X39973250Y-84909660D01*
X40132000Y-84750910D01*
X40132000Y-82651600D01*
X40386000Y-82651600D01*
X40386000Y-84750910D01*
X40544750Y-84909660D01*
X42135370Y-84909660D01*
X42368759Y-84812987D01*
X42547387Y-84634358D01*
X42644060Y-84400969D01*
X42644060Y-82810350D01*
X42485310Y-82651600D01*
X40386000Y-82651600D01*
X40132000Y-82651600D01*
X38032690Y-82651600D01*
X37873940Y-82810350D01*
X37873940Y-83476272D01*
X37848387Y-83414582D01*
X37669759Y-83235953D01*
X37436370Y-83139280D01*
X35845750Y-83139280D01*
X35687000Y-83298030D01*
X35433000Y-83298030D01*
X35274250Y-83139280D01*
X33683630Y-83139280D01*
X33450241Y-83235953D01*
X33271613Y-83414582D01*
X33174940Y-83647971D01*
X27886057Y-83647971D01*
X26888218Y-83233632D01*
X25442126Y-83232370D01*
X24105628Y-83784600D01*
X23082194Y-84806249D01*
X23062000Y-84854882D01*
X23062000Y-78613000D01*
X23716655Y-78613000D01*
X23842330Y-79244810D01*
X24200222Y-79780433D01*
X24735845Y-80138325D01*
X25367655Y-80264000D01*
X25432345Y-80264000D01*
X26064155Y-80138325D01*
X26599778Y-79780433D01*
X26957670Y-79244810D01*
X26972750Y-79169000D01*
X27969470Y-79169000D01*
X27983910Y-79191441D01*
X28196110Y-79336431D01*
X28448000Y-79387440D01*
X29464000Y-79387440D01*
X29699317Y-79343162D01*
X29915441Y-79204090D01*
X29939417Y-79169000D01*
X33162500Y-79169000D01*
X33162500Y-81274920D01*
X33206778Y-81510237D01*
X33345850Y-81726361D01*
X33558050Y-81871351D01*
X33809940Y-81922360D01*
X37310060Y-81922360D01*
X37545377Y-81878082D01*
X37761501Y-81739010D01*
X37873940Y-81574450D01*
X37873940Y-82238850D01*
X38032690Y-82397600D01*
X40132000Y-82397600D01*
X40132000Y-80298290D01*
X40386000Y-80298290D01*
X40386000Y-82397600D01*
X42485310Y-82397600D01*
X42644060Y-82238850D01*
X42644060Y-80648231D01*
X42547387Y-80414842D01*
X42368759Y-80236213D01*
X42135370Y-80139540D01*
X40544750Y-80139540D01*
X40386000Y-80298290D01*
X40132000Y-80298290D01*
X39973250Y-80139540D01*
X38382630Y-80139540D01*
X38149241Y-80236213D01*
X37970613Y-80414842D01*
X37957500Y-80446500D01*
X37957500Y-77774800D01*
X37913222Y-77539483D01*
X37774150Y-77323359D01*
X37561950Y-77178369D01*
X37310060Y-77127360D01*
X33809940Y-77127360D01*
X33574623Y-77171638D01*
X33358499Y-77310710D01*
X33213509Y-77522910D01*
X33208226Y-77549000D01*
X30111440Y-77549000D01*
X30111440Y-77406500D01*
X30092859Y-77307753D01*
X30111440Y-77216000D01*
X30111440Y-76454000D01*
X30067162Y-76218683D01*
X29928090Y-76002559D01*
X29766000Y-75891808D01*
X29766000Y-70947512D01*
X30688513Y-70025000D01*
X33675559Y-70025000D01*
X33976201Y-70149838D01*
X34348167Y-70150162D01*
X34691943Y-70008117D01*
X34955192Y-69745327D01*
X35097838Y-69401799D01*
X35098162Y-69029833D01*
X34956117Y-68686057D01*
X34693327Y-68422808D01*
X34349799Y-68280162D01*
X33977833Y-68279838D01*
X33674917Y-68405000D01*
X30353000Y-68405000D01*
X30043026Y-68466658D01*
X29962973Y-68520148D01*
X29780243Y-68642244D01*
X28383244Y-70039244D01*
X28207658Y-70302026D01*
X28146000Y-70612000D01*
X28146000Y-75263000D01*
X27063440Y-75263000D01*
X27063440Y-75057000D01*
X27019162Y-74821683D01*
X26880090Y-74605559D01*
X26667890Y-74460569D01*
X26416000Y-74409560D01*
X24384000Y-74409560D01*
X24148683Y-74453838D01*
X23932559Y-74592910D01*
X23787569Y-74805110D01*
X23736560Y-75057000D01*
X23736560Y-77089000D01*
X23780838Y-77324317D01*
X23919910Y-77540441D01*
X24068837Y-77642198D01*
X23842330Y-77981190D01*
X23716655Y-78613000D01*
X23062000Y-78613000D01*
X23062000Y-69551874D01*
X23083627Y-69604215D01*
X23964747Y-70486874D01*
X25116574Y-70965154D01*
X26363754Y-70966243D01*
X27516415Y-70489973D01*
X28399074Y-69608853D01*
X28877354Y-68457026D01*
X28878443Y-67209846D01*
X28402173Y-66057185D01*
X27521053Y-65174526D01*
X26369226Y-64696246D01*
X25122046Y-64695157D01*
X23969385Y-65171427D01*
X23086726Y-66052547D01*
X23062000Y-66112094D01*
X23062000Y-60049027D01*
X30930032Y-60049027D01*
X31178179Y-60578490D01*
X31610053Y-60972688D01*
X32025974Y-61144958D01*
X32258000Y-61023817D01*
X32258000Y-59817000D01*
X31050531Y-59817000D01*
X30930032Y-60049027D01*
X23062000Y-60049027D01*
X23062000Y-38551174D01*
X23083627Y-38603515D01*
X23964747Y-39486174D01*
X25116574Y-39964454D01*
X26363754Y-39965543D01*
X27516415Y-39489273D01*
X28399074Y-38608153D01*
X28877354Y-37456326D01*
X28877789Y-36957000D01*
X29707000Y-36957000D01*
X29707000Y-37357000D01*
X29872446Y-37934752D01*
X30246394Y-38405212D01*
X30771914Y-38696756D01*
X30877260Y-38721036D01*
X31115000Y-38600378D01*
X31115000Y-36957000D01*
X29707000Y-36957000D01*
X28877789Y-36957000D01*
X28878360Y-36303000D01*
X29707000Y-36303000D01*
X29707000Y-36703000D01*
X31115000Y-36703000D01*
X31115000Y-35059622D01*
X31369000Y-35059622D01*
X31369000Y-36703000D01*
X31389000Y-36703000D01*
X31389000Y-36957000D01*
X31369000Y-36957000D01*
X31369000Y-38600378D01*
X31606740Y-38721036D01*
X31712086Y-38696756D01*
X32237606Y-38405212D01*
X32505808Y-38067790D01*
X32696591Y-38353318D01*
X32972000Y-38537340D01*
X32972000Y-39370000D01*
X33033658Y-39679974D01*
X33128575Y-39822027D01*
X33209244Y-39942756D01*
X35114244Y-41847757D01*
X35377027Y-42023343D01*
X35509154Y-42049624D01*
X35687000Y-42085000D01*
X37637488Y-42085000D01*
X38796209Y-43243722D01*
X38865770Y-43290201D01*
X39058992Y-43419308D01*
X39195000Y-43446362D01*
X39195000Y-44554653D01*
X38821371Y-44927630D01*
X38741605Y-45119727D01*
X38687397Y-44988857D01*
X38445213Y-44919392D01*
X37644605Y-45720000D01*
X38445213Y-46520608D01*
X38687397Y-46451143D01*
X38737509Y-46310682D01*
X38819990Y-46510303D01*
X39212630Y-46903629D01*
X39725900Y-47116757D01*
X40281661Y-47117242D01*
X40795303Y-46905010D01*
X41188629Y-46512370D01*
X41401757Y-45999100D01*
X41402242Y-45443339D01*
X41190010Y-44929697D01*
X40815000Y-44554032D01*
X40815000Y-43480966D01*
X43386000Y-43480966D01*
X43386000Y-49149000D01*
X43447658Y-49458974D01*
X43542575Y-49601027D01*
X43623244Y-49721756D01*
X44004243Y-50102756D01*
X44097398Y-50165000D01*
X44267026Y-50278342D01*
X44577000Y-50340000D01*
X49804559Y-50340000D01*
X50105201Y-50464838D01*
X50477167Y-50465162D01*
X50820943Y-50323117D01*
X51084192Y-50060327D01*
X51226838Y-49716799D01*
X51227162Y-49344833D01*
X51085117Y-49001057D01*
X50822327Y-48737808D01*
X50478799Y-48595162D01*
X50106833Y-48594838D01*
X49803917Y-48720000D01*
X45006000Y-48720000D01*
X45006000Y-44704000D01*
X47383960Y-44704000D01*
X47383960Y-46736000D01*
X47428238Y-46971317D01*
X47567310Y-47187441D01*
X47779510Y-47332431D01*
X48031400Y-47383440D01*
X49758600Y-47383440D01*
X49993917Y-47339162D01*
X50210041Y-47200090D01*
X50355031Y-46987890D01*
X50363400Y-46946561D01*
X50375330Y-46964415D01*
X50861511Y-47289271D01*
X51435000Y-47403345D01*
X52008489Y-47289271D01*
X52494670Y-46964415D01*
X52705000Y-46649634D01*
X52915330Y-46964415D01*
X53401511Y-47289271D01*
X53975000Y-47403345D01*
X54548489Y-47289271D01*
X55034670Y-46964415D01*
X55241461Y-46654931D01*
X55612964Y-47070732D01*
X56140209Y-47324709D01*
X56155974Y-47327358D01*
X56388000Y-47206217D01*
X56388000Y-45847000D01*
X56368000Y-45847000D01*
X56368000Y-45593000D01*
X56388000Y-45593000D01*
X56388000Y-44233783D01*
X56155974Y-44112642D01*
X56140209Y-44115291D01*
X55612964Y-44369268D01*
X55241461Y-44785069D01*
X55034670Y-44475585D01*
X54548489Y-44150729D01*
X53975000Y-44036655D01*
X53401511Y-44150729D01*
X52915330Y-44475585D01*
X52705000Y-44790366D01*
X52494670Y-44475585D01*
X52008489Y-44150729D01*
X51435000Y-44036655D01*
X50861511Y-44150729D01*
X50375330Y-44475585D01*
X50365757Y-44489913D01*
X50361762Y-44468683D01*
X50222690Y-44252559D01*
X50010490Y-44107569D01*
X49758600Y-44056560D01*
X48031400Y-44056560D01*
X47796083Y-44100838D01*
X47579959Y-44239910D01*
X47434969Y-44452110D01*
X47383960Y-44704000D01*
X45006000Y-44704000D01*
X45006000Y-42797966D01*
X44944342Y-42487992D01*
X44856549Y-42356601D01*
X44768756Y-42225209D01*
X44641756Y-42098210D01*
X44529710Y-42023343D01*
X44378974Y-41922624D01*
X44069000Y-41860966D01*
X39704479Y-41860966D01*
X38545756Y-40702244D01*
X38282974Y-40526658D01*
X37973000Y-40465000D01*
X36022513Y-40465000D01*
X34592000Y-39034488D01*
X34592000Y-38537340D01*
X34867409Y-38353318D01*
X35052000Y-38077058D01*
X35236591Y-38353318D01*
X35734581Y-38686064D01*
X36322000Y-38802909D01*
X36909419Y-38686064D01*
X37407409Y-38353318D01*
X37592000Y-38077058D01*
X37776591Y-38353318D01*
X38274581Y-38686064D01*
X38862000Y-38802909D01*
X39449419Y-38686064D01*
X39947409Y-38353318D01*
X40138192Y-38067790D01*
X40406394Y-38405212D01*
X40931914Y-38696756D01*
X41037260Y-38721036D01*
X41275000Y-38600378D01*
X41275000Y-36957000D01*
X41255000Y-36957000D01*
X41255000Y-36703000D01*
X41275000Y-36703000D01*
X41275000Y-35059622D01*
X41529000Y-35059622D01*
X41529000Y-36703000D01*
X41549000Y-36703000D01*
X41549000Y-36957000D01*
X41529000Y-36957000D01*
X41529000Y-38600378D01*
X41766740Y-38721036D01*
X41872086Y-38696756D01*
X42397606Y-38405212D01*
X42665808Y-38067790D01*
X42856591Y-38353318D01*
X43354581Y-38686064D01*
X43942000Y-38802909D01*
X44529419Y-38686064D01*
X45027409Y-38353318D01*
X45360155Y-37855328D01*
X45477000Y-37267909D01*
X45477000Y-36392091D01*
X45360155Y-35804672D01*
X45027409Y-35306682D01*
X44529419Y-34973936D01*
X43942000Y-34857091D01*
X43354581Y-34973936D01*
X42856591Y-35306682D01*
X42665808Y-35592210D01*
X42397606Y-35254788D01*
X41872086Y-34963244D01*
X41766740Y-34938964D01*
X41529000Y-35059622D01*
X41275000Y-35059622D01*
X41037260Y-34938964D01*
X40931914Y-34963244D01*
X40406394Y-35254788D01*
X40138192Y-35592210D01*
X39947409Y-35306682D01*
X39449419Y-34973936D01*
X38862000Y-34857091D01*
X38274581Y-34973936D01*
X37776591Y-35306682D01*
X37592000Y-35582942D01*
X37407409Y-35306682D01*
X36909419Y-34973936D01*
X36322000Y-34857091D01*
X35734581Y-34973936D01*
X35236591Y-35306682D01*
X35052000Y-35582942D01*
X34867409Y-35306682D01*
X34369419Y-34973936D01*
X33782000Y-34857091D01*
X33194581Y-34973936D01*
X32696591Y-35306682D01*
X32505808Y-35592210D01*
X32237606Y-35254788D01*
X31712086Y-34963244D01*
X31606740Y-34938964D01*
X31369000Y-35059622D01*
X31115000Y-35059622D01*
X30877260Y-34938964D01*
X30771914Y-34963244D01*
X30246394Y-35254788D01*
X29872446Y-35725248D01*
X29707000Y-36303000D01*
X28878360Y-36303000D01*
X28878443Y-36209146D01*
X28402173Y-35056485D01*
X27711894Y-34365000D01*
X90297000Y-34365000D01*
X90568705Y-34310954D01*
X90799046Y-34157046D01*
X90952954Y-33926705D01*
X90992081Y-33730000D01*
X100034605Y-33730000D01*
X98967965Y-34170727D01*
G36*
X87632000Y-80518000D02*
X87689852Y-80808839D01*
X87854599Y-81055401D01*
X88580599Y-81781401D01*
X88827161Y-81946148D01*
X89118000Y-82004000D01*
X91471354Y-82004000D01*
X91492757Y-82055800D01*
X91896077Y-82459824D01*
X91900000Y-82461453D01*
X91900000Y-86786487D01*
X90088488Y-88598000D01*
X46055513Y-88598000D01*
X45514000Y-88056488D01*
X45514000Y-80450394D01*
X45787201Y-80563838D01*
X46159167Y-80564162D01*
X46502943Y-80422117D01*
X46557204Y-80367950D01*
X46688921Y-80565079D01*
X47196919Y-81073076D01*
X47196921Y-81073079D01*
X47451594Y-81243245D01*
X47752000Y-81303000D01*
X53708560Y-81303000D01*
X53708560Y-82423000D01*
X53752838Y-82658317D01*
X53891910Y-82874441D01*
X54104110Y-83019431D01*
X54356000Y-83070440D01*
X55372000Y-83070440D01*
X55607317Y-83026162D01*
X55823441Y-82887090D01*
X55881580Y-82802000D01*
X57057842Y-82802000D01*
X56086921Y-83772921D01*
X56054730Y-83821099D01*
X55851697Y-83904990D01*
X55458371Y-84297630D01*
X55372051Y-84505512D01*
X55287010Y-84299697D01*
X54894370Y-83906371D01*
X54381100Y-83693243D01*
X53825339Y-83692758D01*
X53311697Y-83904990D01*
X52918371Y-84297630D01*
X52705243Y-84810900D01*
X52704758Y-85366661D01*
X52916990Y-85880303D01*
X53309630Y-86273629D01*
X53822900Y-86486757D01*
X54378661Y-86487242D01*
X54892303Y-86275010D01*
X55285629Y-85882370D01*
X55371949Y-85674488D01*
X55456990Y-85880303D01*
X55849630Y-86273629D01*
X56362900Y-86486757D01*
X56918661Y-86487242D01*
X57432303Y-86275010D01*
X57637457Y-86070213D01*
X58381392Y-86070213D01*
X58450857Y-86312397D01*
X58974302Y-86499144D01*
X59529368Y-86471362D01*
X59913143Y-86312397D01*
X59982608Y-86070213D01*
X59182000Y-85269605D01*
X58381392Y-86070213D01*
X57637457Y-86070213D01*
X57825629Y-85882370D01*
X57905395Y-85690273D01*
X57959603Y-85821143D01*
X58201787Y-85890608D01*
X59002395Y-85090000D01*
X58201787Y-84289392D01*
X57959603Y-84358857D01*
X57909491Y-84499318D01*
X57827010Y-84299697D01*
X57803756Y-84276402D01*
X58237158Y-83843000D01*
X58510254Y-83843000D01*
X58450857Y-83867603D01*
X58381392Y-84109787D01*
X59182000Y-84910395D01*
X59982608Y-84109787D01*
X59913143Y-83867603D01*
X59845576Y-83843497D01*
X60101192Y-83588327D01*
X60243838Y-83244799D01*
X60244162Y-82872833D01*
X60214894Y-82802000D01*
X60772198Y-82802000D01*
X60962000Y-82991802D01*
X60962000Y-83892469D01*
X60931697Y-83904990D01*
X60538371Y-84297630D01*
X60458605Y-84489727D01*
X60404397Y-84358857D01*
X60162213Y-84289392D01*
X59361605Y-85090000D01*
X60162213Y-85890608D01*
X60404397Y-85821143D01*
X60454509Y-85680682D01*
X60536990Y-85880303D01*
X60929630Y-86273629D01*
X61442900Y-86486757D01*
X61998661Y-86487242D01*
X62512303Y-86275010D01*
X62905629Y-85882370D01*
X62991949Y-85674488D01*
X63076990Y-85880303D01*
X63469630Y-86273629D01*
X63982900Y-86486757D01*
X64538661Y-86487242D01*
X65052303Y-86275010D01*
X65445629Y-85882370D01*
X65531949Y-85674488D01*
X65616990Y-85880303D01*
X66009630Y-86273629D01*
X66522900Y-86486757D01*
X67078661Y-86487242D01*
X67592303Y-86275010D01*
X67985629Y-85882370D01*
X68071949Y-85674488D01*
X68156990Y-85880303D01*
X68549630Y-86273629D01*
X69062900Y-86486757D01*
X69618661Y-86487242D01*
X70132303Y-86275010D01*
X70525629Y-85882370D01*
X70611949Y-85674488D01*
X70696990Y-85880303D01*
X71089630Y-86273629D01*
X71602900Y-86486757D01*
X72158661Y-86487242D01*
X72672303Y-86275010D01*
X73065629Y-85882370D01*
X73278757Y-85369100D01*
X73279242Y-84813339D01*
X73067010Y-84299697D01*
X72674370Y-83906371D01*
X72161100Y-83693243D01*
X71605339Y-83692758D01*
X71091697Y-83904990D01*
X70698371Y-84297630D01*
X70612051Y-84505512D01*
X70527010Y-84299697D01*
X70134370Y-83906371D01*
X69621100Y-83693243D01*
X69065339Y-83692758D01*
X68551697Y-83904990D01*
X68158371Y-84297630D01*
X68072051Y-84505512D01*
X68010532Y-84356626D01*
X69032158Y-83335000D01*
X70612000Y-83335000D01*
X70912407Y-83275245D01*
X71167079Y-83105079D01*
X72437079Y-81835079D01*
X72607245Y-81580407D01*
X72667000Y-81280000D01*
X72667000Y-77646014D01*
X72965201Y-77769838D01*
X73337167Y-77770162D01*
X73680943Y-77628117D01*
X73689074Y-77620000D01*
X82124799Y-77620000D01*
X82126990Y-77625303D01*
X82519630Y-78018629D01*
X82727512Y-78104949D01*
X82521697Y-78189990D01*
X82128371Y-78582630D01*
X82125311Y-78590000D01*
X79785506Y-78590000D01*
X79778327Y-78582808D01*
X79434799Y-78440162D01*
X79062833Y-78439838D01*
X78719057Y-78581883D01*
X78455808Y-78844673D01*
X78313162Y-79188201D01*
X78312838Y-79560167D01*
X78454883Y-79903943D01*
X78717673Y-80167192D01*
X79061201Y-80309838D01*
X79433167Y-80310162D01*
X79776943Y-80168117D01*
X79785074Y-80160000D01*
X82124799Y-80160000D01*
X82126990Y-80165303D01*
X82519630Y-80558629D01*
X82727512Y-80644949D01*
X82521697Y-80729990D01*
X82128371Y-81122630D01*
X81915243Y-81635900D01*
X81914758Y-82191661D01*
X82126990Y-82705303D01*
X82519630Y-83098629D01*
X83032900Y-83311757D01*
X83588661Y-83312242D01*
X84102303Y-83100010D01*
X84495629Y-82707370D01*
X84708757Y-82194100D01*
X84709242Y-81638339D01*
X84497010Y-81124697D01*
X84104370Y-80731371D01*
X83896488Y-80645051D01*
X84102303Y-80560010D01*
X84495629Y-80167370D01*
X84708757Y-79654100D01*
X84709242Y-79098339D01*
X84497010Y-78584697D01*
X84104370Y-78191371D01*
X83896488Y-78105051D01*
X84102303Y-78020010D01*
X84495629Y-77627370D01*
X84708757Y-77114100D01*
X84709242Y-76558339D01*
X84497010Y-76044697D01*
X84104370Y-75651371D01*
X83896488Y-75565051D01*
X84102303Y-75480010D01*
X84495629Y-75087370D01*
X84708757Y-74574100D01*
X84709242Y-74018339D01*
X84497010Y-73504697D01*
X84104370Y-73111371D01*
X83896488Y-73025051D01*
X84102303Y-72940010D01*
X84495629Y-72547370D01*
X84509070Y-72515000D01*
X87632000Y-72515000D01*
X87632000Y-80518000D01*
X87632000Y-80518000D01*
G37*
X87632000Y-80518000D02*
X87689852Y-80808839D01*
X87854599Y-81055401D01*
X88580599Y-81781401D01*
X88827161Y-81946148D01*
X89118000Y-82004000D01*
X91471354Y-82004000D01*
X91492757Y-82055800D01*
X91896077Y-82459824D01*
X91900000Y-82461453D01*
X91900000Y-86786487D01*
X90088488Y-88598000D01*
X46055513Y-88598000D01*
X45514000Y-88056488D01*
X45514000Y-80450394D01*
X45787201Y-80563838D01*
X46159167Y-80564162D01*
X46502943Y-80422117D01*
X46557204Y-80367950D01*
X46688921Y-80565079D01*
X47196919Y-81073076D01*
X47196921Y-81073079D01*
X47451594Y-81243245D01*
X47752000Y-81303000D01*
X53708560Y-81303000D01*
X53708560Y-82423000D01*
X53752838Y-82658317D01*
X53891910Y-82874441D01*
X54104110Y-83019431D01*
X54356000Y-83070440D01*
X55372000Y-83070440D01*
X55607317Y-83026162D01*
X55823441Y-82887090D01*
X55881580Y-82802000D01*
X57057842Y-82802000D01*
X56086921Y-83772921D01*
X56054730Y-83821099D01*
X55851697Y-83904990D01*
X55458371Y-84297630D01*
X55372051Y-84505512D01*
X55287010Y-84299697D01*
X54894370Y-83906371D01*
X54381100Y-83693243D01*
X53825339Y-83692758D01*
X53311697Y-83904990D01*
X52918371Y-84297630D01*
X52705243Y-84810900D01*
X52704758Y-85366661D01*
X52916990Y-85880303D01*
X53309630Y-86273629D01*
X53822900Y-86486757D01*
X54378661Y-86487242D01*
X54892303Y-86275010D01*
X55285629Y-85882370D01*
X55371949Y-85674488D01*
X55456990Y-85880303D01*
X55849630Y-86273629D01*
X56362900Y-86486757D01*
X56918661Y-86487242D01*
X57432303Y-86275010D01*
X57637457Y-86070213D01*
X58381392Y-86070213D01*
X58450857Y-86312397D01*
X58974302Y-86499144D01*
X59529368Y-86471362D01*
X59913143Y-86312397D01*
X59982608Y-86070213D01*
X59182000Y-85269605D01*
X58381392Y-86070213D01*
X57637457Y-86070213D01*
X57825629Y-85882370D01*
X57905395Y-85690273D01*
X57959603Y-85821143D01*
X58201787Y-85890608D01*
X59002395Y-85090000D01*
X58201787Y-84289392D01*
X57959603Y-84358857D01*
X57909491Y-84499318D01*
X57827010Y-84299697D01*
X57803756Y-84276402D01*
X58237158Y-83843000D01*
X58510254Y-83843000D01*
X58450857Y-83867603D01*
X58381392Y-84109787D01*
X59182000Y-84910395D01*
X59982608Y-84109787D01*
X59913143Y-83867603D01*
X59845576Y-83843497D01*
X60101192Y-83588327D01*
X60243838Y-83244799D01*
X60244162Y-82872833D01*
X60214894Y-82802000D01*
X60772198Y-82802000D01*
X60962000Y-82991802D01*
X60962000Y-83892469D01*
X60931697Y-83904990D01*
X60538371Y-84297630D01*
X60458605Y-84489727D01*
X60404397Y-84358857D01*
X60162213Y-84289392D01*
X59361605Y-85090000D01*
X60162213Y-85890608D01*
X60404397Y-85821143D01*
X60454509Y-85680682D01*
X60536990Y-85880303D01*
X60929630Y-86273629D01*
X61442900Y-86486757D01*
X61998661Y-86487242D01*
X62512303Y-86275010D01*
X62905629Y-85882370D01*
X62991949Y-85674488D01*
X63076990Y-85880303D01*
X63469630Y-86273629D01*
X63982900Y-86486757D01*
X64538661Y-86487242D01*
X65052303Y-86275010D01*
X65445629Y-85882370D01*
X65531949Y-85674488D01*
X65616990Y-85880303D01*
X66009630Y-86273629D01*
X66522900Y-86486757D01*
X67078661Y-86487242D01*
X67592303Y-86275010D01*
X67985629Y-85882370D01*
X68071949Y-85674488D01*
X68156990Y-85880303D01*
X68549630Y-86273629D01*
X69062900Y-86486757D01*
X69618661Y-86487242D01*
X70132303Y-86275010D01*
X70525629Y-85882370D01*
X70611949Y-85674488D01*
X70696990Y-85880303D01*
X71089630Y-86273629D01*
X71602900Y-86486757D01*
X72158661Y-86487242D01*
X72672303Y-86275010D01*
X73065629Y-85882370D01*
X73278757Y-85369100D01*
X73279242Y-84813339D01*
X73067010Y-84299697D01*
X72674370Y-83906371D01*
X72161100Y-83693243D01*
X71605339Y-83692758D01*
X71091697Y-83904990D01*
X70698371Y-84297630D01*
X70612051Y-84505512D01*
X70527010Y-84299697D01*
X70134370Y-83906371D01*
X69621100Y-83693243D01*
X69065339Y-83692758D01*
X68551697Y-83904990D01*
X68158371Y-84297630D01*
X68072051Y-84505512D01*
X68010532Y-84356626D01*
X69032158Y-83335000D01*
X70612000Y-83335000D01*
X70912407Y-83275245D01*
X71167079Y-83105079D01*
X72437079Y-81835079D01*
X72607245Y-81580407D01*
X72667000Y-81280000D01*
X72667000Y-77646014D01*
X72965201Y-77769838D01*
X73337167Y-77770162D01*
X73680943Y-77628117D01*
X73689074Y-77620000D01*
X82124799Y-77620000D01*
X82126990Y-77625303D01*
X82519630Y-78018629D01*
X82727512Y-78104949D01*
X82521697Y-78189990D01*
X82128371Y-78582630D01*
X82125311Y-78590000D01*
X79785506Y-78590000D01*
X79778327Y-78582808D01*
X79434799Y-78440162D01*
X79062833Y-78439838D01*
X78719057Y-78581883D01*
X78455808Y-78844673D01*
X78313162Y-79188201D01*
X78312838Y-79560167D01*
X78454883Y-79903943D01*
X78717673Y-80167192D01*
X79061201Y-80309838D01*
X79433167Y-80310162D01*
X79776943Y-80168117D01*
X79785074Y-80160000D01*
X82124799Y-80160000D01*
X82126990Y-80165303D01*
X82519630Y-80558629D01*
X82727512Y-80644949D01*
X82521697Y-80729990D01*
X82128371Y-81122630D01*
X81915243Y-81635900D01*
X81914758Y-82191661D01*
X82126990Y-82705303D01*
X82519630Y-83098629D01*
X83032900Y-83311757D01*
X83588661Y-83312242D01*
X84102303Y-83100010D01*
X84495629Y-82707370D01*
X84708757Y-82194100D01*
X84709242Y-81638339D01*
X84497010Y-81124697D01*
X84104370Y-80731371D01*
X83896488Y-80645051D01*
X84102303Y-80560010D01*
X84495629Y-80167370D01*
X84708757Y-79654100D01*
X84709242Y-79098339D01*
X84497010Y-78584697D01*
X84104370Y-78191371D01*
X83896488Y-78105051D01*
X84102303Y-78020010D01*
X84495629Y-77627370D01*
X84708757Y-77114100D01*
X84709242Y-76558339D01*
X84497010Y-76044697D01*
X84104370Y-75651371D01*
X83896488Y-75565051D01*
X84102303Y-75480010D01*
X84495629Y-75087370D01*
X84708757Y-74574100D01*
X84709242Y-74018339D01*
X84497010Y-73504697D01*
X84104370Y-73111371D01*
X83896488Y-73025051D01*
X84102303Y-72940010D01*
X84495629Y-72547370D01*
X84509070Y-72515000D01*
X87632000Y-72515000D01*
X87632000Y-80518000D01*
G36*
X65615330Y-62204415D02*
X65890000Y-62387944D01*
X65890000Y-77652842D01*
X63301842Y-80241000D01*
X63051103Y-80241000D01*
X63081698Y-80228327D01*
X63260327Y-80049699D01*
X63357000Y-79816310D01*
X63357000Y-79025750D01*
X63198250Y-78867000D01*
X61849000Y-78867000D01*
X61849000Y-78887000D01*
X61595000Y-78887000D01*
X61595000Y-78867000D01*
X60245750Y-78867000D01*
X60087000Y-79025750D01*
X60087000Y-79816310D01*
X60183673Y-80049699D01*
X60362302Y-80228327D01*
X60392897Y-80241000D01*
X59973506Y-80241000D01*
X59966327Y-80233808D01*
X59622799Y-80091162D01*
X59250833Y-80090838D01*
X58907057Y-80232883D01*
X58643808Y-80495673D01*
X58501162Y-80839201D01*
X58500875Y-81168649D01*
X58352799Y-81107162D01*
X57980833Y-81106838D01*
X57637057Y-81248883D01*
X57603882Y-81282000D01*
X56019440Y-81282000D01*
X56019440Y-81089500D01*
X56000859Y-80990753D01*
X56019440Y-80899000D01*
X56019440Y-80137000D01*
X55975162Y-79901683D01*
X55836090Y-79685559D01*
X55623890Y-79540569D01*
X55372000Y-79489560D01*
X54356000Y-79489560D01*
X54120683Y-79533838D01*
X53904559Y-79672910D01*
X53863501Y-79733000D01*
X53197000Y-79733000D01*
X53197000Y-79025750D01*
X53038250Y-78867000D01*
X51689000Y-78867000D01*
X51689000Y-78887000D01*
X51435000Y-78887000D01*
X51435000Y-78867000D01*
X50085750Y-78867000D01*
X49927000Y-79025750D01*
X49927000Y-79733000D01*
X48077157Y-79733000D01*
X48029000Y-79684842D01*
X48029000Y-73181506D01*
X48036192Y-73174327D01*
X48178838Y-72830799D01*
X48179162Y-72458833D01*
X48082544Y-72225000D01*
X50437331Y-72225000D01*
X50447910Y-72241441D01*
X50660110Y-72386431D01*
X50673197Y-72389081D01*
X50460559Y-72525910D01*
X50315569Y-72738110D01*
X50264560Y-72990000D01*
X50264560Y-73690000D01*
X50308838Y-73925317D01*
X50447910Y-74141441D01*
X50660110Y-74286431D01*
X50777000Y-74310102D01*
X50777000Y-74809383D01*
X50665343Y-74855519D01*
X50219086Y-75300997D01*
X49977276Y-75883341D01*
X49976725Y-76513893D01*
X50217519Y-77096657D01*
X50322545Y-77201867D01*
X50202302Y-77251673D01*
X50023673Y-77430301D01*
X49927000Y-77663690D01*
X49927000Y-78454250D01*
X50085750Y-78613000D01*
X51435000Y-78613000D01*
X51435000Y-78593000D01*
X51689000Y-78593000D01*
X51689000Y-78613000D01*
X53038250Y-78613000D01*
X53197000Y-78454250D01*
X53197000Y-77663690D01*
X53100327Y-77430301D01*
X52921698Y-77251673D01*
X52801749Y-77201988D01*
X52904914Y-77099003D01*
X53146724Y-76516659D01*
X53147275Y-75886107D01*
X52906481Y-75303343D01*
X52461003Y-74857086D01*
X52347000Y-74809748D01*
X52347000Y-74312038D01*
X52447317Y-74293162D01*
X52663441Y-74154090D01*
X52808431Y-73941890D01*
X52859440Y-73690000D01*
X52859440Y-72990000D01*
X52815162Y-72754683D01*
X52676090Y-72538559D01*
X52463890Y-72393569D01*
X52450803Y-72390919D01*
X52663441Y-72254090D01*
X52808431Y-72041890D01*
X52859440Y-71790000D01*
X52859440Y-71090000D01*
X52815162Y-70854683D01*
X52676090Y-70638559D01*
X52463890Y-70493569D01*
X52212000Y-70442560D01*
X50912000Y-70442560D01*
X50676683Y-70486838D01*
X50460559Y-70625910D01*
X50440683Y-70655000D01*
X48015483Y-70655000D01*
X48036192Y-70634327D01*
X48178838Y-70290799D01*
X48178848Y-70279310D01*
X49855158Y-68603000D01*
X60566560Y-68603000D01*
X60566560Y-69723000D01*
X60610838Y-69958317D01*
X60749910Y-70174441D01*
X60937000Y-70302274D01*
X60937000Y-70467962D01*
X60836683Y-70486838D01*
X60620559Y-70625910D01*
X60475569Y-70838110D01*
X60424560Y-71090000D01*
X60424560Y-71790000D01*
X60468838Y-72025317D01*
X60607910Y-72241441D01*
X60820110Y-72386431D01*
X60833197Y-72389081D01*
X60620559Y-72525910D01*
X60475569Y-72738110D01*
X60424560Y-72990000D01*
X60424560Y-73690000D01*
X60468838Y-73925317D01*
X60607910Y-74141441D01*
X60820110Y-74286431D01*
X60937000Y-74310102D01*
X60937000Y-74809383D01*
X60825343Y-74855519D01*
X60379086Y-75300997D01*
X60137276Y-75883341D01*
X60136725Y-76513893D01*
X60377519Y-77096657D01*
X60482545Y-77201867D01*
X60362302Y-77251673D01*
X60183673Y-77430301D01*
X60087000Y-77663690D01*
X60087000Y-78454250D01*
X60245750Y-78613000D01*
X61595000Y-78613000D01*
X61595000Y-78593000D01*
X61849000Y-78593000D01*
X61849000Y-78613000D01*
X63198250Y-78613000D01*
X63357000Y-78454250D01*
X63357000Y-77663690D01*
X63260327Y-77430301D01*
X63081698Y-77251673D01*
X62961749Y-77201988D01*
X63064914Y-77099003D01*
X63306724Y-76516659D01*
X63307275Y-75886107D01*
X63066481Y-75303343D01*
X62621003Y-74857086D01*
X62507000Y-74809748D01*
X62507000Y-74312038D01*
X62607317Y-74293162D01*
X62823441Y-74154090D01*
X62968431Y-73941890D01*
X63019440Y-73690000D01*
X63019440Y-72990000D01*
X62975162Y-72754683D01*
X62836090Y-72538559D01*
X62623890Y-72393569D01*
X62610803Y-72390919D01*
X62823441Y-72254090D01*
X62843317Y-72225000D01*
X63873298Y-72225000D01*
X64075201Y-72308838D01*
X64447167Y-72309162D01*
X64790943Y-72167117D01*
X65054192Y-71904327D01*
X65196838Y-71560799D01*
X65197162Y-71188833D01*
X65055117Y-70845057D01*
X64792327Y-70581808D01*
X64448799Y-70439162D01*
X64076833Y-70438838D01*
X63733057Y-70580883D01*
X63658811Y-70655000D01*
X62846669Y-70655000D01*
X62836090Y-70638559D01*
X62623890Y-70493569D01*
X62507000Y-70469898D01*
X62507000Y-70299340D01*
X62681441Y-70187090D01*
X62826431Y-69974890D01*
X62877440Y-69723000D01*
X62877440Y-68389500D01*
X62858859Y-68290753D01*
X62877440Y-68199000D01*
X62877440Y-67437000D01*
X62833162Y-67201683D01*
X62694090Y-66985559D01*
X62482000Y-66840644D01*
X62482000Y-65973802D01*
X62735302Y-65720500D01*
X64071500Y-65720500D01*
X64362339Y-65662648D01*
X64608901Y-65497901D01*
X64672401Y-65434401D01*
X64837148Y-65187839D01*
X64895000Y-64897000D01*
X64895000Y-62404648D01*
X65194670Y-62204415D01*
X65405000Y-61889634D01*
X65615330Y-62204415D01*
X65615330Y-62204415D01*
G37*
X65615330Y-62204415D02*
X65890000Y-62387944D01*
X65890000Y-77652842D01*
X63301842Y-80241000D01*
X63051103Y-80241000D01*
X63081698Y-80228327D01*
X63260327Y-80049699D01*
X63357000Y-79816310D01*
X63357000Y-79025750D01*
X63198250Y-78867000D01*
X61849000Y-78867000D01*
X61849000Y-78887000D01*
X61595000Y-78887000D01*
X61595000Y-78867000D01*
X60245750Y-78867000D01*
X60087000Y-79025750D01*
X60087000Y-79816310D01*
X60183673Y-80049699D01*
X60362302Y-80228327D01*
X60392897Y-80241000D01*
X59973506Y-80241000D01*
X59966327Y-80233808D01*
X59622799Y-80091162D01*
X59250833Y-80090838D01*
X58907057Y-80232883D01*
X58643808Y-80495673D01*
X58501162Y-80839201D01*
X58500875Y-81168649D01*
X58352799Y-81107162D01*
X57980833Y-81106838D01*
X57637057Y-81248883D01*
X57603882Y-81282000D01*
X56019440Y-81282000D01*
X56019440Y-81089500D01*
X56000859Y-80990753D01*
X56019440Y-80899000D01*
X56019440Y-80137000D01*
X55975162Y-79901683D01*
X55836090Y-79685559D01*
X55623890Y-79540569D01*
X55372000Y-79489560D01*
X54356000Y-79489560D01*
X54120683Y-79533838D01*
X53904559Y-79672910D01*
X53863501Y-79733000D01*
X53197000Y-79733000D01*
X53197000Y-79025750D01*
X53038250Y-78867000D01*
X51689000Y-78867000D01*
X51689000Y-78887000D01*
X51435000Y-78887000D01*
X51435000Y-78867000D01*
X50085750Y-78867000D01*
X49927000Y-79025750D01*
X49927000Y-79733000D01*
X48077157Y-79733000D01*
X48029000Y-79684842D01*
X48029000Y-73181506D01*
X48036192Y-73174327D01*
X48178838Y-72830799D01*
X48179162Y-72458833D01*
X48082544Y-72225000D01*
X50437331Y-72225000D01*
X50447910Y-72241441D01*
X50660110Y-72386431D01*
X50673197Y-72389081D01*
X50460559Y-72525910D01*
X50315569Y-72738110D01*
X50264560Y-72990000D01*
X50264560Y-73690000D01*
X50308838Y-73925317D01*
X50447910Y-74141441D01*
X50660110Y-74286431D01*
X50777000Y-74310102D01*
X50777000Y-74809383D01*
X50665343Y-74855519D01*
X50219086Y-75300997D01*
X49977276Y-75883341D01*
X49976725Y-76513893D01*
X50217519Y-77096657D01*
X50322545Y-77201867D01*
X50202302Y-77251673D01*
X50023673Y-77430301D01*
X49927000Y-77663690D01*
X49927000Y-78454250D01*
X50085750Y-78613000D01*
X51435000Y-78613000D01*
X51435000Y-78593000D01*
X51689000Y-78593000D01*
X51689000Y-78613000D01*
X53038250Y-78613000D01*
X53197000Y-78454250D01*
X53197000Y-77663690D01*
X53100327Y-77430301D01*
X52921698Y-77251673D01*
X52801749Y-77201988D01*
X52904914Y-77099003D01*
X53146724Y-76516659D01*
X53147275Y-75886107D01*
X52906481Y-75303343D01*
X52461003Y-74857086D01*
X52347000Y-74809748D01*
X52347000Y-74312038D01*
X52447317Y-74293162D01*
X52663441Y-74154090D01*
X52808431Y-73941890D01*
X52859440Y-73690000D01*
X52859440Y-72990000D01*
X52815162Y-72754683D01*
X52676090Y-72538559D01*
X52463890Y-72393569D01*
X52450803Y-72390919D01*
X52663441Y-72254090D01*
X52808431Y-72041890D01*
X52859440Y-71790000D01*
X52859440Y-71090000D01*
X52815162Y-70854683D01*
X52676090Y-70638559D01*
X52463890Y-70493569D01*
X52212000Y-70442560D01*
X50912000Y-70442560D01*
X50676683Y-70486838D01*
X50460559Y-70625910D01*
X50440683Y-70655000D01*
X48015483Y-70655000D01*
X48036192Y-70634327D01*
X48178838Y-70290799D01*
X48178848Y-70279310D01*
X49855158Y-68603000D01*
X60566560Y-68603000D01*
X60566560Y-69723000D01*
X60610838Y-69958317D01*
X60749910Y-70174441D01*
X60937000Y-70302274D01*
X60937000Y-70467962D01*
X60836683Y-70486838D01*
X60620559Y-70625910D01*
X60475569Y-70838110D01*
X60424560Y-71090000D01*
X60424560Y-71790000D01*
X60468838Y-72025317D01*
X60607910Y-72241441D01*
X60820110Y-72386431D01*
X60833197Y-72389081D01*
X60620559Y-72525910D01*
X60475569Y-72738110D01*
X60424560Y-72990000D01*
X60424560Y-73690000D01*
X60468838Y-73925317D01*
X60607910Y-74141441D01*
X60820110Y-74286431D01*
X60937000Y-74310102D01*
X60937000Y-74809383D01*
X60825343Y-74855519D01*
X60379086Y-75300997D01*
X60137276Y-75883341D01*
X60136725Y-76513893D01*
X60377519Y-77096657D01*
X60482545Y-77201867D01*
X60362302Y-77251673D01*
X60183673Y-77430301D01*
X60087000Y-77663690D01*
X60087000Y-78454250D01*
X60245750Y-78613000D01*
X61595000Y-78613000D01*
X61595000Y-78593000D01*
X61849000Y-78593000D01*
X61849000Y-78613000D01*
X63198250Y-78613000D01*
X63357000Y-78454250D01*
X63357000Y-77663690D01*
X63260327Y-77430301D01*
X63081698Y-77251673D01*
X62961749Y-77201988D01*
X63064914Y-77099003D01*
X63306724Y-76516659D01*
X63307275Y-75886107D01*
X63066481Y-75303343D01*
X62621003Y-74857086D01*
X62507000Y-74809748D01*
X62507000Y-74312038D01*
X62607317Y-74293162D01*
X62823441Y-74154090D01*
X62968431Y-73941890D01*
X63019440Y-73690000D01*
X63019440Y-72990000D01*
X62975162Y-72754683D01*
X62836090Y-72538559D01*
X62623890Y-72393569D01*
X62610803Y-72390919D01*
X62823441Y-72254090D01*
X62843317Y-72225000D01*
X63873298Y-72225000D01*
X64075201Y-72308838D01*
X64447167Y-72309162D01*
X64790943Y-72167117D01*
X65054192Y-71904327D01*
X65196838Y-71560799D01*
X65197162Y-71188833D01*
X65055117Y-70845057D01*
X64792327Y-70581808D01*
X64448799Y-70439162D01*
X64076833Y-70438838D01*
X63733057Y-70580883D01*
X63658811Y-70655000D01*
X62846669Y-70655000D01*
X62836090Y-70638559D01*
X62623890Y-70493569D01*
X62507000Y-70469898D01*
X62507000Y-70299340D01*
X62681441Y-70187090D01*
X62826431Y-69974890D01*
X62877440Y-69723000D01*
X62877440Y-68389500D01*
X62858859Y-68290753D01*
X62877440Y-68199000D01*
X62877440Y-67437000D01*
X62833162Y-67201683D01*
X62694090Y-66985559D01*
X62482000Y-66840644D01*
X62482000Y-65973802D01*
X62735302Y-65720500D01*
X64071500Y-65720500D01*
X64362339Y-65662648D01*
X64608901Y-65497901D01*
X64672401Y-65434401D01*
X64837148Y-65187839D01*
X64895000Y-64897000D01*
X64895000Y-62404648D01*
X65194670Y-62204415D01*
X65405000Y-61889634D01*
X65615330Y-62204415D01*
M02*
