G04 #@! TF.FileFunction,Copper,L1,Top,Signal*
%FSLAX46Y46*%
G04 Gerber Fmt 4.6, Leading zero omitted, Abs format (unit mm)*
G04 Created by KiCad (PCBNEW 4.0.2-stable) date 29/08/2016 16:57:44*
%MOMM*%
G01*
G04 APERTURE LIST*
%ADD10C,0.100000*%
%ADD11C,1.524000*%
%ADD12R,2.000000X1.900000*%
%ADD13C,1.900000*%
%ADD14O,1.800000X2.600000*%
%ADD15C,5.000000*%
%ADD16C,1.600000*%
%ADD17C,6.000000*%
%ADD18R,0.700000X1.300000*%
%ADD19R,1.727200X1.727200*%
%ADD20O,1.727200X1.727200*%
%ADD21C,4.000000*%
%ADD22R,0.762000X1.016000*%
%ADD23R,1.143000X0.254000*%
%ADD24R,1.200000X0.254000*%
%ADD25R,1.016000X0.762000*%
%ADD26R,0.254000X1.143000*%
%ADD27R,0.254000X1.200000*%
%ADD28O,1.727200X2.032000*%
%ADD29R,1.727200X2.032000*%
%ADD30R,2.032000X2.032000*%
%ADD31O,2.032000X2.032000*%
%ADD32R,3.500120X3.500120*%
%ADD33R,1.300000X0.700000*%
%ADD34C,0.600000*%
%ADD35C,0.350000*%
%ADD36C,0.300000*%
%ADD37C,0.200000*%
%ADD38C,0.250000*%
%ADD39C,0.254000*%
G04 APERTURE END LIST*
D10*
D11*
X34925000Y-45720000D03*
X32385000Y-45720000D03*
X37465000Y-45720000D03*
X40005000Y-45720000D03*
D12*
X61722000Y-78740000D03*
D13*
X61722000Y-76200000D03*
D14*
X31242000Y-36830000D03*
X33782000Y-36830000D03*
X36322000Y-36830000D03*
X38862000Y-36830000D03*
X41402000Y-36830000D03*
X43942000Y-36830000D03*
X56642000Y-36830000D03*
X59182000Y-36830000D03*
X61722000Y-36830000D03*
X64262000Y-36830000D03*
X66802000Y-36830000D03*
X69342000Y-36830000D03*
D15*
X25742900Y-36830000D03*
X25742900Y-67830700D03*
X100741480Y-67830700D03*
X100741480Y-36830000D03*
D11*
X83312000Y-74295000D03*
X83312000Y-76835000D03*
X83312000Y-71755000D03*
X83312000Y-69215000D03*
X83312000Y-79375000D03*
X83312000Y-81915000D03*
D16*
X92710000Y-81244000D03*
X92710000Y-74204000D03*
D12*
X51562000Y-78740000D03*
D13*
X51562000Y-76200000D03*
D17*
X26162000Y-86868000D03*
X101092000Y-86856000D03*
D18*
X34732000Y-40640000D03*
X32832000Y-40640000D03*
X32832000Y-43180000D03*
X34732000Y-43180000D03*
X69022000Y-40640000D03*
X67122000Y-40640000D03*
D19*
X82042000Y-57150000D03*
D20*
X84582000Y-57150000D03*
X82042000Y-54610000D03*
X84582000Y-54610000D03*
X82042000Y-52070000D03*
X84582000Y-52070000D03*
D11*
X69342000Y-85090000D03*
X71882000Y-85090000D03*
X66802000Y-85090000D03*
X64262000Y-85090000D03*
X61722000Y-85090000D03*
X59182000Y-85090000D03*
X56642000Y-85090000D03*
X54102000Y-85090000D03*
D21*
X80192000Y-98910000D03*
X45792000Y-98910000D03*
X75692000Y-136430000D03*
X49692000Y-136430000D03*
D22*
X77597000Y-42037000D03*
D23*
X76454000Y-42418000D03*
D22*
X76073000Y-42037000D03*
D23*
X76454000Y-41656000D03*
D24*
X77343000Y-42037000D03*
D25*
X64262000Y-67818000D03*
D26*
X64643000Y-68961000D03*
D25*
X64262000Y-69342000D03*
D26*
X63881000Y-68961000D03*
D27*
X64262000Y-68072000D03*
D28*
X60325000Y-58040000D03*
X67945000Y-58040000D03*
X70485000Y-58040000D03*
X57785000Y-58040000D03*
X48895000Y-60960000D03*
X59055000Y-45720000D03*
X53975000Y-60960000D03*
X56515000Y-60960000D03*
X51435000Y-60960000D03*
X76835000Y-45720000D03*
X76835000Y-60960000D03*
X74295000Y-60960000D03*
X71755000Y-60960000D03*
X69215000Y-60960000D03*
X66675000Y-60960000D03*
X64135000Y-60960000D03*
X59055000Y-60960000D03*
X61595000Y-60960000D03*
X71755000Y-45720000D03*
X74295000Y-45720000D03*
X69215000Y-45720000D03*
X66675000Y-45720000D03*
X64135000Y-45720000D03*
X61595000Y-45720000D03*
X56515000Y-45720000D03*
X53975000Y-45720000D03*
X51435000Y-45720000D03*
D29*
X48895000Y-45720000D03*
D30*
X25400000Y-76073000D03*
D31*
X25400000Y-78613000D03*
D32*
X35560000Y-79524860D03*
X35560000Y-85524340D03*
X40259000Y-82524600D03*
D33*
X32385000Y-51120000D03*
X32385000Y-53020000D03*
X29845000Y-53020000D03*
X29845000Y-51120000D03*
X34925000Y-53020000D03*
X34925000Y-51120000D03*
X37465000Y-53020000D03*
X37465000Y-51120000D03*
X40005000Y-64450000D03*
X40005000Y-62550000D03*
X32385000Y-62550000D03*
X32385000Y-64450000D03*
X34925000Y-64450000D03*
X34925000Y-62550000D03*
D19*
X32385000Y-57150000D03*
D20*
X32385000Y-59690000D03*
X34925000Y-57150000D03*
X34925000Y-59690000D03*
X37465000Y-57150000D03*
X37465000Y-59690000D03*
X40005000Y-57150000D03*
X40005000Y-59690000D03*
D25*
X56769000Y-80518000D03*
D26*
X57150000Y-81661000D03*
D25*
X56769000Y-82042000D03*
D26*
X56388000Y-81661000D03*
D27*
X56769000Y-80772000D03*
D34*
X32385000Y-67437000D03*
X48006000Y-78740000D03*
X31242000Y-43180000D03*
X41656000Y-48514000D03*
X44958000Y-48514000D03*
X89662000Y-64135000D03*
X87122000Y-64135000D03*
X94742000Y-73025000D03*
X61087000Y-64008000D03*
X79248000Y-79375000D03*
X79248000Y-64008000D03*
X73152000Y-64008000D03*
X73152000Y-76835000D03*
X70612000Y-76835000D03*
X68072000Y-76835000D03*
X68072000Y-74295000D03*
X70612000Y-74295000D03*
X73152000Y-74295000D03*
X84455000Y-66548000D03*
X80391000Y-66548000D03*
X73152000Y-66548000D03*
X70739000Y-66548000D03*
X70612000Y-63119000D03*
X63373000Y-63119000D03*
X70612000Y-80645000D03*
X69342000Y-71755000D03*
X32385000Y-50165000D03*
X40005000Y-65532000D03*
X36449000Y-49403000D03*
X38354000Y-49403000D03*
X42418000Y-46736000D03*
X81534000Y-64008000D03*
X73152000Y-67818000D03*
X53086000Y-53086000D03*
X55118000Y-51181000D03*
X50038000Y-53086000D03*
X43942000Y-69215000D03*
X34163000Y-69215000D03*
X95250000Y-49784000D03*
X90424000Y-57150000D03*
X88138000Y-57150000D03*
X55372000Y-55880000D03*
X52832000Y-55880000D03*
X49022000Y-56515000D03*
X66802000Y-54610000D03*
X79502000Y-60960000D03*
X45974000Y-79629000D03*
X35941000Y-67437000D03*
X33782000Y-67310000D03*
X37465000Y-65405000D03*
X36195000Y-50165000D03*
X97917000Y-62865000D03*
X59309000Y-83058000D03*
X59436000Y-81026000D03*
X75946000Y-43942000D03*
X64262000Y-71374000D03*
X52832000Y-49530000D03*
X50292000Y-49530000D03*
X44704000Y-77724000D03*
X93980000Y-40894000D03*
X90932000Y-40894000D03*
X58166000Y-82042000D03*
X36576000Y-61849000D03*
X47244000Y-70104000D03*
X47244000Y-72644000D03*
D35*
X32385000Y-67437000D02*
X32385000Y-67310000D01*
X48006000Y-78740000D02*
X40767000Y-78740000D01*
X40259000Y-79248000D02*
X40259000Y-82524600D01*
X40767000Y-78740000D02*
X40259000Y-79248000D01*
X31242000Y-43180000D02*
X30226000Y-43180000D01*
X29845000Y-43561000D02*
X29845000Y-51120000D01*
X30226000Y-43180000D02*
X29845000Y-43561000D01*
X32385000Y-59690000D02*
X30099000Y-59690000D01*
X30099000Y-59690000D02*
X27559000Y-59690000D01*
X27559000Y-59690000D02*
X26924000Y-59055000D01*
X26924000Y-59055000D02*
X26924000Y-51181000D01*
X26924000Y-51181000D02*
X26985000Y-51120000D01*
X26985000Y-51120000D02*
X29845000Y-51120000D01*
X32385000Y-67310000D02*
X32385000Y-66675000D01*
X32385000Y-66675000D02*
X32385000Y-64450000D01*
X32512000Y-67437000D02*
X32385000Y-67310000D01*
X30099000Y-59690000D02*
X29337000Y-60452000D01*
X29337000Y-60452000D02*
X29337000Y-66040000D01*
X29337000Y-66040000D02*
X30734000Y-67437000D01*
X30734000Y-67437000D02*
X32512000Y-67437000D01*
X31242000Y-42545000D02*
X31242000Y-43180000D01*
D36*
X32832000Y-43180000D02*
X31877000Y-43180000D01*
X31877000Y-43180000D02*
X31242000Y-42545000D01*
D35*
X31242000Y-42545000D02*
X31242000Y-36830000D01*
X44958000Y-48514000D02*
X41656000Y-48514000D01*
X35687000Y-85524340D02*
X37894260Y-83619340D01*
X37894260Y-83619340D02*
X40386000Y-82524600D01*
D36*
X87122000Y-64135000D02*
X89662000Y-64135000D01*
X59182000Y-85090000D02*
X59182000Y-84455000D01*
X59182000Y-84455000D02*
X61722000Y-81915000D01*
X61722000Y-81915000D02*
X61722000Y-78740000D01*
D35*
X59182000Y-85090000D02*
X59182000Y-86995000D01*
X94742000Y-85090000D02*
X94742000Y-73025000D01*
X92202000Y-87630000D02*
X94742000Y-85090000D01*
X59817000Y-87630000D02*
X92202000Y-87630000D01*
X59182000Y-86995000D02*
X59817000Y-87630000D01*
D36*
X41402000Y-36830000D02*
X41402000Y-35560000D01*
X41402000Y-35560000D02*
X40767000Y-34925000D01*
X40767000Y-34925000D02*
X31877000Y-34925000D01*
X31877000Y-34925000D02*
X31242000Y-35560000D01*
X31242000Y-35560000D02*
X31242000Y-36830000D01*
X73152000Y-64008000D02*
X61087000Y-64008000D01*
X79248000Y-79375000D02*
X79248000Y-76962000D01*
X79248000Y-76962000D02*
X79248000Y-64008000D01*
X68072000Y-76835000D02*
X68072000Y-75184000D01*
X70612000Y-76835000D02*
X73152000Y-76835000D01*
X57785000Y-70739000D02*
X57785000Y-58040000D01*
X60579000Y-73533000D02*
X57785000Y-70739000D01*
X63881000Y-73533000D02*
X60579000Y-73533000D01*
X65405000Y-75057000D02*
X63881000Y-73533000D01*
X67945000Y-75057000D02*
X65405000Y-75057000D01*
X68072000Y-75184000D02*
X67945000Y-75057000D01*
X65532000Y-74295000D02*
X65405000Y-74295000D01*
X68072000Y-74295000D02*
X65532000Y-74295000D01*
X73152000Y-74295000D02*
X70612000Y-74295000D01*
X60325000Y-72517000D02*
X60325000Y-58040000D01*
X60706000Y-72898000D02*
X60325000Y-72517000D01*
X64008000Y-72898000D02*
X60706000Y-72898000D01*
X65405000Y-74295000D02*
X64008000Y-72898000D01*
D37*
X80391000Y-66548000D02*
X84455000Y-66548000D01*
X70739000Y-66548000D02*
X73152000Y-66548000D01*
X63373000Y-63119000D02*
X70612000Y-63119000D01*
D36*
X74422000Y-60960000D02*
X74422000Y-79375000D01*
X73152000Y-80645000D02*
X70612000Y-80645000D01*
X74422000Y-79375000D02*
X73152000Y-80645000D01*
X69342000Y-85090000D02*
X69342000Y-71755000D01*
X54102000Y-45720000D02*
X54102000Y-53975000D01*
X54102000Y-60960000D02*
X54102000Y-53975000D01*
X56007000Y-52070000D02*
X82042000Y-52070000D01*
X54102000Y-53975000D02*
X56007000Y-52070000D01*
X32385000Y-51120000D02*
X32385000Y-50165000D01*
X32385000Y-50165000D02*
X32385000Y-48006000D01*
X32766000Y-47625000D02*
X35306000Y-47625000D01*
X32385000Y-48006000D02*
X32766000Y-47625000D01*
X35687000Y-47625000D02*
X35306000Y-47625000D01*
X51562000Y-46990000D02*
X50927000Y-47625000D01*
X50927000Y-47625000D02*
X35687000Y-47625000D01*
X51562000Y-45720000D02*
X51562000Y-46990000D01*
X34925000Y-47244000D02*
X34925000Y-45720000D01*
X35306000Y-47625000D02*
X34925000Y-47244000D01*
X40005000Y-64450000D02*
X40005000Y-65532000D01*
X48895000Y-45720000D02*
X42672000Y-45720000D01*
X38354000Y-49403000D02*
X36449000Y-49403000D01*
X42418000Y-45974000D02*
X42418000Y-46736000D01*
X42672000Y-45720000D02*
X42418000Y-45974000D01*
X61722000Y-45720000D02*
X61722000Y-43180000D01*
X53467000Y-36830000D02*
X43942000Y-36830000D01*
X57912000Y-41275000D02*
X53467000Y-36830000D01*
X59817000Y-41275000D02*
X57912000Y-41275000D01*
X61722000Y-43180000D02*
X59817000Y-41275000D01*
X59182000Y-45720000D02*
X59182000Y-43815000D01*
X38862000Y-39370000D02*
X38862000Y-36830000D01*
X40132000Y-40640000D02*
X38862000Y-39370000D01*
X56007000Y-40640000D02*
X40132000Y-40640000D01*
X59182000Y-43815000D02*
X56007000Y-40640000D01*
X64262000Y-45720000D02*
X64262000Y-44450000D01*
X56642000Y-38735000D02*
X56642000Y-36830000D01*
X58547000Y-40640000D02*
X56642000Y-38735000D01*
X60452000Y-40640000D02*
X58547000Y-40640000D01*
X64262000Y-44450000D02*
X60452000Y-40640000D01*
X66802000Y-45720000D02*
X66802000Y-44450000D01*
X66802000Y-44450000D02*
X61722000Y-39370000D01*
X59817000Y-39370000D02*
X59182000Y-38735000D01*
X61722000Y-39370000D02*
X59817000Y-39370000D01*
X59182000Y-38735000D02*
X59182000Y-36830000D01*
X71882000Y-43180000D02*
X71882000Y-45720000D01*
X66167000Y-42545000D02*
X71247000Y-42545000D01*
X71247000Y-42545000D02*
X71882000Y-43180000D01*
X65532000Y-41910000D02*
X66167000Y-42545000D01*
X65532000Y-41275000D02*
X65532000Y-41910000D01*
X61722000Y-37465000D02*
X65532000Y-41275000D01*
X61722000Y-36830000D02*
X61722000Y-37465000D01*
X87122000Y-47244000D02*
X85598000Y-45720000D01*
X85598000Y-45720000D02*
X79248000Y-45720000D01*
X87630000Y-47752000D02*
X87122000Y-47244000D01*
X87630000Y-53594000D02*
X87630000Y-47752000D01*
X89154000Y-55118000D02*
X87630000Y-53594000D01*
X89154000Y-60960000D02*
X89154000Y-55118000D01*
X84074000Y-60960000D02*
X89154000Y-60960000D01*
X83312000Y-61722000D02*
X84074000Y-60960000D01*
X81788000Y-61722000D02*
X83312000Y-61722000D01*
X81534000Y-61976000D02*
X81788000Y-61722000D01*
X79248000Y-45720000D02*
X76962000Y-45720000D01*
X79756000Y-45212000D02*
X79248000Y-45720000D01*
X79756000Y-42926000D02*
X79756000Y-45212000D01*
X81534000Y-64008000D02*
X81534000Y-61976000D01*
X78994000Y-42164000D02*
X79756000Y-42926000D01*
X64262000Y-67818000D02*
X73152000Y-67818000D01*
X77470000Y-42164000D02*
X78994000Y-42164000D01*
X76962000Y-60960000D02*
X76962000Y-84455000D01*
X76327000Y-85090000D02*
X71882000Y-85090000D01*
X76962000Y-84455000D02*
X76327000Y-85090000D01*
X62611000Y-47498000D02*
X57658000Y-47498000D01*
X55880000Y-50419000D02*
X55118000Y-51181000D01*
X55880000Y-49276000D02*
X55880000Y-50419000D01*
X57658000Y-47498000D02*
X55880000Y-49276000D01*
X50038000Y-53086000D02*
X53086000Y-53086000D01*
X62484000Y-47498000D02*
X62611000Y-47498000D01*
X62611000Y-47498000D02*
X67564000Y-47498000D01*
X67564000Y-47498000D02*
X69342000Y-45720000D01*
D35*
X40767000Y-69215000D02*
X43942000Y-69215000D01*
X34163000Y-69215000D02*
X40767000Y-69215000D01*
X84582000Y-57150000D02*
X88138000Y-57150000D01*
X95250000Y-56642000D02*
X95250000Y-49784000D01*
X94742000Y-57150000D02*
X95250000Y-56642000D01*
X90424000Y-57150000D02*
X94742000Y-57150000D01*
X66802000Y-54610000D02*
X66167000Y-54610000D01*
X66167000Y-54610000D02*
X64897000Y-55880000D01*
X64897000Y-55880000D02*
X55372000Y-55880000D01*
X52832000Y-55880000D02*
X49657000Y-55880000D01*
X49657000Y-55880000D02*
X49022000Y-56515000D01*
X77597000Y-54610000D02*
X66802000Y-54610000D01*
X79502000Y-56515000D02*
X77597000Y-54610000D01*
X79502000Y-60960000D02*
X79502000Y-56515000D01*
X40005000Y-57150000D02*
X41402000Y-57150000D01*
X41656000Y-67437000D02*
X35941000Y-67437000D01*
X42164000Y-66929000D02*
X41656000Y-67437000D01*
X42164000Y-57912000D02*
X42164000Y-66929000D01*
X41402000Y-57150000D02*
X42164000Y-57912000D01*
X54102000Y-85090000D02*
X46736000Y-85090000D01*
X46736000Y-85090000D02*
X45974000Y-84328000D01*
X45974000Y-84328000D02*
X45974000Y-79629000D01*
X33909000Y-67437000D02*
X35179000Y-67437000D01*
X33782000Y-67310000D02*
X33909000Y-67437000D01*
X34925000Y-64450000D02*
X35621000Y-64450000D01*
X35941000Y-64770000D02*
X35941000Y-67437000D01*
X35621000Y-64450000D02*
X35941000Y-64770000D01*
X37465000Y-67437000D02*
X37465000Y-65405000D01*
X35941000Y-67437000D02*
X37465000Y-67437000D01*
X34925000Y-67437000D02*
X35179000Y-67437000D01*
X35179000Y-67437000D02*
X35941000Y-67437000D01*
X36195000Y-51120000D02*
X36195000Y-50165000D01*
X34925000Y-51120000D02*
X36195000Y-51120000D01*
X36195000Y-51120000D02*
X37465000Y-51120000D01*
D36*
X54102000Y-87630000D02*
X54102000Y-85090000D01*
X54737000Y-88265000D02*
X54102000Y-87630000D01*
D35*
X93472000Y-88265000D02*
X54737000Y-88265000D01*
X96012000Y-85725000D02*
X93472000Y-88265000D01*
X96012000Y-64770000D02*
X96012000Y-85725000D01*
D36*
X97917000Y-62865000D02*
X96012000Y-64770000D01*
X59309000Y-83058000D02*
X59436000Y-82931000D01*
X59436000Y-82931000D02*
X59436000Y-81026000D01*
X75946000Y-43942000D02*
X75946000Y-42164000D01*
X75946000Y-42164000D02*
X72644000Y-42164000D01*
X71120000Y-40640000D02*
X69022000Y-40640000D01*
X72644000Y-42164000D02*
X71120000Y-40640000D01*
X64262000Y-69342000D02*
X64262000Y-71374000D01*
D38*
X32832000Y-40640000D02*
X32832000Y-39685000D01*
X32832000Y-39685000D02*
X33782000Y-38735000D01*
X33782000Y-38735000D02*
X33782000Y-36830000D01*
D35*
X50292000Y-49530000D02*
X52832000Y-49530000D01*
X44704000Y-66294000D02*
X44704000Y-63881000D01*
X44704000Y-63881000D02*
X45339000Y-63246000D01*
X45339000Y-63246000D02*
X56642000Y-63246000D01*
X44704000Y-66294000D02*
X44704000Y-77724000D01*
X93980000Y-40894000D02*
X90932000Y-40894000D01*
X56642000Y-80518000D02*
X56642000Y-65532000D01*
X56642000Y-65532000D02*
X56642000Y-63246000D01*
X56642000Y-63246000D02*
X56642000Y-60960000D01*
D38*
X34732000Y-40325000D02*
X36322000Y-38735000D01*
X36322000Y-38735000D02*
X36322000Y-36830000D01*
X34732000Y-43180000D02*
X34732000Y-40640000D01*
X34732000Y-40640000D02*
X34732000Y-40325000D01*
X66802000Y-36830000D02*
X66802000Y-40320000D01*
X66802000Y-40320000D02*
X67122000Y-40640000D01*
X56642000Y-82042000D02*
X58166000Y-82042000D01*
X29845000Y-53020000D02*
X32385000Y-53020000D01*
X32385000Y-57150000D02*
X32385000Y-53020000D01*
X34925000Y-57150000D02*
X34925000Y-53020000D01*
X37465000Y-53020000D02*
X37465000Y-57150000D01*
X40005000Y-62550000D02*
X40005000Y-61722000D01*
X32385000Y-61595000D02*
X32385000Y-62550000D01*
X32766000Y-61214000D02*
X32385000Y-61595000D01*
X39497000Y-61214000D02*
X32766000Y-61214000D01*
X40005000Y-61722000D02*
X39497000Y-61214000D01*
X40005000Y-59690000D02*
X40005000Y-62550000D01*
X34925000Y-62550000D02*
X35875000Y-62550000D01*
X35875000Y-62550000D02*
X36576000Y-61849000D01*
D36*
X47244000Y-72644000D02*
X47244000Y-70104000D01*
D39*
G36*
X98967965Y-34170727D02*
X98085306Y-35051847D01*
X97607026Y-36203674D01*
X97605937Y-37450854D01*
X98082207Y-38603515D01*
X98963327Y-39486174D01*
X100115154Y-39964454D01*
X101362334Y-39965543D01*
X102514995Y-39489273D01*
X103397654Y-38608153D01*
X103875934Y-37456326D01*
X103877023Y-36209146D01*
X103400753Y-35056485D01*
X102519633Y-34173826D01*
X101450781Y-33730000D01*
X104192000Y-33730000D01*
X104192000Y-84839803D01*
X104175400Y-84799628D01*
X103153751Y-83776194D01*
X101818218Y-83221632D01*
X100372126Y-83220370D01*
X99035628Y-83772600D01*
X98012194Y-84794249D01*
X97457632Y-86129782D01*
X97456370Y-87575874D01*
X98008600Y-88912372D01*
X98555273Y-89460000D01*
X28710631Y-89460000D01*
X29241806Y-88929751D01*
X29796368Y-87594218D01*
X29797630Y-86148126D01*
X29657957Y-85810090D01*
X33174940Y-85810090D01*
X33174940Y-87400709D01*
X33271613Y-87634098D01*
X33450241Y-87812727D01*
X33683630Y-87909400D01*
X35274250Y-87909400D01*
X35433000Y-87750650D01*
X35433000Y-85651340D01*
X35687000Y-85651340D01*
X35687000Y-87750650D01*
X35845750Y-87909400D01*
X37436370Y-87909400D01*
X37669759Y-87812727D01*
X37848387Y-87634098D01*
X37945060Y-87400709D01*
X37945060Y-85810090D01*
X37786310Y-85651340D01*
X35687000Y-85651340D01*
X35433000Y-85651340D01*
X33333690Y-85651340D01*
X33174940Y-85810090D01*
X29657957Y-85810090D01*
X29245400Y-84811628D01*
X28223751Y-83788194D01*
X27886057Y-83647971D01*
X33174940Y-83647971D01*
X33174940Y-85238590D01*
X33333690Y-85397340D01*
X35433000Y-85397340D01*
X35433000Y-83298030D01*
X35687000Y-83298030D01*
X35687000Y-85397340D01*
X37786310Y-85397340D01*
X37945060Y-85238590D01*
X37945060Y-84572668D01*
X37970613Y-84634358D01*
X38149241Y-84812987D01*
X38382630Y-84909660D01*
X39973250Y-84909660D01*
X40132000Y-84750910D01*
X40132000Y-82651600D01*
X40386000Y-82651600D01*
X40386000Y-84750910D01*
X40544750Y-84909660D01*
X42135370Y-84909660D01*
X42368759Y-84812987D01*
X42547387Y-84634358D01*
X42644060Y-84400969D01*
X42644060Y-82810350D01*
X42485310Y-82651600D01*
X40386000Y-82651600D01*
X40132000Y-82651600D01*
X38032690Y-82651600D01*
X37873940Y-82810350D01*
X37873940Y-83476272D01*
X37848387Y-83414582D01*
X37669759Y-83235953D01*
X37436370Y-83139280D01*
X35845750Y-83139280D01*
X35687000Y-83298030D01*
X35433000Y-83298030D01*
X35274250Y-83139280D01*
X33683630Y-83139280D01*
X33450241Y-83235953D01*
X33271613Y-83414582D01*
X33174940Y-83647971D01*
X27886057Y-83647971D01*
X26888218Y-83233632D01*
X25442126Y-83232370D01*
X24105628Y-83784600D01*
X23082194Y-84806249D01*
X23062000Y-84854882D01*
X23062000Y-78613000D01*
X23716655Y-78613000D01*
X23842330Y-79244810D01*
X24200222Y-79780433D01*
X24735845Y-80138325D01*
X25367655Y-80264000D01*
X25432345Y-80264000D01*
X26064155Y-80138325D01*
X26599778Y-79780433D01*
X26957670Y-79244810D01*
X27083345Y-78613000D01*
X26957670Y-77981190D01*
X26819765Y-77774800D01*
X33162500Y-77774800D01*
X33162500Y-81274920D01*
X33206778Y-81510237D01*
X33345850Y-81726361D01*
X33558050Y-81871351D01*
X33809940Y-81922360D01*
X37310060Y-81922360D01*
X37545377Y-81878082D01*
X37761501Y-81739010D01*
X37873940Y-81574450D01*
X37873940Y-82238850D01*
X38032690Y-82397600D01*
X40132000Y-82397600D01*
X40132000Y-80298290D01*
X40386000Y-80298290D01*
X40386000Y-82397600D01*
X42485310Y-82397600D01*
X42644060Y-82238850D01*
X42644060Y-80648231D01*
X42547387Y-80414842D01*
X42368759Y-80236213D01*
X42135370Y-80139540D01*
X40544750Y-80139540D01*
X40386000Y-80298290D01*
X40132000Y-80298290D01*
X39973250Y-80139540D01*
X38382630Y-80139540D01*
X38149241Y-80236213D01*
X37970613Y-80414842D01*
X37957500Y-80446500D01*
X37957500Y-79814167D01*
X45038838Y-79814167D01*
X45164000Y-80117083D01*
X45164000Y-84328000D01*
X45225658Y-84637974D01*
X45342834Y-84813339D01*
X45401244Y-84900756D01*
X46163244Y-85662757D01*
X46426027Y-85838343D01*
X46563897Y-85865766D01*
X46736000Y-85900000D01*
X52936653Y-85900000D01*
X53309630Y-86273629D01*
X53317000Y-86276689D01*
X53317000Y-87630000D01*
X53376755Y-87930407D01*
X53546921Y-88185079D01*
X54093052Y-88731210D01*
X54164244Y-88837756D01*
X54427026Y-89013342D01*
X54737000Y-89075000D01*
X93472000Y-89075000D01*
X93781974Y-89013342D01*
X94044756Y-88837756D01*
X96584756Y-86297757D01*
X96696993Y-86129782D01*
X96760342Y-86034974D01*
X96822000Y-85725000D01*
X96822000Y-68451554D01*
X97605937Y-68451554D01*
X98082207Y-69604215D01*
X98963327Y-70486874D01*
X100115154Y-70965154D01*
X101362334Y-70966243D01*
X102514995Y-70489973D01*
X103397654Y-69608853D01*
X103875934Y-68457026D01*
X103877023Y-67209846D01*
X103400753Y-66057185D01*
X102519633Y-65174526D01*
X101367806Y-64696246D01*
X100120626Y-64695157D01*
X98967965Y-65171427D01*
X98085306Y-66052547D01*
X97607026Y-67204374D01*
X97605937Y-68451554D01*
X96822000Y-68451554D01*
X96822000Y-65070158D01*
X98092005Y-63800153D01*
X98102167Y-63800162D01*
X98445943Y-63658117D01*
X98709192Y-63395327D01*
X98851838Y-63051799D01*
X98852162Y-62679833D01*
X98710117Y-62336057D01*
X98447327Y-62072808D01*
X98103799Y-61930162D01*
X97731833Y-61929838D01*
X97388057Y-62071883D01*
X97124808Y-62334673D01*
X96982162Y-62678201D01*
X96982152Y-62689690D01*
X95545790Y-64126052D01*
X95439244Y-64197244D01*
X95263658Y-64460026D01*
X95202000Y-64770000D01*
X95202000Y-85389487D01*
X93136488Y-87455000D01*
X55037158Y-87455000D01*
X54887000Y-87304842D01*
X54887000Y-86277201D01*
X54892303Y-86275010D01*
X55285629Y-85882370D01*
X55371949Y-85674488D01*
X55456990Y-85880303D01*
X55849630Y-86273629D01*
X56362900Y-86486757D01*
X56918661Y-86487242D01*
X57432303Y-86275010D01*
X57637457Y-86070213D01*
X58381392Y-86070213D01*
X58450857Y-86312397D01*
X58974302Y-86499144D01*
X59529368Y-86471362D01*
X59913143Y-86312397D01*
X59982608Y-86070213D01*
X59182000Y-85269605D01*
X58381392Y-86070213D01*
X57637457Y-86070213D01*
X57825629Y-85882370D01*
X57905395Y-85690273D01*
X57959603Y-85821143D01*
X58201787Y-85890608D01*
X59002395Y-85090000D01*
X58201787Y-84289392D01*
X57959603Y-84358857D01*
X57909491Y-84499318D01*
X57827010Y-84299697D01*
X57434370Y-83906371D01*
X56921100Y-83693243D01*
X56365339Y-83692758D01*
X55851697Y-83904990D01*
X55458371Y-84297630D01*
X55372051Y-84505512D01*
X55287010Y-84299697D01*
X54894370Y-83906371D01*
X54381100Y-83693243D01*
X53825339Y-83692758D01*
X53311697Y-83904990D01*
X52936032Y-84280000D01*
X47071513Y-84280000D01*
X46784000Y-83992488D01*
X46784000Y-80116441D01*
X46908838Y-79815799D01*
X46909162Y-79443833D01*
X46767117Y-79100057D01*
X46692940Y-79025750D01*
X49927000Y-79025750D01*
X49927000Y-79816310D01*
X50023673Y-80049699D01*
X50202302Y-80228327D01*
X50435691Y-80325000D01*
X51276250Y-80325000D01*
X51435000Y-80166250D01*
X51435000Y-78867000D01*
X51689000Y-78867000D01*
X51689000Y-80166250D01*
X51847750Y-80325000D01*
X52688309Y-80325000D01*
X52921698Y-80228327D01*
X53100327Y-80049699D01*
X53197000Y-79816310D01*
X53197000Y-79025750D01*
X53038250Y-78867000D01*
X51689000Y-78867000D01*
X51435000Y-78867000D01*
X50085750Y-78867000D01*
X49927000Y-79025750D01*
X46692940Y-79025750D01*
X46504327Y-78836808D01*
X46160799Y-78694162D01*
X45788833Y-78693838D01*
X45445057Y-78835883D01*
X45181808Y-79098673D01*
X45039162Y-79442201D01*
X45038838Y-79814167D01*
X37957500Y-79814167D01*
X37957500Y-77774800D01*
X37913222Y-77539483D01*
X37774150Y-77323359D01*
X37561950Y-77178369D01*
X37310060Y-77127360D01*
X33809940Y-77127360D01*
X33574623Y-77171638D01*
X33358499Y-77310710D01*
X33213509Y-77522910D01*
X33162500Y-77774800D01*
X26819765Y-77774800D01*
X26730501Y-77641208D01*
X26867441Y-77553090D01*
X27012431Y-77340890D01*
X27063440Y-77089000D01*
X27063440Y-75057000D01*
X27019162Y-74821683D01*
X26880090Y-74605559D01*
X26667890Y-74460569D01*
X26416000Y-74409560D01*
X24384000Y-74409560D01*
X24148683Y-74453838D01*
X23932559Y-74592910D01*
X23787569Y-74805110D01*
X23736560Y-75057000D01*
X23736560Y-77089000D01*
X23780838Y-77324317D01*
X23919910Y-77540441D01*
X24068837Y-77642198D01*
X23842330Y-77981190D01*
X23716655Y-78613000D01*
X23062000Y-78613000D01*
X23062000Y-69551874D01*
X23083627Y-69604215D01*
X23964747Y-70486874D01*
X25116574Y-70965154D01*
X26363754Y-70966243D01*
X27516415Y-70489973D01*
X28399074Y-69608853D01*
X28877354Y-68457026D01*
X28878443Y-67209846D01*
X28402173Y-66057185D01*
X27521053Y-65174526D01*
X26464363Y-64735750D01*
X31100000Y-64735750D01*
X31100000Y-64926309D01*
X31196673Y-65159698D01*
X31375301Y-65338327D01*
X31608690Y-65435000D01*
X32099250Y-65435000D01*
X32258000Y-65276250D01*
X32258000Y-64577000D01*
X31258750Y-64577000D01*
X31100000Y-64735750D01*
X26464363Y-64735750D01*
X26369226Y-64696246D01*
X25122046Y-64695157D01*
X23969385Y-65171427D01*
X23086726Y-66052547D01*
X23062000Y-66112094D01*
X23062000Y-52670000D01*
X28547560Y-52670000D01*
X28547560Y-53370000D01*
X28591838Y-53605317D01*
X28730910Y-53821441D01*
X28943110Y-53966431D01*
X29195000Y-54017440D01*
X30495000Y-54017440D01*
X30730317Y-53973162D01*
X30946441Y-53834090D01*
X30983399Y-53780000D01*
X31244243Y-53780000D01*
X31270910Y-53821441D01*
X31483110Y-53966431D01*
X31625000Y-53995164D01*
X31625000Y-55638960D01*
X31521400Y-55638960D01*
X31286083Y-55683238D01*
X31069959Y-55822310D01*
X30924969Y-56034510D01*
X30873960Y-56286400D01*
X30873960Y-58013600D01*
X30918238Y-58248917D01*
X31057310Y-58465041D01*
X31269510Y-58610031D01*
X31366451Y-58629662D01*
X31178179Y-58801510D01*
X30930032Y-59330973D01*
X31050531Y-59563000D01*
X32258000Y-59563000D01*
X32258000Y-59543000D01*
X32512000Y-59543000D01*
X32512000Y-59563000D01*
X32532000Y-59563000D01*
X32532000Y-59817000D01*
X32512000Y-59817000D01*
X32512000Y-59837000D01*
X32258000Y-59837000D01*
X32258000Y-59817000D01*
X31050531Y-59817000D01*
X30930032Y-60049027D01*
X31178179Y-60578490D01*
X31610053Y-60972688D01*
X31840545Y-61068155D01*
X31682852Y-61304161D01*
X31629493Y-61572413D01*
X31499683Y-61596838D01*
X31283559Y-61735910D01*
X31138569Y-61948110D01*
X31087560Y-62200000D01*
X31087560Y-62900000D01*
X31131838Y-63135317D01*
X31270910Y-63351441D01*
X31483110Y-63496431D01*
X31516490Y-63503191D01*
X31375301Y-63561673D01*
X31196673Y-63740302D01*
X31100000Y-63973691D01*
X31100000Y-64164250D01*
X31258750Y-64323000D01*
X32258000Y-64323000D01*
X32258000Y-64303000D01*
X32512000Y-64303000D01*
X32512000Y-64323000D01*
X32532000Y-64323000D01*
X32532000Y-64577000D01*
X32512000Y-64577000D01*
X32512000Y-65276250D01*
X32670750Y-65435000D01*
X33161310Y-65435000D01*
X33394699Y-65338327D01*
X33573327Y-65159698D01*
X33657160Y-64957308D01*
X33671838Y-65035317D01*
X33810910Y-65251441D01*
X34023110Y-65396431D01*
X34275000Y-65447440D01*
X35131000Y-65447440D01*
X35131000Y-66627000D01*
X34421329Y-66627000D01*
X34312327Y-66517808D01*
X33968799Y-66375162D01*
X33596833Y-66374838D01*
X33253057Y-66516883D01*
X32989808Y-66779673D01*
X32847162Y-67123201D01*
X32846838Y-67495167D01*
X32988883Y-67838943D01*
X33251673Y-68102192D01*
X33595201Y-68244838D01*
X33899463Y-68245103D01*
X33909000Y-68247000D01*
X35453559Y-68247000D01*
X35754201Y-68371838D01*
X36126167Y-68372162D01*
X36429083Y-68247000D01*
X41656000Y-68247000D01*
X41965974Y-68185342D01*
X42228756Y-68009756D01*
X42736756Y-67501757D01*
X42844710Y-67340192D01*
X42912342Y-67238974D01*
X42974000Y-66929000D01*
X42974000Y-57912000D01*
X42936357Y-57722756D01*
X42912343Y-57602027D01*
X42736757Y-57339244D01*
X41974756Y-56577244D01*
X41929720Y-56547152D01*
X41711974Y-56401658D01*
X41402000Y-56340000D01*
X41251111Y-56340000D01*
X41064670Y-56060971D01*
X40578489Y-55736115D01*
X40005000Y-55622041D01*
X39431511Y-55736115D01*
X38945330Y-56060971D01*
X38735000Y-56375752D01*
X38524670Y-56060971D01*
X38225000Y-55860738D01*
X38225000Y-53996742D01*
X38350317Y-53973162D01*
X38566441Y-53834090D01*
X38711431Y-53621890D01*
X38762440Y-53370000D01*
X38762440Y-52670000D01*
X38718162Y-52434683D01*
X38579090Y-52218559D01*
X38366890Y-52073569D01*
X38353803Y-52070919D01*
X38566441Y-51934090D01*
X38711431Y-51721890D01*
X38762440Y-51470000D01*
X38762440Y-50770000D01*
X38718162Y-50534683D01*
X38580669Y-50321014D01*
X38882943Y-50196117D01*
X39146192Y-49933327D01*
X39288838Y-49589799D01*
X39289162Y-49217833D01*
X39147117Y-48874057D01*
X38884327Y-48610808D01*
X38540799Y-48468162D01*
X38168833Y-48467838D01*
X37825057Y-48609883D01*
X37816926Y-48618000D01*
X36986506Y-48618000D01*
X36979327Y-48610808D01*
X36635799Y-48468162D01*
X36263833Y-48467838D01*
X35920057Y-48609883D01*
X35656808Y-48872673D01*
X35514162Y-49216201D01*
X35513894Y-49523781D01*
X35402808Y-49634673D01*
X35260162Y-49978201D01*
X35260036Y-50122560D01*
X34275000Y-50122560D01*
X34039683Y-50166838D01*
X33823559Y-50305910D01*
X33678569Y-50518110D01*
X33656007Y-50629523D01*
X33638162Y-50534683D01*
X33499090Y-50318559D01*
X33319974Y-50196174D01*
X33320162Y-49979833D01*
X33178117Y-49636057D01*
X33170000Y-49627926D01*
X33170000Y-48410000D01*
X50927000Y-48410000D01*
X51227407Y-48350245D01*
X51482079Y-48180079D01*
X52117079Y-47545079D01*
X52287245Y-47290406D01*
X52330235Y-47074287D01*
X52494670Y-46964415D01*
X52705000Y-46649634D01*
X52915330Y-46964415D01*
X53317000Y-47232803D01*
X53317000Y-48718986D01*
X53018799Y-48595162D01*
X52646833Y-48594838D01*
X52343917Y-48720000D01*
X50779441Y-48720000D01*
X50478799Y-48595162D01*
X50106833Y-48594838D01*
X49763057Y-48736883D01*
X49499808Y-48999673D01*
X49357162Y-49343201D01*
X49356838Y-49715167D01*
X49498883Y-50058943D01*
X49761673Y-50322192D01*
X50105201Y-50464838D01*
X50477167Y-50465162D01*
X50780083Y-50340000D01*
X52344559Y-50340000D01*
X52645201Y-50464838D01*
X53017167Y-50465162D01*
X53317000Y-50341274D01*
X53317000Y-52169516D01*
X53272799Y-52151162D01*
X52900833Y-52150838D01*
X52557057Y-52292883D01*
X52548926Y-52301000D01*
X50575506Y-52301000D01*
X50568327Y-52293808D01*
X50224799Y-52151162D01*
X49852833Y-52150838D01*
X49509057Y-52292883D01*
X49245808Y-52555673D01*
X49103162Y-52899201D01*
X49102838Y-53271167D01*
X49244883Y-53614943D01*
X49507673Y-53878192D01*
X49851201Y-54020838D01*
X50223167Y-54021162D01*
X50566943Y-53879117D01*
X50575074Y-53871000D01*
X52548494Y-53871000D01*
X52555673Y-53878192D01*
X52899201Y-54020838D01*
X53271167Y-54021162D01*
X53317000Y-54002224D01*
X53317000Y-55068986D01*
X53018799Y-54945162D01*
X52646833Y-54944838D01*
X52343917Y-55070000D01*
X49657000Y-55070000D01*
X49347027Y-55131657D01*
X49084244Y-55307243D01*
X48793917Y-55597571D01*
X48493057Y-55721883D01*
X48229808Y-55984673D01*
X48087162Y-56328201D01*
X48086838Y-56700167D01*
X48228883Y-57043943D01*
X48491673Y-57307192D01*
X48835201Y-57449838D01*
X49207167Y-57450162D01*
X49550943Y-57308117D01*
X49814192Y-57045327D01*
X49939884Y-56742629D01*
X49992513Y-56690000D01*
X52344559Y-56690000D01*
X52645201Y-56814838D01*
X53017167Y-56815162D01*
X53317000Y-56691274D01*
X53317000Y-59447197D01*
X52915330Y-59715585D01*
X52708539Y-60025069D01*
X52337036Y-59609268D01*
X51809791Y-59355291D01*
X51794026Y-59352642D01*
X51562000Y-59473783D01*
X51562000Y-60833000D01*
X51582000Y-60833000D01*
X51582000Y-61087000D01*
X51562000Y-61087000D01*
X51562000Y-61107000D01*
X51308000Y-61107000D01*
X51308000Y-61087000D01*
X51288000Y-61087000D01*
X51288000Y-60833000D01*
X51308000Y-60833000D01*
X51308000Y-59473783D01*
X51075974Y-59352642D01*
X51060209Y-59355291D01*
X50532964Y-59609268D01*
X50161461Y-60025069D01*
X49954670Y-59715585D01*
X49468489Y-59390729D01*
X48895000Y-59276655D01*
X48321511Y-59390729D01*
X47835330Y-59715585D01*
X47510474Y-60201766D01*
X47396400Y-60775255D01*
X47396400Y-61144745D01*
X47510474Y-61718234D01*
X47835330Y-62204415D01*
X48181921Y-62436000D01*
X45339000Y-62436000D01*
X45029027Y-62497657D01*
X44766244Y-62673243D01*
X44131244Y-63308244D01*
X43955658Y-63571026D01*
X43894000Y-63881000D01*
X43894000Y-68279957D01*
X43756833Y-68279838D01*
X43453917Y-68405000D01*
X34650441Y-68405000D01*
X34349799Y-68280162D01*
X33977833Y-68279838D01*
X33634057Y-68421883D01*
X33370808Y-68684673D01*
X33228162Y-69028201D01*
X33227838Y-69400167D01*
X33369883Y-69743943D01*
X33632673Y-70007192D01*
X33976201Y-70149838D01*
X34348167Y-70150162D01*
X34651083Y-70025000D01*
X43454559Y-70025000D01*
X43755201Y-70149838D01*
X43894000Y-70149959D01*
X43894000Y-77236559D01*
X43769162Y-77537201D01*
X43768838Y-77909167D01*
X43910883Y-78252943D01*
X44173673Y-78516192D01*
X44517201Y-78658838D01*
X44889167Y-78659162D01*
X45232943Y-78517117D01*
X45496192Y-78254327D01*
X45638838Y-77910799D01*
X45639053Y-77663690D01*
X49927000Y-77663690D01*
X49927000Y-78454250D01*
X50085750Y-78613000D01*
X51435000Y-78613000D01*
X51435000Y-78593000D01*
X51689000Y-78593000D01*
X51689000Y-78613000D01*
X53038250Y-78613000D01*
X53197000Y-78454250D01*
X53197000Y-77663690D01*
X53100327Y-77430301D01*
X52921698Y-77251673D01*
X52801749Y-77201988D01*
X52904914Y-77099003D01*
X53146724Y-76516659D01*
X53147275Y-75886107D01*
X52906481Y-75303343D01*
X52461003Y-74857086D01*
X51878659Y-74615276D01*
X51248107Y-74614725D01*
X50665343Y-74855519D01*
X50219086Y-75300997D01*
X49977276Y-75883341D01*
X49976725Y-76513893D01*
X50217519Y-77096657D01*
X50322545Y-77201867D01*
X50202302Y-77251673D01*
X50023673Y-77430301D01*
X49927000Y-77663690D01*
X45639053Y-77663690D01*
X45639162Y-77538833D01*
X45514000Y-77235917D01*
X45514000Y-70289167D01*
X46308838Y-70289167D01*
X46450883Y-70632943D01*
X46459000Y-70641074D01*
X46459000Y-72106494D01*
X46451808Y-72113673D01*
X46309162Y-72457201D01*
X46308838Y-72829167D01*
X46450883Y-73172943D01*
X46713673Y-73436192D01*
X47057201Y-73578838D01*
X47429167Y-73579162D01*
X47772943Y-73437117D01*
X48036192Y-73174327D01*
X48178838Y-72830799D01*
X48179162Y-72458833D01*
X48037117Y-72115057D01*
X48029000Y-72106926D01*
X48029000Y-70641506D01*
X48036192Y-70634327D01*
X48178838Y-70290799D01*
X48179162Y-69918833D01*
X48037117Y-69575057D01*
X47774327Y-69311808D01*
X47430799Y-69169162D01*
X47058833Y-69168838D01*
X46715057Y-69310883D01*
X46451808Y-69573673D01*
X46309162Y-69917201D01*
X46308838Y-70289167D01*
X45514000Y-70289167D01*
X45514000Y-64216512D01*
X45674513Y-64056000D01*
X55832000Y-64056000D01*
X55832000Y-79658470D01*
X55809559Y-79672910D01*
X55664569Y-79885110D01*
X55613560Y-80137000D01*
X55613560Y-80899000D01*
X55632141Y-80997747D01*
X55613560Y-81089500D01*
X55613560Y-82423000D01*
X55657838Y-82658317D01*
X55796910Y-82874441D01*
X56009110Y-83019431D01*
X56261000Y-83070440D01*
X57277000Y-83070440D01*
X57512317Y-83026162D01*
X57728441Y-82887090D01*
X57736093Y-82875890D01*
X57979201Y-82976838D01*
X58351167Y-82977162D01*
X58374078Y-82967695D01*
X58373838Y-83243167D01*
X58515883Y-83586943D01*
X58695073Y-83766445D01*
X58450857Y-83867603D01*
X58381392Y-84109787D01*
X59182000Y-84910395D01*
X59982608Y-84109787D01*
X59913143Y-83867603D01*
X59845576Y-83843497D01*
X60101192Y-83588327D01*
X60243838Y-83244799D01*
X60244162Y-82872833D01*
X60221000Y-82816777D01*
X60221000Y-81563506D01*
X60228192Y-81556327D01*
X60370838Y-81212799D01*
X60371162Y-80840833D01*
X60229117Y-80497057D01*
X59966327Y-80233808D01*
X59622799Y-80091162D01*
X59250833Y-80090838D01*
X58907057Y-80232883D01*
X58643808Y-80495673D01*
X58501162Y-80839201D01*
X58500875Y-81168649D01*
X58352799Y-81107162D01*
X57980833Y-81106838D01*
X57924440Y-81130139D01*
X57924440Y-81089500D01*
X57905859Y-80990753D01*
X57924440Y-80899000D01*
X57924440Y-80137000D01*
X57880162Y-79901683D01*
X57741090Y-79685559D01*
X57528890Y-79540569D01*
X57452000Y-79524998D01*
X57452000Y-79025750D01*
X60087000Y-79025750D01*
X60087000Y-79816310D01*
X60183673Y-80049699D01*
X60362302Y-80228327D01*
X60595691Y-80325000D01*
X61436250Y-80325000D01*
X61595000Y-80166250D01*
X61595000Y-78867000D01*
X61849000Y-78867000D01*
X61849000Y-80166250D01*
X62007750Y-80325000D01*
X62848309Y-80325000D01*
X63081698Y-80228327D01*
X63260327Y-80049699D01*
X63357000Y-79816310D01*
X63357000Y-79025750D01*
X63198250Y-78867000D01*
X61849000Y-78867000D01*
X61595000Y-78867000D01*
X60245750Y-78867000D01*
X60087000Y-79025750D01*
X57452000Y-79025750D01*
X57452000Y-77663690D01*
X60087000Y-77663690D01*
X60087000Y-78454250D01*
X60245750Y-78613000D01*
X61595000Y-78613000D01*
X61595000Y-78593000D01*
X61849000Y-78593000D01*
X61849000Y-78613000D01*
X63198250Y-78613000D01*
X63357000Y-78454250D01*
X63357000Y-77663690D01*
X63260327Y-77430301D01*
X63081698Y-77251673D01*
X62961749Y-77201988D01*
X63064914Y-77099003D01*
X63306724Y-76516659D01*
X63307275Y-75886107D01*
X63066481Y-75303343D01*
X62621003Y-74857086D01*
X62038659Y-74615276D01*
X61408107Y-74614725D01*
X60825343Y-74855519D01*
X60379086Y-75300997D01*
X60137276Y-75883341D01*
X60136725Y-76513893D01*
X60377519Y-77096657D01*
X60482545Y-77201867D01*
X60362302Y-77251673D01*
X60183673Y-77430301D01*
X60087000Y-77663690D01*
X57452000Y-77663690D01*
X57452000Y-71516158D01*
X60023921Y-74088079D01*
X60278594Y-74258245D01*
X60579000Y-74318000D01*
X63555842Y-74318000D01*
X64849919Y-75612076D01*
X64849921Y-75612079D01*
X65104594Y-75782245D01*
X65405000Y-75842000D01*
X67287000Y-75842000D01*
X67287000Y-76297494D01*
X67279808Y-76304673D01*
X67137162Y-76648201D01*
X67136838Y-77020167D01*
X67278883Y-77363943D01*
X67541673Y-77627192D01*
X67885201Y-77769838D01*
X68257167Y-77770162D01*
X68557000Y-77646274D01*
X68557000Y-83902799D01*
X68551697Y-83904990D01*
X68158371Y-84297630D01*
X68072051Y-84505512D01*
X67987010Y-84299697D01*
X67594370Y-83906371D01*
X67081100Y-83693243D01*
X66525339Y-83692758D01*
X66011697Y-83904990D01*
X65618371Y-84297630D01*
X65532051Y-84505512D01*
X65447010Y-84299697D01*
X65054370Y-83906371D01*
X64541100Y-83693243D01*
X63985339Y-83692758D01*
X63471697Y-83904990D01*
X63078371Y-84297630D01*
X62992051Y-84505512D01*
X62907010Y-84299697D01*
X62514370Y-83906371D01*
X62001100Y-83693243D01*
X61445339Y-83692758D01*
X60931697Y-83904990D01*
X60538371Y-84297630D01*
X60458605Y-84489727D01*
X60404397Y-84358857D01*
X60162213Y-84289392D01*
X59361605Y-85090000D01*
X60162213Y-85890608D01*
X60404397Y-85821143D01*
X60454509Y-85680682D01*
X60536990Y-85880303D01*
X60929630Y-86273629D01*
X61442900Y-86486757D01*
X61998661Y-86487242D01*
X62512303Y-86275010D01*
X62905629Y-85882370D01*
X62991949Y-85674488D01*
X63076990Y-85880303D01*
X63469630Y-86273629D01*
X63982900Y-86486757D01*
X64538661Y-86487242D01*
X65052303Y-86275010D01*
X65445629Y-85882370D01*
X65531949Y-85674488D01*
X65616990Y-85880303D01*
X66009630Y-86273629D01*
X66522900Y-86486757D01*
X67078661Y-86487242D01*
X67592303Y-86275010D01*
X67985629Y-85882370D01*
X68071949Y-85674488D01*
X68156990Y-85880303D01*
X68549630Y-86273629D01*
X69062900Y-86486757D01*
X69618661Y-86487242D01*
X70132303Y-86275010D01*
X70525629Y-85882370D01*
X70611949Y-85674488D01*
X70696990Y-85880303D01*
X71089630Y-86273629D01*
X71602900Y-86486757D01*
X72158661Y-86487242D01*
X72672303Y-86275010D01*
X73065629Y-85882370D01*
X73068689Y-85875000D01*
X76327000Y-85875000D01*
X76627407Y-85815245D01*
X76882079Y-85645079D01*
X77517079Y-85010079D01*
X77687245Y-84755406D01*
X77747001Y-84455000D01*
X77747000Y-84454995D01*
X77747000Y-64193167D01*
X78312838Y-64193167D01*
X78454883Y-64536943D01*
X78463000Y-64545074D01*
X78463000Y-78837494D01*
X78455808Y-78844673D01*
X78313162Y-79188201D01*
X78312838Y-79560167D01*
X78454883Y-79903943D01*
X78717673Y-80167192D01*
X79061201Y-80309838D01*
X79433167Y-80310162D01*
X79776943Y-80168117D01*
X80040192Y-79905327D01*
X80182838Y-79561799D01*
X80183162Y-79189833D01*
X80041117Y-78846057D01*
X80033000Y-78837926D01*
X80033000Y-72031661D01*
X81914758Y-72031661D01*
X82126990Y-72545303D01*
X82519630Y-72938629D01*
X82727512Y-73024949D01*
X82521697Y-73109990D01*
X82128371Y-73502630D01*
X81915243Y-74015900D01*
X81914758Y-74571661D01*
X82126990Y-75085303D01*
X82519630Y-75478629D01*
X82727512Y-75564949D01*
X82521697Y-75649990D01*
X82128371Y-76042630D01*
X81915243Y-76555900D01*
X81914758Y-77111661D01*
X82126990Y-77625303D01*
X82519630Y-78018629D01*
X82727512Y-78104949D01*
X82521697Y-78189990D01*
X82128371Y-78582630D01*
X81915243Y-79095900D01*
X81914758Y-79651661D01*
X82126990Y-80165303D01*
X82519630Y-80558629D01*
X82727512Y-80644949D01*
X82521697Y-80729990D01*
X82128371Y-81122630D01*
X81915243Y-81635900D01*
X81914758Y-82191661D01*
X82126990Y-82705303D01*
X82519630Y-83098629D01*
X83032900Y-83311757D01*
X83588661Y-83312242D01*
X84102303Y-83100010D01*
X84495629Y-82707370D01*
X84708757Y-82194100D01*
X84709242Y-81638339D01*
X84663729Y-81528187D01*
X91274752Y-81528187D01*
X91492757Y-82055800D01*
X91896077Y-82459824D01*
X92423309Y-82678750D01*
X92994187Y-82679248D01*
X93521800Y-82461243D01*
X93925824Y-82057923D01*
X94144750Y-81530691D01*
X94145248Y-80959813D01*
X93927243Y-80432200D01*
X93523923Y-80028176D01*
X92996691Y-79809250D01*
X92425813Y-79808752D01*
X91898200Y-80026757D01*
X91494176Y-80430077D01*
X91275250Y-80957309D01*
X91274752Y-81528187D01*
X84663729Y-81528187D01*
X84497010Y-81124697D01*
X84104370Y-80731371D01*
X83896488Y-80645051D01*
X84102303Y-80560010D01*
X84495629Y-80167370D01*
X84708757Y-79654100D01*
X84709242Y-79098339D01*
X84497010Y-78584697D01*
X84104370Y-78191371D01*
X83896488Y-78105051D01*
X84102303Y-78020010D01*
X84495629Y-77627370D01*
X84708757Y-77114100D01*
X84709242Y-76558339D01*
X84497010Y-76044697D01*
X84104370Y-75651371D01*
X83896488Y-75565051D01*
X84102303Y-75480010D01*
X84495629Y-75087370D01*
X84708757Y-74574100D01*
X84708831Y-74488187D01*
X91274752Y-74488187D01*
X91492757Y-75015800D01*
X91896077Y-75419824D01*
X92423309Y-75638750D01*
X92994187Y-75639248D01*
X93521800Y-75421243D01*
X93925824Y-75017923D01*
X94144750Y-74490691D01*
X94145248Y-73919813D01*
X93927243Y-73392200D01*
X93523923Y-72988176D01*
X92996691Y-72769250D01*
X92425813Y-72768752D01*
X91898200Y-72986757D01*
X91494176Y-73390077D01*
X91275250Y-73917309D01*
X91274752Y-74488187D01*
X84708831Y-74488187D01*
X84709242Y-74018339D01*
X84497010Y-73504697D01*
X84104370Y-73111371D01*
X83896488Y-73025051D01*
X84102303Y-72940010D01*
X84495629Y-72547370D01*
X84708757Y-72034100D01*
X84709242Y-71478339D01*
X84497010Y-70964697D01*
X84104370Y-70571371D01*
X83912273Y-70491605D01*
X84043143Y-70437397D01*
X84112608Y-70195213D01*
X83312000Y-69394605D01*
X82511392Y-70195213D01*
X82580857Y-70437397D01*
X82721318Y-70487509D01*
X82521697Y-70569990D01*
X82128371Y-70962630D01*
X81915243Y-71475900D01*
X81914758Y-72031661D01*
X80033000Y-72031661D01*
X80033000Y-69007302D01*
X81902856Y-69007302D01*
X81930638Y-69562368D01*
X82089603Y-69946143D01*
X82331787Y-70015608D01*
X83132395Y-69215000D01*
X83491605Y-69215000D01*
X84292213Y-70015608D01*
X84534397Y-69946143D01*
X84721144Y-69422698D01*
X84693362Y-68867632D01*
X84534397Y-68483857D01*
X84292213Y-68414392D01*
X83491605Y-69215000D01*
X83132395Y-69215000D01*
X82331787Y-68414392D01*
X82089603Y-68483857D01*
X81902856Y-69007302D01*
X80033000Y-69007302D01*
X80033000Y-68234787D01*
X82511392Y-68234787D01*
X83312000Y-69035395D01*
X84112608Y-68234787D01*
X84043143Y-67992603D01*
X83519698Y-67805856D01*
X82964632Y-67833638D01*
X82580857Y-67992603D01*
X82511392Y-68234787D01*
X80033000Y-68234787D01*
X80033000Y-67411749D01*
X80204201Y-67482838D01*
X80576167Y-67483162D01*
X80919943Y-67341117D01*
X80978162Y-67283000D01*
X83867581Y-67283000D01*
X83924673Y-67340192D01*
X84268201Y-67482838D01*
X84640167Y-67483162D01*
X84983943Y-67341117D01*
X85247192Y-67078327D01*
X85389838Y-66734799D01*
X85390162Y-66362833D01*
X85248117Y-66019057D01*
X84985327Y-65755808D01*
X84641799Y-65613162D01*
X84269833Y-65612838D01*
X83926057Y-65754883D01*
X83867838Y-65813000D01*
X80978419Y-65813000D01*
X80921327Y-65755808D01*
X80577799Y-65613162D01*
X80205833Y-65612838D01*
X80033000Y-65684251D01*
X80033000Y-64545506D01*
X80040192Y-64538327D01*
X80182838Y-64194799D01*
X80183162Y-63822833D01*
X80041117Y-63479057D01*
X79778327Y-63215808D01*
X79434799Y-63073162D01*
X79062833Y-63072838D01*
X78719057Y-63214883D01*
X78455808Y-63477673D01*
X78313162Y-63821201D01*
X78312838Y-64193167D01*
X77747000Y-64193167D01*
X77747000Y-62303085D01*
X77894670Y-62204415D01*
X78219526Y-61718234D01*
X78333600Y-61144745D01*
X78333600Y-60775255D01*
X78219526Y-60201766D01*
X77894670Y-59715585D01*
X77408489Y-59390729D01*
X76835000Y-59276655D01*
X76261511Y-59390729D01*
X75775330Y-59715585D01*
X75565000Y-60030366D01*
X75354670Y-59715585D01*
X74868489Y-59390729D01*
X74295000Y-59276655D01*
X73721511Y-59390729D01*
X73235330Y-59715585D01*
X73025000Y-60030366D01*
X72814670Y-59715585D01*
X72328489Y-59390729D01*
X71755000Y-59276655D01*
X71472052Y-59332937D01*
X71544670Y-59284415D01*
X71869526Y-58798234D01*
X71983600Y-58224745D01*
X71983600Y-57855255D01*
X71869526Y-57281766D01*
X71544670Y-56795585D01*
X71058489Y-56470729D01*
X70485000Y-56356655D01*
X69911511Y-56470729D01*
X69425330Y-56795585D01*
X69215000Y-57110366D01*
X69004670Y-56795585D01*
X68518489Y-56470729D01*
X67945000Y-56356655D01*
X67371511Y-56470729D01*
X66885330Y-56795585D01*
X66560474Y-57281766D01*
X66446400Y-57855255D01*
X66446400Y-58224745D01*
X66560474Y-58798234D01*
X66885330Y-59284415D01*
X66957948Y-59332937D01*
X66675000Y-59276655D01*
X66101511Y-59390729D01*
X65615330Y-59715585D01*
X65405000Y-60030366D01*
X65194670Y-59715585D01*
X64708489Y-59390729D01*
X64135000Y-59276655D01*
X63561511Y-59390729D01*
X63075330Y-59715585D01*
X62865000Y-60030366D01*
X62654670Y-59715585D01*
X62168489Y-59390729D01*
X61595000Y-59276655D01*
X61312052Y-59332937D01*
X61384670Y-59284415D01*
X61709526Y-58798234D01*
X61823600Y-58224745D01*
X61823600Y-57855255D01*
X61709526Y-57281766D01*
X61384670Y-56795585D01*
X61226651Y-56690000D01*
X64897000Y-56690000D01*
X65206974Y-56628342D01*
X65469756Y-56452756D01*
X66447366Y-55475147D01*
X66615201Y-55544838D01*
X66987167Y-55545162D01*
X67290083Y-55420000D01*
X77261488Y-55420000D01*
X78692000Y-56850513D01*
X78692000Y-60472559D01*
X78567162Y-60773201D01*
X78566838Y-61145167D01*
X78708883Y-61488943D01*
X78971673Y-61752192D01*
X79315201Y-61894838D01*
X79687167Y-61895162D01*
X80030943Y-61753117D01*
X80294192Y-61490327D01*
X80436838Y-61146799D01*
X80437162Y-60774833D01*
X80312000Y-60471917D01*
X80312000Y-56515000D01*
X80274843Y-56328201D01*
X80250343Y-56205027D01*
X80074757Y-55942244D01*
X78169756Y-54037244D01*
X78140117Y-54017440D01*
X77906974Y-53861658D01*
X77597000Y-53800000D01*
X67289441Y-53800000D01*
X66988799Y-53675162D01*
X66616833Y-53674838D01*
X66313917Y-53800000D01*
X66167000Y-53800000D01*
X65857026Y-53861658D01*
X65808014Y-53894407D01*
X65594243Y-54037244D01*
X64561488Y-55070000D01*
X55859441Y-55070000D01*
X55558799Y-54945162D01*
X55186833Y-54944838D01*
X54887000Y-55068726D01*
X54887000Y-54300158D01*
X56332158Y-52855000D01*
X80769442Y-52855000D01*
X80952971Y-53129670D01*
X81267752Y-53340000D01*
X80952971Y-53550330D01*
X80628115Y-54036511D01*
X80514041Y-54610000D01*
X80628115Y-55183489D01*
X80952971Y-55669670D01*
X80966642Y-55678805D01*
X80943083Y-55683238D01*
X80726959Y-55822310D01*
X80581969Y-56034510D01*
X80530960Y-56286400D01*
X80530960Y-58013600D01*
X80575238Y-58248917D01*
X80714310Y-58465041D01*
X80926510Y-58610031D01*
X81178400Y-58661040D01*
X82905600Y-58661040D01*
X83140917Y-58616762D01*
X83357041Y-58477690D01*
X83502031Y-58265490D01*
X83510908Y-58221655D01*
X83979152Y-58534526D01*
X84552641Y-58648600D01*
X84611359Y-58648600D01*
X85184848Y-58534526D01*
X85671029Y-58209670D01*
X85837853Y-57960000D01*
X87650559Y-57960000D01*
X87951201Y-58084838D01*
X88323167Y-58085162D01*
X88369000Y-58066224D01*
X88369000Y-60175000D01*
X84074000Y-60175000D01*
X83773594Y-60234755D01*
X83518921Y-60404921D01*
X82986842Y-60937000D01*
X81788000Y-60937000D01*
X81487593Y-60996755D01*
X81232921Y-61166921D01*
X80978921Y-61420921D01*
X80808755Y-61675593D01*
X80789976Y-61770000D01*
X80749000Y-61976000D01*
X80749000Y-63470494D01*
X80741808Y-63477673D01*
X80599162Y-63821201D01*
X80598838Y-64193167D01*
X80740883Y-64536943D01*
X81003673Y-64800192D01*
X81347201Y-64942838D01*
X81719167Y-64943162D01*
X82062943Y-64801117D01*
X82326192Y-64538327D01*
X82468838Y-64194799D01*
X82469162Y-63822833D01*
X82327117Y-63479057D01*
X82319000Y-63470926D01*
X82319000Y-62507000D01*
X83312000Y-62507000D01*
X83612407Y-62447245D01*
X83867079Y-62277079D01*
X84399158Y-61745000D01*
X89154000Y-61745000D01*
X89454406Y-61685245D01*
X89709079Y-61515079D01*
X89879245Y-61260406D01*
X89939000Y-60960000D01*
X89939000Y-57961014D01*
X90237201Y-58084838D01*
X90609167Y-58085162D01*
X90912083Y-57960000D01*
X94742000Y-57960000D01*
X95051974Y-57898342D01*
X95314756Y-57722756D01*
X95822756Y-57214757D01*
X95936890Y-57043943D01*
X95998342Y-56951974D01*
X96060000Y-56642000D01*
X96060000Y-50271441D01*
X96184838Y-49970799D01*
X96185162Y-49598833D01*
X96043117Y-49255057D01*
X95780327Y-48991808D01*
X95436799Y-48849162D01*
X95064833Y-48848838D01*
X94721057Y-48990883D01*
X94457808Y-49253673D01*
X94315162Y-49597201D01*
X94314838Y-49969167D01*
X94440000Y-50272083D01*
X94440000Y-56306487D01*
X94406488Y-56340000D01*
X90911441Y-56340000D01*
X90610799Y-56215162D01*
X90238833Y-56214838D01*
X89939000Y-56338726D01*
X89939000Y-55118000D01*
X89879245Y-54817594D01*
X89709079Y-54562921D01*
X89709076Y-54562919D01*
X88415000Y-53268842D01*
X88415000Y-47752000D01*
X88355245Y-47451594D01*
X88185079Y-47196921D01*
X88185076Y-47196919D01*
X87677079Y-46688921D01*
X87677076Y-46688919D01*
X86153079Y-45164921D01*
X85898407Y-44994755D01*
X85598000Y-44935000D01*
X80541000Y-44935000D01*
X80541000Y-42926000D01*
X80481245Y-42625594D01*
X80311079Y-42370921D01*
X79549079Y-41608921D01*
X79294407Y-41438755D01*
X78994000Y-41379000D01*
X78597216Y-41379000D01*
X78581162Y-41293683D01*
X78443125Y-41079167D01*
X89996838Y-41079167D01*
X90138883Y-41422943D01*
X90401673Y-41686192D01*
X90745201Y-41828838D01*
X91117167Y-41829162D01*
X91420083Y-41704000D01*
X93492559Y-41704000D01*
X93793201Y-41828838D01*
X94165167Y-41829162D01*
X94508943Y-41687117D01*
X94772192Y-41424327D01*
X94914838Y-41080799D01*
X94915162Y-40708833D01*
X94773117Y-40365057D01*
X94510327Y-40101808D01*
X94166799Y-39959162D01*
X93794833Y-39958838D01*
X93491917Y-40084000D01*
X91419441Y-40084000D01*
X91118799Y-39959162D01*
X90746833Y-39958838D01*
X90403057Y-40100883D01*
X90139808Y-40363673D01*
X89997162Y-40707201D01*
X89996838Y-41079167D01*
X78443125Y-41079167D01*
X78442090Y-41077559D01*
X78229890Y-40932569D01*
X77978000Y-40881560D01*
X77216000Y-40881560D01*
X77117253Y-40900141D01*
X77025500Y-40881560D01*
X75692000Y-40881560D01*
X75456683Y-40925838D01*
X75240559Y-41064910D01*
X75095569Y-41277110D01*
X75074936Y-41379000D01*
X72969157Y-41379000D01*
X71675079Y-40084921D01*
X71420407Y-39914755D01*
X71120000Y-39855000D01*
X69994038Y-39855000D01*
X69975162Y-39754683D01*
X69836090Y-39538559D01*
X69623890Y-39393569D01*
X69372000Y-39342560D01*
X68672000Y-39342560D01*
X68436683Y-39386838D01*
X68220559Y-39525910D01*
X68075569Y-39738110D01*
X68072919Y-39751197D01*
X67936090Y-39538559D01*
X67723890Y-39393569D01*
X67562000Y-39360785D01*
X67562000Y-38570749D01*
X67887409Y-38353318D01*
X68078192Y-38067790D01*
X68346394Y-38405212D01*
X68871914Y-38696756D01*
X68977260Y-38721036D01*
X69215000Y-38600378D01*
X69215000Y-36957000D01*
X69469000Y-36957000D01*
X69469000Y-38600378D01*
X69706740Y-38721036D01*
X69812086Y-38696756D01*
X70337606Y-38405212D01*
X70711554Y-37934752D01*
X70877000Y-37357000D01*
X70877000Y-36957000D01*
X69469000Y-36957000D01*
X69215000Y-36957000D01*
X69195000Y-36957000D01*
X69195000Y-36703000D01*
X69215000Y-36703000D01*
X69215000Y-35059622D01*
X69469000Y-35059622D01*
X69469000Y-36703000D01*
X70877000Y-36703000D01*
X70877000Y-36303000D01*
X70711554Y-35725248D01*
X70337606Y-35254788D01*
X69812086Y-34963244D01*
X69706740Y-34938964D01*
X69469000Y-35059622D01*
X69215000Y-35059622D01*
X68977260Y-34938964D01*
X68871914Y-34963244D01*
X68346394Y-35254788D01*
X68078192Y-35592210D01*
X67887409Y-35306682D01*
X67389419Y-34973936D01*
X66802000Y-34857091D01*
X66214581Y-34973936D01*
X65716591Y-35306682D01*
X65532000Y-35582942D01*
X65347409Y-35306682D01*
X64849419Y-34973936D01*
X64262000Y-34857091D01*
X63674581Y-34973936D01*
X63176591Y-35306682D01*
X62992000Y-35582942D01*
X62807409Y-35306682D01*
X62309419Y-34973936D01*
X61722000Y-34857091D01*
X61134581Y-34973936D01*
X60636591Y-35306682D01*
X60452000Y-35582942D01*
X60267409Y-35306682D01*
X59769419Y-34973936D01*
X59182000Y-34857091D01*
X58594581Y-34973936D01*
X58096591Y-35306682D01*
X57912000Y-35582942D01*
X57727409Y-35306682D01*
X57229419Y-34973936D01*
X56642000Y-34857091D01*
X56054581Y-34973936D01*
X55556591Y-35306682D01*
X55223845Y-35804672D01*
X55107000Y-36392091D01*
X55107000Y-37267909D01*
X55129827Y-37382669D01*
X54022079Y-36274921D01*
X53767407Y-36104755D01*
X53467000Y-36045000D01*
X45407959Y-36045000D01*
X45360155Y-35804672D01*
X45027409Y-35306682D01*
X44529419Y-34973936D01*
X43942000Y-34857091D01*
X43354581Y-34973936D01*
X42856591Y-35306682D01*
X42665808Y-35592210D01*
X42397606Y-35254788D01*
X41872086Y-34963244D01*
X41766740Y-34938964D01*
X41529000Y-35059622D01*
X41529000Y-36703000D01*
X41549000Y-36703000D01*
X41549000Y-36957000D01*
X41529000Y-36957000D01*
X41529000Y-38600378D01*
X41766740Y-38721036D01*
X41872086Y-38696756D01*
X42397606Y-38405212D01*
X42665808Y-38067790D01*
X42856591Y-38353318D01*
X43354581Y-38686064D01*
X43942000Y-38802909D01*
X44529419Y-38686064D01*
X45027409Y-38353318D01*
X45360155Y-37855328D01*
X45407959Y-37615000D01*
X53141842Y-37615000D01*
X55381842Y-39855000D01*
X40457158Y-39855000D01*
X39647000Y-39044842D01*
X39647000Y-38554045D01*
X39947409Y-38353318D01*
X40138192Y-38067790D01*
X40406394Y-38405212D01*
X40931914Y-38696756D01*
X41037260Y-38721036D01*
X41275000Y-38600378D01*
X41275000Y-36957000D01*
X41255000Y-36957000D01*
X41255000Y-36703000D01*
X41275000Y-36703000D01*
X41275000Y-35059622D01*
X41037260Y-34938964D01*
X40931914Y-34963244D01*
X40406394Y-35254788D01*
X40138192Y-35592210D01*
X39947409Y-35306682D01*
X39449419Y-34973936D01*
X38862000Y-34857091D01*
X38274581Y-34973936D01*
X37776591Y-35306682D01*
X37592000Y-35582942D01*
X37407409Y-35306682D01*
X36909419Y-34973936D01*
X36322000Y-34857091D01*
X35734581Y-34973936D01*
X35236591Y-35306682D01*
X35052000Y-35582942D01*
X34867409Y-35306682D01*
X34369419Y-34973936D01*
X33782000Y-34857091D01*
X33194581Y-34973936D01*
X32696591Y-35306682D01*
X32505808Y-35592210D01*
X32237606Y-35254788D01*
X31712086Y-34963244D01*
X31606740Y-34938964D01*
X31369000Y-35059622D01*
X31369000Y-36703000D01*
X31389000Y-36703000D01*
X31389000Y-36957000D01*
X31369000Y-36957000D01*
X31369000Y-38600378D01*
X31606740Y-38721036D01*
X31712086Y-38696756D01*
X32237606Y-38405212D01*
X32505808Y-38067790D01*
X32696591Y-38353318D01*
X32931751Y-38510447D01*
X32294599Y-39147599D01*
X32129852Y-39394161D01*
X32114373Y-39471977D01*
X32030559Y-39525910D01*
X31885569Y-39738110D01*
X31834560Y-39990000D01*
X31834560Y-41290000D01*
X31878838Y-41525317D01*
X32017910Y-41741441D01*
X32230110Y-41886431D01*
X32328350Y-41906325D01*
X32122302Y-41991673D01*
X31943673Y-42170301D01*
X31847000Y-42403690D01*
X31847000Y-42894250D01*
X32005750Y-43053000D01*
X32705000Y-43053000D01*
X32705000Y-43033000D01*
X32959000Y-43033000D01*
X32959000Y-43053000D01*
X32979000Y-43053000D01*
X32979000Y-43307000D01*
X32959000Y-43307000D01*
X32959000Y-43327000D01*
X32705000Y-43327000D01*
X32705000Y-43307000D01*
X32005750Y-43307000D01*
X31847000Y-43465750D01*
X31847000Y-43956310D01*
X31943673Y-44189699D01*
X32085974Y-44331999D01*
X31594697Y-44534990D01*
X31201371Y-44927630D01*
X30988243Y-45440900D01*
X30987758Y-45996661D01*
X31199990Y-46510303D01*
X31592630Y-46903629D01*
X32105900Y-47116757D01*
X32164034Y-47116808D01*
X31829921Y-47450921D01*
X31659755Y-47705593D01*
X31616031Y-47925406D01*
X31600000Y-48006000D01*
X31600000Y-49627494D01*
X31592808Y-49634673D01*
X31450162Y-49978201D01*
X31449970Y-50198828D01*
X31283559Y-50305910D01*
X31138569Y-50518110D01*
X31118675Y-50616350D01*
X31033327Y-50410302D01*
X30854699Y-50231673D01*
X30621310Y-50135000D01*
X30130750Y-50135000D01*
X29972000Y-50293750D01*
X29972000Y-50993000D01*
X29992000Y-50993000D01*
X29992000Y-51247000D01*
X29972000Y-51247000D01*
X29972000Y-51267000D01*
X29718000Y-51267000D01*
X29718000Y-51247000D01*
X28718750Y-51247000D01*
X28560000Y-51405750D01*
X28560000Y-51596309D01*
X28656673Y-51829698D01*
X28835301Y-52008327D01*
X28971287Y-52064654D01*
X28959683Y-52066838D01*
X28743559Y-52205910D01*
X28598569Y-52418110D01*
X28547560Y-52670000D01*
X23062000Y-52670000D01*
X23062000Y-50643691D01*
X28560000Y-50643691D01*
X28560000Y-50834250D01*
X28718750Y-50993000D01*
X29718000Y-50993000D01*
X29718000Y-50293750D01*
X29559250Y-50135000D01*
X29068690Y-50135000D01*
X28835301Y-50231673D01*
X28656673Y-50410302D01*
X28560000Y-50643691D01*
X23062000Y-50643691D01*
X23062000Y-38551174D01*
X23083627Y-38603515D01*
X23964747Y-39486174D01*
X25116574Y-39964454D01*
X26363754Y-39965543D01*
X27516415Y-39489273D01*
X28399074Y-38608153D01*
X28877354Y-37456326D01*
X28877789Y-36957000D01*
X29707000Y-36957000D01*
X29707000Y-37357000D01*
X29872446Y-37934752D01*
X30246394Y-38405212D01*
X30771914Y-38696756D01*
X30877260Y-38721036D01*
X31115000Y-38600378D01*
X31115000Y-36957000D01*
X29707000Y-36957000D01*
X28877789Y-36957000D01*
X28878360Y-36303000D01*
X29707000Y-36303000D01*
X29707000Y-36703000D01*
X31115000Y-36703000D01*
X31115000Y-35059622D01*
X30877260Y-34938964D01*
X30771914Y-34963244D01*
X30246394Y-35254788D01*
X29872446Y-35725248D01*
X29707000Y-36303000D01*
X28878360Y-36303000D01*
X28878443Y-36209146D01*
X28402173Y-35056485D01*
X27711894Y-34365000D01*
X90297000Y-34365000D01*
X90568705Y-34310954D01*
X90799046Y-34157046D01*
X90952954Y-33926705D01*
X90992081Y-33730000D01*
X100034605Y-33730000D01*
X98967965Y-34170727D01*
X98967965Y-34170727D01*
G37*
X98967965Y-34170727D02*
X98085306Y-35051847D01*
X97607026Y-36203674D01*
X97605937Y-37450854D01*
X98082207Y-38603515D01*
X98963327Y-39486174D01*
X100115154Y-39964454D01*
X101362334Y-39965543D01*
X102514995Y-39489273D01*
X103397654Y-38608153D01*
X103875934Y-37456326D01*
X103877023Y-36209146D01*
X103400753Y-35056485D01*
X102519633Y-34173826D01*
X101450781Y-33730000D01*
X104192000Y-33730000D01*
X104192000Y-84839803D01*
X104175400Y-84799628D01*
X103153751Y-83776194D01*
X101818218Y-83221632D01*
X100372126Y-83220370D01*
X99035628Y-83772600D01*
X98012194Y-84794249D01*
X97457632Y-86129782D01*
X97456370Y-87575874D01*
X98008600Y-88912372D01*
X98555273Y-89460000D01*
X28710631Y-89460000D01*
X29241806Y-88929751D01*
X29796368Y-87594218D01*
X29797630Y-86148126D01*
X29657957Y-85810090D01*
X33174940Y-85810090D01*
X33174940Y-87400709D01*
X33271613Y-87634098D01*
X33450241Y-87812727D01*
X33683630Y-87909400D01*
X35274250Y-87909400D01*
X35433000Y-87750650D01*
X35433000Y-85651340D01*
X35687000Y-85651340D01*
X35687000Y-87750650D01*
X35845750Y-87909400D01*
X37436370Y-87909400D01*
X37669759Y-87812727D01*
X37848387Y-87634098D01*
X37945060Y-87400709D01*
X37945060Y-85810090D01*
X37786310Y-85651340D01*
X35687000Y-85651340D01*
X35433000Y-85651340D01*
X33333690Y-85651340D01*
X33174940Y-85810090D01*
X29657957Y-85810090D01*
X29245400Y-84811628D01*
X28223751Y-83788194D01*
X27886057Y-83647971D01*
X33174940Y-83647971D01*
X33174940Y-85238590D01*
X33333690Y-85397340D01*
X35433000Y-85397340D01*
X35433000Y-83298030D01*
X35687000Y-83298030D01*
X35687000Y-85397340D01*
X37786310Y-85397340D01*
X37945060Y-85238590D01*
X37945060Y-84572668D01*
X37970613Y-84634358D01*
X38149241Y-84812987D01*
X38382630Y-84909660D01*
X39973250Y-84909660D01*
X40132000Y-84750910D01*
X40132000Y-82651600D01*
X40386000Y-82651600D01*
X40386000Y-84750910D01*
X40544750Y-84909660D01*
X42135370Y-84909660D01*
X42368759Y-84812987D01*
X42547387Y-84634358D01*
X42644060Y-84400969D01*
X42644060Y-82810350D01*
X42485310Y-82651600D01*
X40386000Y-82651600D01*
X40132000Y-82651600D01*
X38032690Y-82651600D01*
X37873940Y-82810350D01*
X37873940Y-83476272D01*
X37848387Y-83414582D01*
X37669759Y-83235953D01*
X37436370Y-83139280D01*
X35845750Y-83139280D01*
X35687000Y-83298030D01*
X35433000Y-83298030D01*
X35274250Y-83139280D01*
X33683630Y-83139280D01*
X33450241Y-83235953D01*
X33271613Y-83414582D01*
X33174940Y-83647971D01*
X27886057Y-83647971D01*
X26888218Y-83233632D01*
X25442126Y-83232370D01*
X24105628Y-83784600D01*
X23082194Y-84806249D01*
X23062000Y-84854882D01*
X23062000Y-78613000D01*
X23716655Y-78613000D01*
X23842330Y-79244810D01*
X24200222Y-79780433D01*
X24735845Y-80138325D01*
X25367655Y-80264000D01*
X25432345Y-80264000D01*
X26064155Y-80138325D01*
X26599778Y-79780433D01*
X26957670Y-79244810D01*
X27083345Y-78613000D01*
X26957670Y-77981190D01*
X26819765Y-77774800D01*
X33162500Y-77774800D01*
X33162500Y-81274920D01*
X33206778Y-81510237D01*
X33345850Y-81726361D01*
X33558050Y-81871351D01*
X33809940Y-81922360D01*
X37310060Y-81922360D01*
X37545377Y-81878082D01*
X37761501Y-81739010D01*
X37873940Y-81574450D01*
X37873940Y-82238850D01*
X38032690Y-82397600D01*
X40132000Y-82397600D01*
X40132000Y-80298290D01*
X40386000Y-80298290D01*
X40386000Y-82397600D01*
X42485310Y-82397600D01*
X42644060Y-82238850D01*
X42644060Y-80648231D01*
X42547387Y-80414842D01*
X42368759Y-80236213D01*
X42135370Y-80139540D01*
X40544750Y-80139540D01*
X40386000Y-80298290D01*
X40132000Y-80298290D01*
X39973250Y-80139540D01*
X38382630Y-80139540D01*
X38149241Y-80236213D01*
X37970613Y-80414842D01*
X37957500Y-80446500D01*
X37957500Y-79814167D01*
X45038838Y-79814167D01*
X45164000Y-80117083D01*
X45164000Y-84328000D01*
X45225658Y-84637974D01*
X45342834Y-84813339D01*
X45401244Y-84900756D01*
X46163244Y-85662757D01*
X46426027Y-85838343D01*
X46563897Y-85865766D01*
X46736000Y-85900000D01*
X52936653Y-85900000D01*
X53309630Y-86273629D01*
X53317000Y-86276689D01*
X53317000Y-87630000D01*
X53376755Y-87930407D01*
X53546921Y-88185079D01*
X54093052Y-88731210D01*
X54164244Y-88837756D01*
X54427026Y-89013342D01*
X54737000Y-89075000D01*
X93472000Y-89075000D01*
X93781974Y-89013342D01*
X94044756Y-88837756D01*
X96584756Y-86297757D01*
X96696993Y-86129782D01*
X96760342Y-86034974D01*
X96822000Y-85725000D01*
X96822000Y-68451554D01*
X97605937Y-68451554D01*
X98082207Y-69604215D01*
X98963327Y-70486874D01*
X100115154Y-70965154D01*
X101362334Y-70966243D01*
X102514995Y-70489973D01*
X103397654Y-69608853D01*
X103875934Y-68457026D01*
X103877023Y-67209846D01*
X103400753Y-66057185D01*
X102519633Y-65174526D01*
X101367806Y-64696246D01*
X100120626Y-64695157D01*
X98967965Y-65171427D01*
X98085306Y-66052547D01*
X97607026Y-67204374D01*
X97605937Y-68451554D01*
X96822000Y-68451554D01*
X96822000Y-65070158D01*
X98092005Y-63800153D01*
X98102167Y-63800162D01*
X98445943Y-63658117D01*
X98709192Y-63395327D01*
X98851838Y-63051799D01*
X98852162Y-62679833D01*
X98710117Y-62336057D01*
X98447327Y-62072808D01*
X98103799Y-61930162D01*
X97731833Y-61929838D01*
X97388057Y-62071883D01*
X97124808Y-62334673D01*
X96982162Y-62678201D01*
X96982152Y-62689690D01*
X95545790Y-64126052D01*
X95439244Y-64197244D01*
X95263658Y-64460026D01*
X95202000Y-64770000D01*
X95202000Y-85389487D01*
X93136488Y-87455000D01*
X55037158Y-87455000D01*
X54887000Y-87304842D01*
X54887000Y-86277201D01*
X54892303Y-86275010D01*
X55285629Y-85882370D01*
X55371949Y-85674488D01*
X55456990Y-85880303D01*
X55849630Y-86273629D01*
X56362900Y-86486757D01*
X56918661Y-86487242D01*
X57432303Y-86275010D01*
X57637457Y-86070213D01*
X58381392Y-86070213D01*
X58450857Y-86312397D01*
X58974302Y-86499144D01*
X59529368Y-86471362D01*
X59913143Y-86312397D01*
X59982608Y-86070213D01*
X59182000Y-85269605D01*
X58381392Y-86070213D01*
X57637457Y-86070213D01*
X57825629Y-85882370D01*
X57905395Y-85690273D01*
X57959603Y-85821143D01*
X58201787Y-85890608D01*
X59002395Y-85090000D01*
X58201787Y-84289392D01*
X57959603Y-84358857D01*
X57909491Y-84499318D01*
X57827010Y-84299697D01*
X57434370Y-83906371D01*
X56921100Y-83693243D01*
X56365339Y-83692758D01*
X55851697Y-83904990D01*
X55458371Y-84297630D01*
X55372051Y-84505512D01*
X55287010Y-84299697D01*
X54894370Y-83906371D01*
X54381100Y-83693243D01*
X53825339Y-83692758D01*
X53311697Y-83904990D01*
X52936032Y-84280000D01*
X47071513Y-84280000D01*
X46784000Y-83992488D01*
X46784000Y-80116441D01*
X46908838Y-79815799D01*
X46909162Y-79443833D01*
X46767117Y-79100057D01*
X46692940Y-79025750D01*
X49927000Y-79025750D01*
X49927000Y-79816310D01*
X50023673Y-80049699D01*
X50202302Y-80228327D01*
X50435691Y-80325000D01*
X51276250Y-80325000D01*
X51435000Y-80166250D01*
X51435000Y-78867000D01*
X51689000Y-78867000D01*
X51689000Y-80166250D01*
X51847750Y-80325000D01*
X52688309Y-80325000D01*
X52921698Y-80228327D01*
X53100327Y-80049699D01*
X53197000Y-79816310D01*
X53197000Y-79025750D01*
X53038250Y-78867000D01*
X51689000Y-78867000D01*
X51435000Y-78867000D01*
X50085750Y-78867000D01*
X49927000Y-79025750D01*
X46692940Y-79025750D01*
X46504327Y-78836808D01*
X46160799Y-78694162D01*
X45788833Y-78693838D01*
X45445057Y-78835883D01*
X45181808Y-79098673D01*
X45039162Y-79442201D01*
X45038838Y-79814167D01*
X37957500Y-79814167D01*
X37957500Y-77774800D01*
X37913222Y-77539483D01*
X37774150Y-77323359D01*
X37561950Y-77178369D01*
X37310060Y-77127360D01*
X33809940Y-77127360D01*
X33574623Y-77171638D01*
X33358499Y-77310710D01*
X33213509Y-77522910D01*
X33162500Y-77774800D01*
X26819765Y-77774800D01*
X26730501Y-77641208D01*
X26867441Y-77553090D01*
X27012431Y-77340890D01*
X27063440Y-77089000D01*
X27063440Y-75057000D01*
X27019162Y-74821683D01*
X26880090Y-74605559D01*
X26667890Y-74460569D01*
X26416000Y-74409560D01*
X24384000Y-74409560D01*
X24148683Y-74453838D01*
X23932559Y-74592910D01*
X23787569Y-74805110D01*
X23736560Y-75057000D01*
X23736560Y-77089000D01*
X23780838Y-77324317D01*
X23919910Y-77540441D01*
X24068837Y-77642198D01*
X23842330Y-77981190D01*
X23716655Y-78613000D01*
X23062000Y-78613000D01*
X23062000Y-69551874D01*
X23083627Y-69604215D01*
X23964747Y-70486874D01*
X25116574Y-70965154D01*
X26363754Y-70966243D01*
X27516415Y-70489973D01*
X28399074Y-69608853D01*
X28877354Y-68457026D01*
X28878443Y-67209846D01*
X28402173Y-66057185D01*
X27521053Y-65174526D01*
X26464363Y-64735750D01*
X31100000Y-64735750D01*
X31100000Y-64926309D01*
X31196673Y-65159698D01*
X31375301Y-65338327D01*
X31608690Y-65435000D01*
X32099250Y-65435000D01*
X32258000Y-65276250D01*
X32258000Y-64577000D01*
X31258750Y-64577000D01*
X31100000Y-64735750D01*
X26464363Y-64735750D01*
X26369226Y-64696246D01*
X25122046Y-64695157D01*
X23969385Y-65171427D01*
X23086726Y-66052547D01*
X23062000Y-66112094D01*
X23062000Y-52670000D01*
X28547560Y-52670000D01*
X28547560Y-53370000D01*
X28591838Y-53605317D01*
X28730910Y-53821441D01*
X28943110Y-53966431D01*
X29195000Y-54017440D01*
X30495000Y-54017440D01*
X30730317Y-53973162D01*
X30946441Y-53834090D01*
X30983399Y-53780000D01*
X31244243Y-53780000D01*
X31270910Y-53821441D01*
X31483110Y-53966431D01*
X31625000Y-53995164D01*
X31625000Y-55638960D01*
X31521400Y-55638960D01*
X31286083Y-55683238D01*
X31069959Y-55822310D01*
X30924969Y-56034510D01*
X30873960Y-56286400D01*
X30873960Y-58013600D01*
X30918238Y-58248917D01*
X31057310Y-58465041D01*
X31269510Y-58610031D01*
X31366451Y-58629662D01*
X31178179Y-58801510D01*
X30930032Y-59330973D01*
X31050531Y-59563000D01*
X32258000Y-59563000D01*
X32258000Y-59543000D01*
X32512000Y-59543000D01*
X32512000Y-59563000D01*
X32532000Y-59563000D01*
X32532000Y-59817000D01*
X32512000Y-59817000D01*
X32512000Y-59837000D01*
X32258000Y-59837000D01*
X32258000Y-59817000D01*
X31050531Y-59817000D01*
X30930032Y-60049027D01*
X31178179Y-60578490D01*
X31610053Y-60972688D01*
X31840545Y-61068155D01*
X31682852Y-61304161D01*
X31629493Y-61572413D01*
X31499683Y-61596838D01*
X31283559Y-61735910D01*
X31138569Y-61948110D01*
X31087560Y-62200000D01*
X31087560Y-62900000D01*
X31131838Y-63135317D01*
X31270910Y-63351441D01*
X31483110Y-63496431D01*
X31516490Y-63503191D01*
X31375301Y-63561673D01*
X31196673Y-63740302D01*
X31100000Y-63973691D01*
X31100000Y-64164250D01*
X31258750Y-64323000D01*
X32258000Y-64323000D01*
X32258000Y-64303000D01*
X32512000Y-64303000D01*
X32512000Y-64323000D01*
X32532000Y-64323000D01*
X32532000Y-64577000D01*
X32512000Y-64577000D01*
X32512000Y-65276250D01*
X32670750Y-65435000D01*
X33161310Y-65435000D01*
X33394699Y-65338327D01*
X33573327Y-65159698D01*
X33657160Y-64957308D01*
X33671838Y-65035317D01*
X33810910Y-65251441D01*
X34023110Y-65396431D01*
X34275000Y-65447440D01*
X35131000Y-65447440D01*
X35131000Y-66627000D01*
X34421329Y-66627000D01*
X34312327Y-66517808D01*
X33968799Y-66375162D01*
X33596833Y-66374838D01*
X33253057Y-66516883D01*
X32989808Y-66779673D01*
X32847162Y-67123201D01*
X32846838Y-67495167D01*
X32988883Y-67838943D01*
X33251673Y-68102192D01*
X33595201Y-68244838D01*
X33899463Y-68245103D01*
X33909000Y-68247000D01*
X35453559Y-68247000D01*
X35754201Y-68371838D01*
X36126167Y-68372162D01*
X36429083Y-68247000D01*
X41656000Y-68247000D01*
X41965974Y-68185342D01*
X42228756Y-68009756D01*
X42736756Y-67501757D01*
X42844710Y-67340192D01*
X42912342Y-67238974D01*
X42974000Y-66929000D01*
X42974000Y-57912000D01*
X42936357Y-57722756D01*
X42912343Y-57602027D01*
X42736757Y-57339244D01*
X41974756Y-56577244D01*
X41929720Y-56547152D01*
X41711974Y-56401658D01*
X41402000Y-56340000D01*
X41251111Y-56340000D01*
X41064670Y-56060971D01*
X40578489Y-55736115D01*
X40005000Y-55622041D01*
X39431511Y-55736115D01*
X38945330Y-56060971D01*
X38735000Y-56375752D01*
X38524670Y-56060971D01*
X38225000Y-55860738D01*
X38225000Y-53996742D01*
X38350317Y-53973162D01*
X38566441Y-53834090D01*
X38711431Y-53621890D01*
X38762440Y-53370000D01*
X38762440Y-52670000D01*
X38718162Y-52434683D01*
X38579090Y-52218559D01*
X38366890Y-52073569D01*
X38353803Y-52070919D01*
X38566441Y-51934090D01*
X38711431Y-51721890D01*
X38762440Y-51470000D01*
X38762440Y-50770000D01*
X38718162Y-50534683D01*
X38580669Y-50321014D01*
X38882943Y-50196117D01*
X39146192Y-49933327D01*
X39288838Y-49589799D01*
X39289162Y-49217833D01*
X39147117Y-48874057D01*
X38884327Y-48610808D01*
X38540799Y-48468162D01*
X38168833Y-48467838D01*
X37825057Y-48609883D01*
X37816926Y-48618000D01*
X36986506Y-48618000D01*
X36979327Y-48610808D01*
X36635799Y-48468162D01*
X36263833Y-48467838D01*
X35920057Y-48609883D01*
X35656808Y-48872673D01*
X35514162Y-49216201D01*
X35513894Y-49523781D01*
X35402808Y-49634673D01*
X35260162Y-49978201D01*
X35260036Y-50122560D01*
X34275000Y-50122560D01*
X34039683Y-50166838D01*
X33823559Y-50305910D01*
X33678569Y-50518110D01*
X33656007Y-50629523D01*
X33638162Y-50534683D01*
X33499090Y-50318559D01*
X33319974Y-50196174D01*
X33320162Y-49979833D01*
X33178117Y-49636057D01*
X33170000Y-49627926D01*
X33170000Y-48410000D01*
X50927000Y-48410000D01*
X51227407Y-48350245D01*
X51482079Y-48180079D01*
X52117079Y-47545079D01*
X52287245Y-47290406D01*
X52330235Y-47074287D01*
X52494670Y-46964415D01*
X52705000Y-46649634D01*
X52915330Y-46964415D01*
X53317000Y-47232803D01*
X53317000Y-48718986D01*
X53018799Y-48595162D01*
X52646833Y-48594838D01*
X52343917Y-48720000D01*
X50779441Y-48720000D01*
X50478799Y-48595162D01*
X50106833Y-48594838D01*
X49763057Y-48736883D01*
X49499808Y-48999673D01*
X49357162Y-49343201D01*
X49356838Y-49715167D01*
X49498883Y-50058943D01*
X49761673Y-50322192D01*
X50105201Y-50464838D01*
X50477167Y-50465162D01*
X50780083Y-50340000D01*
X52344559Y-50340000D01*
X52645201Y-50464838D01*
X53017167Y-50465162D01*
X53317000Y-50341274D01*
X53317000Y-52169516D01*
X53272799Y-52151162D01*
X52900833Y-52150838D01*
X52557057Y-52292883D01*
X52548926Y-52301000D01*
X50575506Y-52301000D01*
X50568327Y-52293808D01*
X50224799Y-52151162D01*
X49852833Y-52150838D01*
X49509057Y-52292883D01*
X49245808Y-52555673D01*
X49103162Y-52899201D01*
X49102838Y-53271167D01*
X49244883Y-53614943D01*
X49507673Y-53878192D01*
X49851201Y-54020838D01*
X50223167Y-54021162D01*
X50566943Y-53879117D01*
X50575074Y-53871000D01*
X52548494Y-53871000D01*
X52555673Y-53878192D01*
X52899201Y-54020838D01*
X53271167Y-54021162D01*
X53317000Y-54002224D01*
X53317000Y-55068986D01*
X53018799Y-54945162D01*
X52646833Y-54944838D01*
X52343917Y-55070000D01*
X49657000Y-55070000D01*
X49347027Y-55131657D01*
X49084244Y-55307243D01*
X48793917Y-55597571D01*
X48493057Y-55721883D01*
X48229808Y-55984673D01*
X48087162Y-56328201D01*
X48086838Y-56700167D01*
X48228883Y-57043943D01*
X48491673Y-57307192D01*
X48835201Y-57449838D01*
X49207167Y-57450162D01*
X49550943Y-57308117D01*
X49814192Y-57045327D01*
X49939884Y-56742629D01*
X49992513Y-56690000D01*
X52344559Y-56690000D01*
X52645201Y-56814838D01*
X53017167Y-56815162D01*
X53317000Y-56691274D01*
X53317000Y-59447197D01*
X52915330Y-59715585D01*
X52708539Y-60025069D01*
X52337036Y-59609268D01*
X51809791Y-59355291D01*
X51794026Y-59352642D01*
X51562000Y-59473783D01*
X51562000Y-60833000D01*
X51582000Y-60833000D01*
X51582000Y-61087000D01*
X51562000Y-61087000D01*
X51562000Y-61107000D01*
X51308000Y-61107000D01*
X51308000Y-61087000D01*
X51288000Y-61087000D01*
X51288000Y-60833000D01*
X51308000Y-60833000D01*
X51308000Y-59473783D01*
X51075974Y-59352642D01*
X51060209Y-59355291D01*
X50532964Y-59609268D01*
X50161461Y-60025069D01*
X49954670Y-59715585D01*
X49468489Y-59390729D01*
X48895000Y-59276655D01*
X48321511Y-59390729D01*
X47835330Y-59715585D01*
X47510474Y-60201766D01*
X47396400Y-60775255D01*
X47396400Y-61144745D01*
X47510474Y-61718234D01*
X47835330Y-62204415D01*
X48181921Y-62436000D01*
X45339000Y-62436000D01*
X45029027Y-62497657D01*
X44766244Y-62673243D01*
X44131244Y-63308244D01*
X43955658Y-63571026D01*
X43894000Y-63881000D01*
X43894000Y-68279957D01*
X43756833Y-68279838D01*
X43453917Y-68405000D01*
X34650441Y-68405000D01*
X34349799Y-68280162D01*
X33977833Y-68279838D01*
X33634057Y-68421883D01*
X33370808Y-68684673D01*
X33228162Y-69028201D01*
X33227838Y-69400167D01*
X33369883Y-69743943D01*
X33632673Y-70007192D01*
X33976201Y-70149838D01*
X34348167Y-70150162D01*
X34651083Y-70025000D01*
X43454559Y-70025000D01*
X43755201Y-70149838D01*
X43894000Y-70149959D01*
X43894000Y-77236559D01*
X43769162Y-77537201D01*
X43768838Y-77909167D01*
X43910883Y-78252943D01*
X44173673Y-78516192D01*
X44517201Y-78658838D01*
X44889167Y-78659162D01*
X45232943Y-78517117D01*
X45496192Y-78254327D01*
X45638838Y-77910799D01*
X45639053Y-77663690D01*
X49927000Y-77663690D01*
X49927000Y-78454250D01*
X50085750Y-78613000D01*
X51435000Y-78613000D01*
X51435000Y-78593000D01*
X51689000Y-78593000D01*
X51689000Y-78613000D01*
X53038250Y-78613000D01*
X53197000Y-78454250D01*
X53197000Y-77663690D01*
X53100327Y-77430301D01*
X52921698Y-77251673D01*
X52801749Y-77201988D01*
X52904914Y-77099003D01*
X53146724Y-76516659D01*
X53147275Y-75886107D01*
X52906481Y-75303343D01*
X52461003Y-74857086D01*
X51878659Y-74615276D01*
X51248107Y-74614725D01*
X50665343Y-74855519D01*
X50219086Y-75300997D01*
X49977276Y-75883341D01*
X49976725Y-76513893D01*
X50217519Y-77096657D01*
X50322545Y-77201867D01*
X50202302Y-77251673D01*
X50023673Y-77430301D01*
X49927000Y-77663690D01*
X45639053Y-77663690D01*
X45639162Y-77538833D01*
X45514000Y-77235917D01*
X45514000Y-70289167D01*
X46308838Y-70289167D01*
X46450883Y-70632943D01*
X46459000Y-70641074D01*
X46459000Y-72106494D01*
X46451808Y-72113673D01*
X46309162Y-72457201D01*
X46308838Y-72829167D01*
X46450883Y-73172943D01*
X46713673Y-73436192D01*
X47057201Y-73578838D01*
X47429167Y-73579162D01*
X47772943Y-73437117D01*
X48036192Y-73174327D01*
X48178838Y-72830799D01*
X48179162Y-72458833D01*
X48037117Y-72115057D01*
X48029000Y-72106926D01*
X48029000Y-70641506D01*
X48036192Y-70634327D01*
X48178838Y-70290799D01*
X48179162Y-69918833D01*
X48037117Y-69575057D01*
X47774327Y-69311808D01*
X47430799Y-69169162D01*
X47058833Y-69168838D01*
X46715057Y-69310883D01*
X46451808Y-69573673D01*
X46309162Y-69917201D01*
X46308838Y-70289167D01*
X45514000Y-70289167D01*
X45514000Y-64216512D01*
X45674513Y-64056000D01*
X55832000Y-64056000D01*
X55832000Y-79658470D01*
X55809559Y-79672910D01*
X55664569Y-79885110D01*
X55613560Y-80137000D01*
X55613560Y-80899000D01*
X55632141Y-80997747D01*
X55613560Y-81089500D01*
X55613560Y-82423000D01*
X55657838Y-82658317D01*
X55796910Y-82874441D01*
X56009110Y-83019431D01*
X56261000Y-83070440D01*
X57277000Y-83070440D01*
X57512317Y-83026162D01*
X57728441Y-82887090D01*
X57736093Y-82875890D01*
X57979201Y-82976838D01*
X58351167Y-82977162D01*
X58374078Y-82967695D01*
X58373838Y-83243167D01*
X58515883Y-83586943D01*
X58695073Y-83766445D01*
X58450857Y-83867603D01*
X58381392Y-84109787D01*
X59182000Y-84910395D01*
X59982608Y-84109787D01*
X59913143Y-83867603D01*
X59845576Y-83843497D01*
X60101192Y-83588327D01*
X60243838Y-83244799D01*
X60244162Y-82872833D01*
X60221000Y-82816777D01*
X60221000Y-81563506D01*
X60228192Y-81556327D01*
X60370838Y-81212799D01*
X60371162Y-80840833D01*
X60229117Y-80497057D01*
X59966327Y-80233808D01*
X59622799Y-80091162D01*
X59250833Y-80090838D01*
X58907057Y-80232883D01*
X58643808Y-80495673D01*
X58501162Y-80839201D01*
X58500875Y-81168649D01*
X58352799Y-81107162D01*
X57980833Y-81106838D01*
X57924440Y-81130139D01*
X57924440Y-81089500D01*
X57905859Y-80990753D01*
X57924440Y-80899000D01*
X57924440Y-80137000D01*
X57880162Y-79901683D01*
X57741090Y-79685559D01*
X57528890Y-79540569D01*
X57452000Y-79524998D01*
X57452000Y-79025750D01*
X60087000Y-79025750D01*
X60087000Y-79816310D01*
X60183673Y-80049699D01*
X60362302Y-80228327D01*
X60595691Y-80325000D01*
X61436250Y-80325000D01*
X61595000Y-80166250D01*
X61595000Y-78867000D01*
X61849000Y-78867000D01*
X61849000Y-80166250D01*
X62007750Y-80325000D01*
X62848309Y-80325000D01*
X63081698Y-80228327D01*
X63260327Y-80049699D01*
X63357000Y-79816310D01*
X63357000Y-79025750D01*
X63198250Y-78867000D01*
X61849000Y-78867000D01*
X61595000Y-78867000D01*
X60245750Y-78867000D01*
X60087000Y-79025750D01*
X57452000Y-79025750D01*
X57452000Y-77663690D01*
X60087000Y-77663690D01*
X60087000Y-78454250D01*
X60245750Y-78613000D01*
X61595000Y-78613000D01*
X61595000Y-78593000D01*
X61849000Y-78593000D01*
X61849000Y-78613000D01*
X63198250Y-78613000D01*
X63357000Y-78454250D01*
X63357000Y-77663690D01*
X63260327Y-77430301D01*
X63081698Y-77251673D01*
X62961749Y-77201988D01*
X63064914Y-77099003D01*
X63306724Y-76516659D01*
X63307275Y-75886107D01*
X63066481Y-75303343D01*
X62621003Y-74857086D01*
X62038659Y-74615276D01*
X61408107Y-74614725D01*
X60825343Y-74855519D01*
X60379086Y-75300997D01*
X60137276Y-75883341D01*
X60136725Y-76513893D01*
X60377519Y-77096657D01*
X60482545Y-77201867D01*
X60362302Y-77251673D01*
X60183673Y-77430301D01*
X60087000Y-77663690D01*
X57452000Y-77663690D01*
X57452000Y-71516158D01*
X60023921Y-74088079D01*
X60278594Y-74258245D01*
X60579000Y-74318000D01*
X63555842Y-74318000D01*
X64849919Y-75612076D01*
X64849921Y-75612079D01*
X65104594Y-75782245D01*
X65405000Y-75842000D01*
X67287000Y-75842000D01*
X67287000Y-76297494D01*
X67279808Y-76304673D01*
X67137162Y-76648201D01*
X67136838Y-77020167D01*
X67278883Y-77363943D01*
X67541673Y-77627192D01*
X67885201Y-77769838D01*
X68257167Y-77770162D01*
X68557000Y-77646274D01*
X68557000Y-83902799D01*
X68551697Y-83904990D01*
X68158371Y-84297630D01*
X68072051Y-84505512D01*
X67987010Y-84299697D01*
X67594370Y-83906371D01*
X67081100Y-83693243D01*
X66525339Y-83692758D01*
X66011697Y-83904990D01*
X65618371Y-84297630D01*
X65532051Y-84505512D01*
X65447010Y-84299697D01*
X65054370Y-83906371D01*
X64541100Y-83693243D01*
X63985339Y-83692758D01*
X63471697Y-83904990D01*
X63078371Y-84297630D01*
X62992051Y-84505512D01*
X62907010Y-84299697D01*
X62514370Y-83906371D01*
X62001100Y-83693243D01*
X61445339Y-83692758D01*
X60931697Y-83904990D01*
X60538371Y-84297630D01*
X60458605Y-84489727D01*
X60404397Y-84358857D01*
X60162213Y-84289392D01*
X59361605Y-85090000D01*
X60162213Y-85890608D01*
X60404397Y-85821143D01*
X60454509Y-85680682D01*
X60536990Y-85880303D01*
X60929630Y-86273629D01*
X61442900Y-86486757D01*
X61998661Y-86487242D01*
X62512303Y-86275010D01*
X62905629Y-85882370D01*
X62991949Y-85674488D01*
X63076990Y-85880303D01*
X63469630Y-86273629D01*
X63982900Y-86486757D01*
X64538661Y-86487242D01*
X65052303Y-86275010D01*
X65445629Y-85882370D01*
X65531949Y-85674488D01*
X65616990Y-85880303D01*
X66009630Y-86273629D01*
X66522900Y-86486757D01*
X67078661Y-86487242D01*
X67592303Y-86275010D01*
X67985629Y-85882370D01*
X68071949Y-85674488D01*
X68156990Y-85880303D01*
X68549630Y-86273629D01*
X69062900Y-86486757D01*
X69618661Y-86487242D01*
X70132303Y-86275010D01*
X70525629Y-85882370D01*
X70611949Y-85674488D01*
X70696990Y-85880303D01*
X71089630Y-86273629D01*
X71602900Y-86486757D01*
X72158661Y-86487242D01*
X72672303Y-86275010D01*
X73065629Y-85882370D01*
X73068689Y-85875000D01*
X76327000Y-85875000D01*
X76627407Y-85815245D01*
X76882079Y-85645079D01*
X77517079Y-85010079D01*
X77687245Y-84755406D01*
X77747001Y-84455000D01*
X77747000Y-84454995D01*
X77747000Y-64193167D01*
X78312838Y-64193167D01*
X78454883Y-64536943D01*
X78463000Y-64545074D01*
X78463000Y-78837494D01*
X78455808Y-78844673D01*
X78313162Y-79188201D01*
X78312838Y-79560167D01*
X78454883Y-79903943D01*
X78717673Y-80167192D01*
X79061201Y-80309838D01*
X79433167Y-80310162D01*
X79776943Y-80168117D01*
X80040192Y-79905327D01*
X80182838Y-79561799D01*
X80183162Y-79189833D01*
X80041117Y-78846057D01*
X80033000Y-78837926D01*
X80033000Y-72031661D01*
X81914758Y-72031661D01*
X82126990Y-72545303D01*
X82519630Y-72938629D01*
X82727512Y-73024949D01*
X82521697Y-73109990D01*
X82128371Y-73502630D01*
X81915243Y-74015900D01*
X81914758Y-74571661D01*
X82126990Y-75085303D01*
X82519630Y-75478629D01*
X82727512Y-75564949D01*
X82521697Y-75649990D01*
X82128371Y-76042630D01*
X81915243Y-76555900D01*
X81914758Y-77111661D01*
X82126990Y-77625303D01*
X82519630Y-78018629D01*
X82727512Y-78104949D01*
X82521697Y-78189990D01*
X82128371Y-78582630D01*
X81915243Y-79095900D01*
X81914758Y-79651661D01*
X82126990Y-80165303D01*
X82519630Y-80558629D01*
X82727512Y-80644949D01*
X82521697Y-80729990D01*
X82128371Y-81122630D01*
X81915243Y-81635900D01*
X81914758Y-82191661D01*
X82126990Y-82705303D01*
X82519630Y-83098629D01*
X83032900Y-83311757D01*
X83588661Y-83312242D01*
X84102303Y-83100010D01*
X84495629Y-82707370D01*
X84708757Y-82194100D01*
X84709242Y-81638339D01*
X84663729Y-81528187D01*
X91274752Y-81528187D01*
X91492757Y-82055800D01*
X91896077Y-82459824D01*
X92423309Y-82678750D01*
X92994187Y-82679248D01*
X93521800Y-82461243D01*
X93925824Y-82057923D01*
X94144750Y-81530691D01*
X94145248Y-80959813D01*
X93927243Y-80432200D01*
X93523923Y-80028176D01*
X92996691Y-79809250D01*
X92425813Y-79808752D01*
X91898200Y-80026757D01*
X91494176Y-80430077D01*
X91275250Y-80957309D01*
X91274752Y-81528187D01*
X84663729Y-81528187D01*
X84497010Y-81124697D01*
X84104370Y-80731371D01*
X83896488Y-80645051D01*
X84102303Y-80560010D01*
X84495629Y-80167370D01*
X84708757Y-79654100D01*
X84709242Y-79098339D01*
X84497010Y-78584697D01*
X84104370Y-78191371D01*
X83896488Y-78105051D01*
X84102303Y-78020010D01*
X84495629Y-77627370D01*
X84708757Y-77114100D01*
X84709242Y-76558339D01*
X84497010Y-76044697D01*
X84104370Y-75651371D01*
X83896488Y-75565051D01*
X84102303Y-75480010D01*
X84495629Y-75087370D01*
X84708757Y-74574100D01*
X84708831Y-74488187D01*
X91274752Y-74488187D01*
X91492757Y-75015800D01*
X91896077Y-75419824D01*
X92423309Y-75638750D01*
X92994187Y-75639248D01*
X93521800Y-75421243D01*
X93925824Y-75017923D01*
X94144750Y-74490691D01*
X94145248Y-73919813D01*
X93927243Y-73392200D01*
X93523923Y-72988176D01*
X92996691Y-72769250D01*
X92425813Y-72768752D01*
X91898200Y-72986757D01*
X91494176Y-73390077D01*
X91275250Y-73917309D01*
X91274752Y-74488187D01*
X84708831Y-74488187D01*
X84709242Y-74018339D01*
X84497010Y-73504697D01*
X84104370Y-73111371D01*
X83896488Y-73025051D01*
X84102303Y-72940010D01*
X84495629Y-72547370D01*
X84708757Y-72034100D01*
X84709242Y-71478339D01*
X84497010Y-70964697D01*
X84104370Y-70571371D01*
X83912273Y-70491605D01*
X84043143Y-70437397D01*
X84112608Y-70195213D01*
X83312000Y-69394605D01*
X82511392Y-70195213D01*
X82580857Y-70437397D01*
X82721318Y-70487509D01*
X82521697Y-70569990D01*
X82128371Y-70962630D01*
X81915243Y-71475900D01*
X81914758Y-72031661D01*
X80033000Y-72031661D01*
X80033000Y-69007302D01*
X81902856Y-69007302D01*
X81930638Y-69562368D01*
X82089603Y-69946143D01*
X82331787Y-70015608D01*
X83132395Y-69215000D01*
X83491605Y-69215000D01*
X84292213Y-70015608D01*
X84534397Y-69946143D01*
X84721144Y-69422698D01*
X84693362Y-68867632D01*
X84534397Y-68483857D01*
X84292213Y-68414392D01*
X83491605Y-69215000D01*
X83132395Y-69215000D01*
X82331787Y-68414392D01*
X82089603Y-68483857D01*
X81902856Y-69007302D01*
X80033000Y-69007302D01*
X80033000Y-68234787D01*
X82511392Y-68234787D01*
X83312000Y-69035395D01*
X84112608Y-68234787D01*
X84043143Y-67992603D01*
X83519698Y-67805856D01*
X82964632Y-67833638D01*
X82580857Y-67992603D01*
X82511392Y-68234787D01*
X80033000Y-68234787D01*
X80033000Y-67411749D01*
X80204201Y-67482838D01*
X80576167Y-67483162D01*
X80919943Y-67341117D01*
X80978162Y-67283000D01*
X83867581Y-67283000D01*
X83924673Y-67340192D01*
X84268201Y-67482838D01*
X84640167Y-67483162D01*
X84983943Y-67341117D01*
X85247192Y-67078327D01*
X85389838Y-66734799D01*
X85390162Y-66362833D01*
X85248117Y-66019057D01*
X84985327Y-65755808D01*
X84641799Y-65613162D01*
X84269833Y-65612838D01*
X83926057Y-65754883D01*
X83867838Y-65813000D01*
X80978419Y-65813000D01*
X80921327Y-65755808D01*
X80577799Y-65613162D01*
X80205833Y-65612838D01*
X80033000Y-65684251D01*
X80033000Y-64545506D01*
X80040192Y-64538327D01*
X80182838Y-64194799D01*
X80183162Y-63822833D01*
X80041117Y-63479057D01*
X79778327Y-63215808D01*
X79434799Y-63073162D01*
X79062833Y-63072838D01*
X78719057Y-63214883D01*
X78455808Y-63477673D01*
X78313162Y-63821201D01*
X78312838Y-64193167D01*
X77747000Y-64193167D01*
X77747000Y-62303085D01*
X77894670Y-62204415D01*
X78219526Y-61718234D01*
X78333600Y-61144745D01*
X78333600Y-60775255D01*
X78219526Y-60201766D01*
X77894670Y-59715585D01*
X77408489Y-59390729D01*
X76835000Y-59276655D01*
X76261511Y-59390729D01*
X75775330Y-59715585D01*
X75565000Y-60030366D01*
X75354670Y-59715585D01*
X74868489Y-59390729D01*
X74295000Y-59276655D01*
X73721511Y-59390729D01*
X73235330Y-59715585D01*
X73025000Y-60030366D01*
X72814670Y-59715585D01*
X72328489Y-59390729D01*
X71755000Y-59276655D01*
X71472052Y-59332937D01*
X71544670Y-59284415D01*
X71869526Y-58798234D01*
X71983600Y-58224745D01*
X71983600Y-57855255D01*
X71869526Y-57281766D01*
X71544670Y-56795585D01*
X71058489Y-56470729D01*
X70485000Y-56356655D01*
X69911511Y-56470729D01*
X69425330Y-56795585D01*
X69215000Y-57110366D01*
X69004670Y-56795585D01*
X68518489Y-56470729D01*
X67945000Y-56356655D01*
X67371511Y-56470729D01*
X66885330Y-56795585D01*
X66560474Y-57281766D01*
X66446400Y-57855255D01*
X66446400Y-58224745D01*
X66560474Y-58798234D01*
X66885330Y-59284415D01*
X66957948Y-59332937D01*
X66675000Y-59276655D01*
X66101511Y-59390729D01*
X65615330Y-59715585D01*
X65405000Y-60030366D01*
X65194670Y-59715585D01*
X64708489Y-59390729D01*
X64135000Y-59276655D01*
X63561511Y-59390729D01*
X63075330Y-59715585D01*
X62865000Y-60030366D01*
X62654670Y-59715585D01*
X62168489Y-59390729D01*
X61595000Y-59276655D01*
X61312052Y-59332937D01*
X61384670Y-59284415D01*
X61709526Y-58798234D01*
X61823600Y-58224745D01*
X61823600Y-57855255D01*
X61709526Y-57281766D01*
X61384670Y-56795585D01*
X61226651Y-56690000D01*
X64897000Y-56690000D01*
X65206974Y-56628342D01*
X65469756Y-56452756D01*
X66447366Y-55475147D01*
X66615201Y-55544838D01*
X66987167Y-55545162D01*
X67290083Y-55420000D01*
X77261488Y-55420000D01*
X78692000Y-56850513D01*
X78692000Y-60472559D01*
X78567162Y-60773201D01*
X78566838Y-61145167D01*
X78708883Y-61488943D01*
X78971673Y-61752192D01*
X79315201Y-61894838D01*
X79687167Y-61895162D01*
X80030943Y-61753117D01*
X80294192Y-61490327D01*
X80436838Y-61146799D01*
X80437162Y-60774833D01*
X80312000Y-60471917D01*
X80312000Y-56515000D01*
X80274843Y-56328201D01*
X80250343Y-56205027D01*
X80074757Y-55942244D01*
X78169756Y-54037244D01*
X78140117Y-54017440D01*
X77906974Y-53861658D01*
X77597000Y-53800000D01*
X67289441Y-53800000D01*
X66988799Y-53675162D01*
X66616833Y-53674838D01*
X66313917Y-53800000D01*
X66167000Y-53800000D01*
X65857026Y-53861658D01*
X65808014Y-53894407D01*
X65594243Y-54037244D01*
X64561488Y-55070000D01*
X55859441Y-55070000D01*
X55558799Y-54945162D01*
X55186833Y-54944838D01*
X54887000Y-55068726D01*
X54887000Y-54300158D01*
X56332158Y-52855000D01*
X80769442Y-52855000D01*
X80952971Y-53129670D01*
X81267752Y-53340000D01*
X80952971Y-53550330D01*
X80628115Y-54036511D01*
X80514041Y-54610000D01*
X80628115Y-55183489D01*
X80952971Y-55669670D01*
X80966642Y-55678805D01*
X80943083Y-55683238D01*
X80726959Y-55822310D01*
X80581969Y-56034510D01*
X80530960Y-56286400D01*
X80530960Y-58013600D01*
X80575238Y-58248917D01*
X80714310Y-58465041D01*
X80926510Y-58610031D01*
X81178400Y-58661040D01*
X82905600Y-58661040D01*
X83140917Y-58616762D01*
X83357041Y-58477690D01*
X83502031Y-58265490D01*
X83510908Y-58221655D01*
X83979152Y-58534526D01*
X84552641Y-58648600D01*
X84611359Y-58648600D01*
X85184848Y-58534526D01*
X85671029Y-58209670D01*
X85837853Y-57960000D01*
X87650559Y-57960000D01*
X87951201Y-58084838D01*
X88323167Y-58085162D01*
X88369000Y-58066224D01*
X88369000Y-60175000D01*
X84074000Y-60175000D01*
X83773594Y-60234755D01*
X83518921Y-60404921D01*
X82986842Y-60937000D01*
X81788000Y-60937000D01*
X81487593Y-60996755D01*
X81232921Y-61166921D01*
X80978921Y-61420921D01*
X80808755Y-61675593D01*
X80789976Y-61770000D01*
X80749000Y-61976000D01*
X80749000Y-63470494D01*
X80741808Y-63477673D01*
X80599162Y-63821201D01*
X80598838Y-64193167D01*
X80740883Y-64536943D01*
X81003673Y-64800192D01*
X81347201Y-64942838D01*
X81719167Y-64943162D01*
X82062943Y-64801117D01*
X82326192Y-64538327D01*
X82468838Y-64194799D01*
X82469162Y-63822833D01*
X82327117Y-63479057D01*
X82319000Y-63470926D01*
X82319000Y-62507000D01*
X83312000Y-62507000D01*
X83612407Y-62447245D01*
X83867079Y-62277079D01*
X84399158Y-61745000D01*
X89154000Y-61745000D01*
X89454406Y-61685245D01*
X89709079Y-61515079D01*
X89879245Y-61260406D01*
X89939000Y-60960000D01*
X89939000Y-57961014D01*
X90237201Y-58084838D01*
X90609167Y-58085162D01*
X90912083Y-57960000D01*
X94742000Y-57960000D01*
X95051974Y-57898342D01*
X95314756Y-57722756D01*
X95822756Y-57214757D01*
X95936890Y-57043943D01*
X95998342Y-56951974D01*
X96060000Y-56642000D01*
X96060000Y-50271441D01*
X96184838Y-49970799D01*
X96185162Y-49598833D01*
X96043117Y-49255057D01*
X95780327Y-48991808D01*
X95436799Y-48849162D01*
X95064833Y-48848838D01*
X94721057Y-48990883D01*
X94457808Y-49253673D01*
X94315162Y-49597201D01*
X94314838Y-49969167D01*
X94440000Y-50272083D01*
X94440000Y-56306487D01*
X94406488Y-56340000D01*
X90911441Y-56340000D01*
X90610799Y-56215162D01*
X90238833Y-56214838D01*
X89939000Y-56338726D01*
X89939000Y-55118000D01*
X89879245Y-54817594D01*
X89709079Y-54562921D01*
X89709076Y-54562919D01*
X88415000Y-53268842D01*
X88415000Y-47752000D01*
X88355245Y-47451594D01*
X88185079Y-47196921D01*
X88185076Y-47196919D01*
X87677079Y-46688921D01*
X87677076Y-46688919D01*
X86153079Y-45164921D01*
X85898407Y-44994755D01*
X85598000Y-44935000D01*
X80541000Y-44935000D01*
X80541000Y-42926000D01*
X80481245Y-42625594D01*
X80311079Y-42370921D01*
X79549079Y-41608921D01*
X79294407Y-41438755D01*
X78994000Y-41379000D01*
X78597216Y-41379000D01*
X78581162Y-41293683D01*
X78443125Y-41079167D01*
X89996838Y-41079167D01*
X90138883Y-41422943D01*
X90401673Y-41686192D01*
X90745201Y-41828838D01*
X91117167Y-41829162D01*
X91420083Y-41704000D01*
X93492559Y-41704000D01*
X93793201Y-41828838D01*
X94165167Y-41829162D01*
X94508943Y-41687117D01*
X94772192Y-41424327D01*
X94914838Y-41080799D01*
X94915162Y-40708833D01*
X94773117Y-40365057D01*
X94510327Y-40101808D01*
X94166799Y-39959162D01*
X93794833Y-39958838D01*
X93491917Y-40084000D01*
X91419441Y-40084000D01*
X91118799Y-39959162D01*
X90746833Y-39958838D01*
X90403057Y-40100883D01*
X90139808Y-40363673D01*
X89997162Y-40707201D01*
X89996838Y-41079167D01*
X78443125Y-41079167D01*
X78442090Y-41077559D01*
X78229890Y-40932569D01*
X77978000Y-40881560D01*
X77216000Y-40881560D01*
X77117253Y-40900141D01*
X77025500Y-40881560D01*
X75692000Y-40881560D01*
X75456683Y-40925838D01*
X75240559Y-41064910D01*
X75095569Y-41277110D01*
X75074936Y-41379000D01*
X72969157Y-41379000D01*
X71675079Y-40084921D01*
X71420407Y-39914755D01*
X71120000Y-39855000D01*
X69994038Y-39855000D01*
X69975162Y-39754683D01*
X69836090Y-39538559D01*
X69623890Y-39393569D01*
X69372000Y-39342560D01*
X68672000Y-39342560D01*
X68436683Y-39386838D01*
X68220559Y-39525910D01*
X68075569Y-39738110D01*
X68072919Y-39751197D01*
X67936090Y-39538559D01*
X67723890Y-39393569D01*
X67562000Y-39360785D01*
X67562000Y-38570749D01*
X67887409Y-38353318D01*
X68078192Y-38067790D01*
X68346394Y-38405212D01*
X68871914Y-38696756D01*
X68977260Y-38721036D01*
X69215000Y-38600378D01*
X69215000Y-36957000D01*
X69469000Y-36957000D01*
X69469000Y-38600378D01*
X69706740Y-38721036D01*
X69812086Y-38696756D01*
X70337606Y-38405212D01*
X70711554Y-37934752D01*
X70877000Y-37357000D01*
X70877000Y-36957000D01*
X69469000Y-36957000D01*
X69215000Y-36957000D01*
X69195000Y-36957000D01*
X69195000Y-36703000D01*
X69215000Y-36703000D01*
X69215000Y-35059622D01*
X69469000Y-35059622D01*
X69469000Y-36703000D01*
X70877000Y-36703000D01*
X70877000Y-36303000D01*
X70711554Y-35725248D01*
X70337606Y-35254788D01*
X69812086Y-34963244D01*
X69706740Y-34938964D01*
X69469000Y-35059622D01*
X69215000Y-35059622D01*
X68977260Y-34938964D01*
X68871914Y-34963244D01*
X68346394Y-35254788D01*
X68078192Y-35592210D01*
X67887409Y-35306682D01*
X67389419Y-34973936D01*
X66802000Y-34857091D01*
X66214581Y-34973936D01*
X65716591Y-35306682D01*
X65532000Y-35582942D01*
X65347409Y-35306682D01*
X64849419Y-34973936D01*
X64262000Y-34857091D01*
X63674581Y-34973936D01*
X63176591Y-35306682D01*
X62992000Y-35582942D01*
X62807409Y-35306682D01*
X62309419Y-34973936D01*
X61722000Y-34857091D01*
X61134581Y-34973936D01*
X60636591Y-35306682D01*
X60452000Y-35582942D01*
X60267409Y-35306682D01*
X59769419Y-34973936D01*
X59182000Y-34857091D01*
X58594581Y-34973936D01*
X58096591Y-35306682D01*
X57912000Y-35582942D01*
X57727409Y-35306682D01*
X57229419Y-34973936D01*
X56642000Y-34857091D01*
X56054581Y-34973936D01*
X55556591Y-35306682D01*
X55223845Y-35804672D01*
X55107000Y-36392091D01*
X55107000Y-37267909D01*
X55129827Y-37382669D01*
X54022079Y-36274921D01*
X53767407Y-36104755D01*
X53467000Y-36045000D01*
X45407959Y-36045000D01*
X45360155Y-35804672D01*
X45027409Y-35306682D01*
X44529419Y-34973936D01*
X43942000Y-34857091D01*
X43354581Y-34973936D01*
X42856591Y-35306682D01*
X42665808Y-35592210D01*
X42397606Y-35254788D01*
X41872086Y-34963244D01*
X41766740Y-34938964D01*
X41529000Y-35059622D01*
X41529000Y-36703000D01*
X41549000Y-36703000D01*
X41549000Y-36957000D01*
X41529000Y-36957000D01*
X41529000Y-38600378D01*
X41766740Y-38721036D01*
X41872086Y-38696756D01*
X42397606Y-38405212D01*
X42665808Y-38067790D01*
X42856591Y-38353318D01*
X43354581Y-38686064D01*
X43942000Y-38802909D01*
X44529419Y-38686064D01*
X45027409Y-38353318D01*
X45360155Y-37855328D01*
X45407959Y-37615000D01*
X53141842Y-37615000D01*
X55381842Y-39855000D01*
X40457158Y-39855000D01*
X39647000Y-39044842D01*
X39647000Y-38554045D01*
X39947409Y-38353318D01*
X40138192Y-38067790D01*
X40406394Y-38405212D01*
X40931914Y-38696756D01*
X41037260Y-38721036D01*
X41275000Y-38600378D01*
X41275000Y-36957000D01*
X41255000Y-36957000D01*
X41255000Y-36703000D01*
X41275000Y-36703000D01*
X41275000Y-35059622D01*
X41037260Y-34938964D01*
X40931914Y-34963244D01*
X40406394Y-35254788D01*
X40138192Y-35592210D01*
X39947409Y-35306682D01*
X39449419Y-34973936D01*
X38862000Y-34857091D01*
X38274581Y-34973936D01*
X37776591Y-35306682D01*
X37592000Y-35582942D01*
X37407409Y-35306682D01*
X36909419Y-34973936D01*
X36322000Y-34857091D01*
X35734581Y-34973936D01*
X35236591Y-35306682D01*
X35052000Y-35582942D01*
X34867409Y-35306682D01*
X34369419Y-34973936D01*
X33782000Y-34857091D01*
X33194581Y-34973936D01*
X32696591Y-35306682D01*
X32505808Y-35592210D01*
X32237606Y-35254788D01*
X31712086Y-34963244D01*
X31606740Y-34938964D01*
X31369000Y-35059622D01*
X31369000Y-36703000D01*
X31389000Y-36703000D01*
X31389000Y-36957000D01*
X31369000Y-36957000D01*
X31369000Y-38600378D01*
X31606740Y-38721036D01*
X31712086Y-38696756D01*
X32237606Y-38405212D01*
X32505808Y-38067790D01*
X32696591Y-38353318D01*
X32931751Y-38510447D01*
X32294599Y-39147599D01*
X32129852Y-39394161D01*
X32114373Y-39471977D01*
X32030559Y-39525910D01*
X31885569Y-39738110D01*
X31834560Y-39990000D01*
X31834560Y-41290000D01*
X31878838Y-41525317D01*
X32017910Y-41741441D01*
X32230110Y-41886431D01*
X32328350Y-41906325D01*
X32122302Y-41991673D01*
X31943673Y-42170301D01*
X31847000Y-42403690D01*
X31847000Y-42894250D01*
X32005750Y-43053000D01*
X32705000Y-43053000D01*
X32705000Y-43033000D01*
X32959000Y-43033000D01*
X32959000Y-43053000D01*
X32979000Y-43053000D01*
X32979000Y-43307000D01*
X32959000Y-43307000D01*
X32959000Y-43327000D01*
X32705000Y-43327000D01*
X32705000Y-43307000D01*
X32005750Y-43307000D01*
X31847000Y-43465750D01*
X31847000Y-43956310D01*
X31943673Y-44189699D01*
X32085974Y-44331999D01*
X31594697Y-44534990D01*
X31201371Y-44927630D01*
X30988243Y-45440900D01*
X30987758Y-45996661D01*
X31199990Y-46510303D01*
X31592630Y-46903629D01*
X32105900Y-47116757D01*
X32164034Y-47116808D01*
X31829921Y-47450921D01*
X31659755Y-47705593D01*
X31616031Y-47925406D01*
X31600000Y-48006000D01*
X31600000Y-49627494D01*
X31592808Y-49634673D01*
X31450162Y-49978201D01*
X31449970Y-50198828D01*
X31283559Y-50305910D01*
X31138569Y-50518110D01*
X31118675Y-50616350D01*
X31033327Y-50410302D01*
X30854699Y-50231673D01*
X30621310Y-50135000D01*
X30130750Y-50135000D01*
X29972000Y-50293750D01*
X29972000Y-50993000D01*
X29992000Y-50993000D01*
X29992000Y-51247000D01*
X29972000Y-51247000D01*
X29972000Y-51267000D01*
X29718000Y-51267000D01*
X29718000Y-51247000D01*
X28718750Y-51247000D01*
X28560000Y-51405750D01*
X28560000Y-51596309D01*
X28656673Y-51829698D01*
X28835301Y-52008327D01*
X28971287Y-52064654D01*
X28959683Y-52066838D01*
X28743559Y-52205910D01*
X28598569Y-52418110D01*
X28547560Y-52670000D01*
X23062000Y-52670000D01*
X23062000Y-50643691D01*
X28560000Y-50643691D01*
X28560000Y-50834250D01*
X28718750Y-50993000D01*
X29718000Y-50993000D01*
X29718000Y-50293750D01*
X29559250Y-50135000D01*
X29068690Y-50135000D01*
X28835301Y-50231673D01*
X28656673Y-50410302D01*
X28560000Y-50643691D01*
X23062000Y-50643691D01*
X23062000Y-38551174D01*
X23083627Y-38603515D01*
X23964747Y-39486174D01*
X25116574Y-39964454D01*
X26363754Y-39965543D01*
X27516415Y-39489273D01*
X28399074Y-38608153D01*
X28877354Y-37456326D01*
X28877789Y-36957000D01*
X29707000Y-36957000D01*
X29707000Y-37357000D01*
X29872446Y-37934752D01*
X30246394Y-38405212D01*
X30771914Y-38696756D01*
X30877260Y-38721036D01*
X31115000Y-38600378D01*
X31115000Y-36957000D01*
X29707000Y-36957000D01*
X28877789Y-36957000D01*
X28878360Y-36303000D01*
X29707000Y-36303000D01*
X29707000Y-36703000D01*
X31115000Y-36703000D01*
X31115000Y-35059622D01*
X30877260Y-34938964D01*
X30771914Y-34963244D01*
X30246394Y-35254788D01*
X29872446Y-35725248D01*
X29707000Y-36303000D01*
X28878360Y-36303000D01*
X28878443Y-36209146D01*
X28402173Y-35056485D01*
X27711894Y-34365000D01*
X90297000Y-34365000D01*
X90568705Y-34310954D01*
X90799046Y-34157046D01*
X90952954Y-33926705D01*
X90992081Y-33730000D01*
X100034605Y-33730000D01*
X98967965Y-34170727D01*
G36*
X86566919Y-47799076D02*
X86566921Y-47799079D01*
X86845000Y-48077157D01*
X86845000Y-53594000D01*
X86904755Y-53894407D01*
X87074921Y-54149079D01*
X88369000Y-55443157D01*
X88369000Y-56233516D01*
X88324799Y-56215162D01*
X87952833Y-56214838D01*
X87649917Y-56340000D01*
X85837853Y-56340000D01*
X85671029Y-56090330D01*
X85356248Y-55880000D01*
X85671029Y-55669670D01*
X85995885Y-55183489D01*
X86109959Y-54610000D01*
X85995885Y-54036511D01*
X85671029Y-53550330D01*
X85347772Y-53334336D01*
X85470490Y-53276821D01*
X85864688Y-52844947D01*
X86036958Y-52429026D01*
X85915817Y-52197000D01*
X84709000Y-52197000D01*
X84709000Y-52217000D01*
X84455000Y-52217000D01*
X84455000Y-52197000D01*
X84435000Y-52197000D01*
X84435000Y-51943000D01*
X84455000Y-51943000D01*
X84455000Y-50735531D01*
X84709000Y-50735531D01*
X84709000Y-51943000D01*
X85915817Y-51943000D01*
X86036958Y-51710974D01*
X85864688Y-51295053D01*
X85470490Y-50863179D01*
X84941027Y-50615032D01*
X84709000Y-50735531D01*
X84455000Y-50735531D01*
X84222973Y-50615032D01*
X83693510Y-50863179D01*
X83311992Y-51281161D01*
X83131029Y-51010330D01*
X82644848Y-50685474D01*
X82071359Y-50571400D01*
X82012641Y-50571400D01*
X81439152Y-50685474D01*
X80952971Y-51010330D01*
X80769442Y-51285000D01*
X56124158Y-51285000D01*
X56435079Y-50974079D01*
X56605245Y-50719406D01*
X56665000Y-50419000D01*
X56665000Y-49601158D01*
X57983158Y-48283000D01*
X67564000Y-48283000D01*
X67864407Y-48223245D01*
X68119079Y-48053079D01*
X68842840Y-47329318D01*
X69215000Y-47403345D01*
X69788489Y-47289271D01*
X70274670Y-46964415D01*
X70485000Y-46649634D01*
X70695330Y-46964415D01*
X71181511Y-47289271D01*
X71755000Y-47403345D01*
X72328489Y-47289271D01*
X72814670Y-46964415D01*
X73025000Y-46649634D01*
X73235330Y-46964415D01*
X73721511Y-47289271D01*
X74295000Y-47403345D01*
X74868489Y-47289271D01*
X75354670Y-46964415D01*
X75565000Y-46649634D01*
X75775330Y-46964415D01*
X76261511Y-47289271D01*
X76835000Y-47403345D01*
X77408489Y-47289271D01*
X77894670Y-46964415D01*
X78201642Y-46505000D01*
X85272842Y-46505000D01*
X86566919Y-47799076D01*
X86566919Y-47799076D01*
G37*
X86566919Y-47799076D02*
X86566921Y-47799079D01*
X86845000Y-48077157D01*
X86845000Y-53594000D01*
X86904755Y-53894407D01*
X87074921Y-54149079D01*
X88369000Y-55443157D01*
X88369000Y-56233516D01*
X88324799Y-56215162D01*
X87952833Y-56214838D01*
X87649917Y-56340000D01*
X85837853Y-56340000D01*
X85671029Y-56090330D01*
X85356248Y-55880000D01*
X85671029Y-55669670D01*
X85995885Y-55183489D01*
X86109959Y-54610000D01*
X85995885Y-54036511D01*
X85671029Y-53550330D01*
X85347772Y-53334336D01*
X85470490Y-53276821D01*
X85864688Y-52844947D01*
X86036958Y-52429026D01*
X85915817Y-52197000D01*
X84709000Y-52197000D01*
X84709000Y-52217000D01*
X84455000Y-52217000D01*
X84455000Y-52197000D01*
X84435000Y-52197000D01*
X84435000Y-51943000D01*
X84455000Y-51943000D01*
X84455000Y-50735531D01*
X84709000Y-50735531D01*
X84709000Y-51943000D01*
X85915817Y-51943000D01*
X86036958Y-51710974D01*
X85864688Y-51295053D01*
X85470490Y-50863179D01*
X84941027Y-50615032D01*
X84709000Y-50735531D01*
X84455000Y-50735531D01*
X84222973Y-50615032D01*
X83693510Y-50863179D01*
X83311992Y-51281161D01*
X83131029Y-51010330D01*
X82644848Y-50685474D01*
X82071359Y-50571400D01*
X82012641Y-50571400D01*
X81439152Y-50685474D01*
X80952971Y-51010330D01*
X80769442Y-51285000D01*
X56124158Y-51285000D01*
X56435079Y-50974079D01*
X56605245Y-50719406D01*
X56665000Y-50419000D01*
X56665000Y-49601158D01*
X57983158Y-48283000D01*
X67564000Y-48283000D01*
X67864407Y-48223245D01*
X68119079Y-48053079D01*
X68842840Y-47329318D01*
X69215000Y-47403345D01*
X69788489Y-47289271D01*
X70274670Y-46964415D01*
X70485000Y-46649634D01*
X70695330Y-46964415D01*
X71181511Y-47289271D01*
X71755000Y-47403345D01*
X72328489Y-47289271D01*
X72814670Y-46964415D01*
X73025000Y-46649634D01*
X73235330Y-46964415D01*
X73721511Y-47289271D01*
X74295000Y-47403345D01*
X74868489Y-47289271D01*
X75354670Y-46964415D01*
X75565000Y-46649634D01*
X75775330Y-46964415D01*
X76261511Y-47289271D01*
X76835000Y-47403345D01*
X77408489Y-47289271D01*
X77894670Y-46964415D01*
X78201642Y-46505000D01*
X85272842Y-46505000D01*
X86566919Y-47799076D01*
G36*
X37776591Y-38353318D02*
X38077000Y-38554045D01*
X38077000Y-39370000D01*
X38136755Y-39670407D01*
X38306921Y-39925079D01*
X39576921Y-41195079D01*
X39831593Y-41365245D01*
X40132000Y-41425000D01*
X55681842Y-41425000D01*
X58397000Y-44140158D01*
X58397000Y-44207197D01*
X57995330Y-44475585D01*
X57788539Y-44785069D01*
X57417036Y-44369268D01*
X56889791Y-44115291D01*
X56874026Y-44112642D01*
X56642000Y-44233783D01*
X56642000Y-45593000D01*
X56662000Y-45593000D01*
X56662000Y-45847000D01*
X56642000Y-45847000D01*
X56642000Y-47206217D01*
X56771837Y-47274005D01*
X55324921Y-48720921D01*
X55154755Y-48975593D01*
X55154755Y-48975594D01*
X55095000Y-49276000D01*
X55095000Y-50093842D01*
X54942995Y-50245847D01*
X54932833Y-50245838D01*
X54887000Y-50264776D01*
X54887000Y-47063085D01*
X55034670Y-46964415D01*
X55241461Y-46654931D01*
X55612964Y-47070732D01*
X56140209Y-47324709D01*
X56155974Y-47327358D01*
X56388000Y-47206217D01*
X56388000Y-45847000D01*
X56368000Y-45847000D01*
X56368000Y-45593000D01*
X56388000Y-45593000D01*
X56388000Y-44233783D01*
X56155974Y-44112642D01*
X56140209Y-44115291D01*
X55612964Y-44369268D01*
X55241461Y-44785069D01*
X55034670Y-44475585D01*
X54548489Y-44150729D01*
X53975000Y-44036655D01*
X53401511Y-44150729D01*
X52915330Y-44475585D01*
X52705000Y-44790366D01*
X52494670Y-44475585D01*
X52008489Y-44150729D01*
X51435000Y-44036655D01*
X50861511Y-44150729D01*
X50375330Y-44475585D01*
X50365757Y-44489913D01*
X50361762Y-44468683D01*
X50222690Y-44252559D01*
X50010490Y-44107569D01*
X49758600Y-44056560D01*
X48031400Y-44056560D01*
X47796083Y-44100838D01*
X47579959Y-44239910D01*
X47434969Y-44452110D01*
X47383960Y-44704000D01*
X47383960Y-44935000D01*
X42672000Y-44935000D01*
X42371593Y-44994755D01*
X42116921Y-45164921D01*
X41862921Y-45418921D01*
X41692755Y-45673593D01*
X41667444Y-45800838D01*
X41633000Y-45974000D01*
X41633000Y-46198494D01*
X41625808Y-46205673D01*
X41483162Y-46549201D01*
X41482909Y-46840000D01*
X40860427Y-46840000D01*
X41188629Y-46512370D01*
X41401757Y-45999100D01*
X41402242Y-45443339D01*
X41190010Y-44929697D01*
X40797370Y-44536371D01*
X40284100Y-44323243D01*
X39728339Y-44322758D01*
X39214697Y-44534990D01*
X38821371Y-44927630D01*
X38741605Y-45119727D01*
X38687397Y-44988857D01*
X38445213Y-44919392D01*
X37644605Y-45720000D01*
X38445213Y-46520608D01*
X38687397Y-46451143D01*
X38737509Y-46310682D01*
X38819990Y-46510303D01*
X39149112Y-46840000D01*
X38225513Y-46840000D01*
X38265608Y-46700213D01*
X37465000Y-45899605D01*
X36664392Y-46700213D01*
X36704487Y-46840000D01*
X35780427Y-46840000D01*
X36108629Y-46512370D01*
X36188395Y-46320273D01*
X36242603Y-46451143D01*
X36484787Y-46520608D01*
X37285395Y-45720000D01*
X36484787Y-44919392D01*
X36242603Y-44988857D01*
X36192491Y-45129318D01*
X36110010Y-44929697D01*
X35920432Y-44739787D01*
X36664392Y-44739787D01*
X37465000Y-45540395D01*
X38265608Y-44739787D01*
X38196143Y-44497603D01*
X37672698Y-44310856D01*
X37117632Y-44338638D01*
X36733857Y-44497603D01*
X36664392Y-44739787D01*
X35920432Y-44739787D01*
X35717370Y-44536371D01*
X35376735Y-44394927D01*
X35533441Y-44294090D01*
X35678431Y-44081890D01*
X35729440Y-43830000D01*
X35729440Y-42530000D01*
X35685162Y-42294683D01*
X35546090Y-42078559D01*
X35492000Y-42041601D01*
X35492000Y-41780757D01*
X35533441Y-41754090D01*
X35678431Y-41541890D01*
X35729440Y-41290000D01*
X35729440Y-40402362D01*
X36859401Y-39272401D01*
X37024148Y-39025839D01*
X37082000Y-38735000D01*
X37082000Y-38570749D01*
X37407409Y-38353318D01*
X37592000Y-38077058D01*
X37776591Y-38353318D01*
X37776591Y-38353318D01*
G37*
X37776591Y-38353318D02*
X38077000Y-38554045D01*
X38077000Y-39370000D01*
X38136755Y-39670407D01*
X38306921Y-39925079D01*
X39576921Y-41195079D01*
X39831593Y-41365245D01*
X40132000Y-41425000D01*
X55681842Y-41425000D01*
X58397000Y-44140158D01*
X58397000Y-44207197D01*
X57995330Y-44475585D01*
X57788539Y-44785069D01*
X57417036Y-44369268D01*
X56889791Y-44115291D01*
X56874026Y-44112642D01*
X56642000Y-44233783D01*
X56642000Y-45593000D01*
X56662000Y-45593000D01*
X56662000Y-45847000D01*
X56642000Y-45847000D01*
X56642000Y-47206217D01*
X56771837Y-47274005D01*
X55324921Y-48720921D01*
X55154755Y-48975593D01*
X55154755Y-48975594D01*
X55095000Y-49276000D01*
X55095000Y-50093842D01*
X54942995Y-50245847D01*
X54932833Y-50245838D01*
X54887000Y-50264776D01*
X54887000Y-47063085D01*
X55034670Y-46964415D01*
X55241461Y-46654931D01*
X55612964Y-47070732D01*
X56140209Y-47324709D01*
X56155974Y-47327358D01*
X56388000Y-47206217D01*
X56388000Y-45847000D01*
X56368000Y-45847000D01*
X56368000Y-45593000D01*
X56388000Y-45593000D01*
X56388000Y-44233783D01*
X56155974Y-44112642D01*
X56140209Y-44115291D01*
X55612964Y-44369268D01*
X55241461Y-44785069D01*
X55034670Y-44475585D01*
X54548489Y-44150729D01*
X53975000Y-44036655D01*
X53401511Y-44150729D01*
X52915330Y-44475585D01*
X52705000Y-44790366D01*
X52494670Y-44475585D01*
X52008489Y-44150729D01*
X51435000Y-44036655D01*
X50861511Y-44150729D01*
X50375330Y-44475585D01*
X50365757Y-44489913D01*
X50361762Y-44468683D01*
X50222690Y-44252559D01*
X50010490Y-44107569D01*
X49758600Y-44056560D01*
X48031400Y-44056560D01*
X47796083Y-44100838D01*
X47579959Y-44239910D01*
X47434969Y-44452110D01*
X47383960Y-44704000D01*
X47383960Y-44935000D01*
X42672000Y-44935000D01*
X42371593Y-44994755D01*
X42116921Y-45164921D01*
X41862921Y-45418921D01*
X41692755Y-45673593D01*
X41667444Y-45800838D01*
X41633000Y-45974000D01*
X41633000Y-46198494D01*
X41625808Y-46205673D01*
X41483162Y-46549201D01*
X41482909Y-46840000D01*
X40860427Y-46840000D01*
X41188629Y-46512370D01*
X41401757Y-45999100D01*
X41402242Y-45443339D01*
X41190010Y-44929697D01*
X40797370Y-44536371D01*
X40284100Y-44323243D01*
X39728339Y-44322758D01*
X39214697Y-44534990D01*
X38821371Y-44927630D01*
X38741605Y-45119727D01*
X38687397Y-44988857D01*
X38445213Y-44919392D01*
X37644605Y-45720000D01*
X38445213Y-46520608D01*
X38687397Y-46451143D01*
X38737509Y-46310682D01*
X38819990Y-46510303D01*
X39149112Y-46840000D01*
X38225513Y-46840000D01*
X38265608Y-46700213D01*
X37465000Y-45899605D01*
X36664392Y-46700213D01*
X36704487Y-46840000D01*
X35780427Y-46840000D01*
X36108629Y-46512370D01*
X36188395Y-46320273D01*
X36242603Y-46451143D01*
X36484787Y-46520608D01*
X37285395Y-45720000D01*
X36484787Y-44919392D01*
X36242603Y-44988857D01*
X36192491Y-45129318D01*
X36110010Y-44929697D01*
X35920432Y-44739787D01*
X36664392Y-44739787D01*
X37465000Y-45540395D01*
X38265608Y-44739787D01*
X38196143Y-44497603D01*
X37672698Y-44310856D01*
X37117632Y-44338638D01*
X36733857Y-44497603D01*
X36664392Y-44739787D01*
X35920432Y-44739787D01*
X35717370Y-44536371D01*
X35376735Y-44394927D01*
X35533441Y-44294090D01*
X35678431Y-44081890D01*
X35729440Y-43830000D01*
X35729440Y-42530000D01*
X35685162Y-42294683D01*
X35546090Y-42078559D01*
X35492000Y-42041601D01*
X35492000Y-41780757D01*
X35533441Y-41754090D01*
X35678431Y-41541890D01*
X35729440Y-41290000D01*
X35729440Y-40402362D01*
X36859401Y-39272401D01*
X37024148Y-39025839D01*
X37082000Y-38735000D01*
X37082000Y-38570749D01*
X37407409Y-38353318D01*
X37592000Y-38077058D01*
X37776591Y-38353318D01*
M02*
